M48
; DRILL file KiCad 10.0.3-2.fc44 date 2026-06-16T18:17:56
; FORMAT={-:-/ absolute / metric / decimal}
; #@! TF.CreationDate,2026-06-16T18:17:56+05:30
; #@! TF.GenerationSoftware,Kicad,Pcbnew,10.0.3-2.fc44
; #@! TF.FileFunction,Plated,1,2,PTH
FMAT,2
METRIC
; #@! TA.AperFunction,Plated,PTH,ViaDrill
T1C0.300
; #@! TA.AperFunction,Plated,PTH,ViaDrill
T2C0.400
; #@! TA.AperFunction,Plated,PTH,ComponentDrill
T3C0.700
; #@! TA.AperFunction,Plated,PTH,ComponentDrill
T4C0.800
; #@! TA.AperFunction,Plated,PTH,ComponentDrill
T5C0.900
; #@! TA.AperFunction,Plated,PTH,ComponentDrill
T6C1.000
; #@! TA.AperFunction,Plated,PTH,ComponentDrill
T7C1.100
; #@! TA.AperFunction,Plated,PTH,ComponentDrill
T8C1.300
%
G90
G05
T1
X125.73Y-106.68
T2
X129.781Y-94.729
X131.064Y-118.618
X134.366Y-91.311
X138.176Y-92.961
T3
X138.938Y-99.314
X138.938Y-116.078
X139.212Y-111.506
X146.558Y-99.314
X146.558Y-116.078
X146.832Y-111.506
T4
X125.516Y-85.852
X127.02Y-120.142
X128.016Y-85.852
X129.52Y-120.142
X132.628Y-120.142
X135.128Y-120.142
T5
X139.62Y-93.726
X142.12Y-93.726
X144.526Y-103.637
X144.526Y-106.177
X144.62Y-93.726
T6
X129.286Y-81.239
X129.286Y-128.99
X131.826Y-81.239
X131.826Y-128.99
X134.366Y-81.239
X134.366Y-128.99
X152.4Y-81.28
X152.4Y-83.82
X152.4Y-126.492
X152.4Y-129.032
T7
X125.73Y-92.136
X126.746Y-114.488
X128.27Y-92.136
X129.286Y-114.488
X130.81Y-92.136
X131.826Y-114.488
T8
X140.244Y-83.968
X140.244Y-126.206
X145.244Y-83.968
X145.244Y-126.206
T6
G00X130.556Y-102.182
M15
G01X130.556Y-104.182
M16
G05
G00X132.556Y-107.882
M15
G01X134.556Y-107.882
M16
G05
G00X136.556Y-102.182
M15
G01X136.556Y-104.182
M16
G05
M30
