%TF.GenerationSoftware,KiCad,Pcbnew,10.0.3-2.fc44*%
%TF.CreationDate,2026-06-16T18:17:13+05:30*%
%TF.ProjectId,Breadboard power supply,42726561-6462-46f6-9172-6420706f7765,rev?*%
%TF.SameCoordinates,Original*%
%TF.FileFunction,Legend,Top*%
%TF.FilePolarity,Positive*%
%FSLAX46Y46*%
G04 Gerber Fmt 4.6, Leading zero omitted, Abs format (unit mm)*
G04 Created by KiCad (PCBNEW 10.0.3-2.fc44) date 2026-06-16 18:17:13*
%MOMM*%
%LPD*%
G01*
G04 APERTURE LIST*
%ADD10C,0.100000*%
%ADD11C,0.150000*%
%ADD12C,0.200000*%
%ADD13C,0.080000*%
%ADD14C,0.125000*%
%ADD15C,0.120000*%
G04 APERTURE END LIST*
D10*
X135640466Y-85760877D02*
X135607133Y-85827544D01*
X135607133Y-85827544D02*
X135607133Y-85927544D01*
X135607133Y-85927544D02*
X135640466Y-86027544D01*
X135640466Y-86027544D02*
X135707133Y-86094211D01*
X135707133Y-86094211D02*
X135773800Y-86127544D01*
X135773800Y-86127544D02*
X135907133Y-86160877D01*
X135907133Y-86160877D02*
X136007133Y-86160877D01*
X136007133Y-86160877D02*
X136140466Y-86127544D01*
X136140466Y-86127544D02*
X136207133Y-86094211D01*
X136207133Y-86094211D02*
X136273800Y-86027544D01*
X136273800Y-86027544D02*
X136307133Y-85927544D01*
X136307133Y-85927544D02*
X136307133Y-85860877D01*
X136307133Y-85860877D02*
X136273800Y-85760877D01*
X136273800Y-85760877D02*
X136240466Y-85727544D01*
X136240466Y-85727544D02*
X136007133Y-85727544D01*
X136007133Y-85727544D02*
X136007133Y-85860877D01*
X136307133Y-85427544D02*
X135607133Y-85427544D01*
X135607133Y-85427544D02*
X136307133Y-85027544D01*
X136307133Y-85027544D02*
X135607133Y-85027544D01*
X136307133Y-84694211D02*
X135607133Y-84694211D01*
X135607133Y-84694211D02*
X135607133Y-84527544D01*
X135607133Y-84527544D02*
X135640466Y-84427544D01*
X135640466Y-84427544D02*
X135707133Y-84360878D01*
X135707133Y-84360878D02*
X135773800Y-84327544D01*
X135773800Y-84327544D02*
X135907133Y-84294211D01*
X135907133Y-84294211D02*
X136007133Y-84294211D01*
X136007133Y-84294211D02*
X136140466Y-84327544D01*
X136140466Y-84327544D02*
X136207133Y-84360878D01*
X136207133Y-84360878D02*
X136273800Y-84427544D01*
X136273800Y-84427544D02*
X136307133Y-84527544D01*
X136307133Y-84527544D02*
X136307133Y-84694211D01*
X135894466Y-125638877D02*
X135861133Y-125705544D01*
X135861133Y-125705544D02*
X135861133Y-125805544D01*
X135861133Y-125805544D02*
X135894466Y-125905544D01*
X135894466Y-125905544D02*
X135961133Y-125972211D01*
X135961133Y-125972211D02*
X136027800Y-126005544D01*
X136027800Y-126005544D02*
X136161133Y-126038877D01*
X136161133Y-126038877D02*
X136261133Y-126038877D01*
X136261133Y-126038877D02*
X136394466Y-126005544D01*
X136394466Y-126005544D02*
X136461133Y-125972211D01*
X136461133Y-125972211D02*
X136527800Y-125905544D01*
X136527800Y-125905544D02*
X136561133Y-125805544D01*
X136561133Y-125805544D02*
X136561133Y-125738877D01*
X136561133Y-125738877D02*
X136527800Y-125638877D01*
X136527800Y-125638877D02*
X136494466Y-125605544D01*
X136494466Y-125605544D02*
X136261133Y-125605544D01*
X136261133Y-125605544D02*
X136261133Y-125738877D01*
X136561133Y-125305544D02*
X135861133Y-125305544D01*
X135861133Y-125305544D02*
X136561133Y-124905544D01*
X136561133Y-124905544D02*
X135861133Y-124905544D01*
X136561133Y-124572211D02*
X135861133Y-124572211D01*
X135861133Y-124572211D02*
X135861133Y-124405544D01*
X135861133Y-124405544D02*
X135894466Y-124305544D01*
X135894466Y-124305544D02*
X135961133Y-124238878D01*
X135961133Y-124238878D02*
X136027800Y-124205544D01*
X136027800Y-124205544D02*
X136161133Y-124172211D01*
X136161133Y-124172211D02*
X136261133Y-124172211D01*
X136261133Y-124172211D02*
X136394466Y-124205544D01*
X136394466Y-124205544D02*
X136461133Y-124238878D01*
X136461133Y-124238878D02*
X136527800Y-124305544D01*
X136527800Y-124305544D02*
X136561133Y-124405544D01*
X136561133Y-124405544D02*
X136561133Y-124572211D01*
X149610466Y-81442877D02*
X149577133Y-81509544D01*
X149577133Y-81509544D02*
X149577133Y-81609544D01*
X149577133Y-81609544D02*
X149610466Y-81709544D01*
X149610466Y-81709544D02*
X149677133Y-81776211D01*
X149677133Y-81776211D02*
X149743800Y-81809544D01*
X149743800Y-81809544D02*
X149877133Y-81842877D01*
X149877133Y-81842877D02*
X149977133Y-81842877D01*
X149977133Y-81842877D02*
X150110466Y-81809544D01*
X150110466Y-81809544D02*
X150177133Y-81776211D01*
X150177133Y-81776211D02*
X150243800Y-81709544D01*
X150243800Y-81709544D02*
X150277133Y-81609544D01*
X150277133Y-81609544D02*
X150277133Y-81542877D01*
X150277133Y-81542877D02*
X150243800Y-81442877D01*
X150243800Y-81442877D02*
X150210466Y-81409544D01*
X150210466Y-81409544D02*
X149977133Y-81409544D01*
X149977133Y-81409544D02*
X149977133Y-81542877D01*
X150277133Y-81109544D02*
X149577133Y-81109544D01*
X149577133Y-81109544D02*
X150277133Y-80709544D01*
X150277133Y-80709544D02*
X149577133Y-80709544D01*
X150277133Y-80376211D02*
X149577133Y-80376211D01*
X149577133Y-80376211D02*
X149577133Y-80209544D01*
X149577133Y-80209544D02*
X149610466Y-80109544D01*
X149610466Y-80109544D02*
X149677133Y-80042878D01*
X149677133Y-80042878D02*
X149743800Y-80009544D01*
X149743800Y-80009544D02*
X149877133Y-79976211D01*
X149877133Y-79976211D02*
X149977133Y-79976211D01*
X149977133Y-79976211D02*
X150110466Y-80009544D01*
X150110466Y-80009544D02*
X150177133Y-80042878D01*
X150177133Y-80042878D02*
X150243800Y-80109544D01*
X150243800Y-80109544D02*
X150277133Y-80209544D01*
X150277133Y-80209544D02*
X150277133Y-80376211D01*
X149610466Y-126400877D02*
X149577133Y-126467544D01*
X149577133Y-126467544D02*
X149577133Y-126567544D01*
X149577133Y-126567544D02*
X149610466Y-126667544D01*
X149610466Y-126667544D02*
X149677133Y-126734211D01*
X149677133Y-126734211D02*
X149743800Y-126767544D01*
X149743800Y-126767544D02*
X149877133Y-126800877D01*
X149877133Y-126800877D02*
X149977133Y-126800877D01*
X149977133Y-126800877D02*
X150110466Y-126767544D01*
X150110466Y-126767544D02*
X150177133Y-126734211D01*
X150177133Y-126734211D02*
X150243800Y-126667544D01*
X150243800Y-126667544D02*
X150277133Y-126567544D01*
X150277133Y-126567544D02*
X150277133Y-126500877D01*
X150277133Y-126500877D02*
X150243800Y-126400877D01*
X150243800Y-126400877D02*
X150210466Y-126367544D01*
X150210466Y-126367544D02*
X149977133Y-126367544D01*
X149977133Y-126367544D02*
X149977133Y-126500877D01*
X150277133Y-126067544D02*
X149577133Y-126067544D01*
X149577133Y-126067544D02*
X150277133Y-125667544D01*
X150277133Y-125667544D02*
X149577133Y-125667544D01*
X150277133Y-125334211D02*
X149577133Y-125334211D01*
X149577133Y-125334211D02*
X149577133Y-125167544D01*
X149577133Y-125167544D02*
X149610466Y-125067544D01*
X149610466Y-125067544D02*
X149677133Y-125000878D01*
X149677133Y-125000878D02*
X149743800Y-124967544D01*
X149743800Y-124967544D02*
X149877133Y-124934211D01*
X149877133Y-124934211D02*
X149977133Y-124934211D01*
X149977133Y-124934211D02*
X150110466Y-124967544D01*
X150110466Y-124967544D02*
X150177133Y-125000878D01*
X150177133Y-125000878D02*
X150243800Y-125067544D01*
X150243800Y-125067544D02*
X150277133Y-125167544D01*
X150277133Y-125167544D02*
X150277133Y-125334211D01*
D11*
X127790017Y-83534533D02*
X128223350Y-83534533D01*
X128223350Y-83534533D02*
X127956684Y-83801200D01*
X127956684Y-83801200D02*
X128056684Y-83801200D01*
X128056684Y-83801200D02*
X128119184Y-83834533D01*
X128119184Y-83834533D02*
X128148350Y-83867866D01*
X128148350Y-83867866D02*
X128173350Y-83934533D01*
X128173350Y-83934533D02*
X128152517Y-84101200D01*
X128152517Y-84101200D02*
X128110850Y-84167866D01*
X128110850Y-84167866D02*
X128073350Y-84201200D01*
X128073350Y-84201200D02*
X128002517Y-84234533D01*
X128002517Y-84234533D02*
X127802517Y-84234533D01*
X127802517Y-84234533D02*
X127740017Y-84201200D01*
X127740017Y-84201200D02*
X127710850Y-84167866D01*
X128444184Y-84167866D02*
X128473351Y-84201200D01*
X128473351Y-84201200D02*
X128435851Y-84234533D01*
X128435851Y-84234533D02*
X128406684Y-84201200D01*
X128406684Y-84201200D02*
X128444184Y-84167866D01*
X128444184Y-84167866D02*
X128435851Y-84234533D01*
X128790017Y-83534533D02*
X129223350Y-83534533D01*
X129223350Y-83534533D02*
X128956684Y-83801200D01*
X128956684Y-83801200D02*
X129056684Y-83801200D01*
X129056684Y-83801200D02*
X129119184Y-83834533D01*
X129119184Y-83834533D02*
X129148350Y-83867866D01*
X129148350Y-83867866D02*
X129173350Y-83934533D01*
X129173350Y-83934533D02*
X129152517Y-84101200D01*
X129152517Y-84101200D02*
X129110850Y-84167866D01*
X129110850Y-84167866D02*
X129073350Y-84201200D01*
X129073350Y-84201200D02*
X129002517Y-84234533D01*
X129002517Y-84234533D02*
X128802517Y-84234533D01*
X128802517Y-84234533D02*
X128740017Y-84201200D01*
X128740017Y-84201200D02*
X128710850Y-84167866D01*
X129423351Y-83534533D02*
X129569184Y-84234533D01*
X129569184Y-84234533D02*
X129890017Y-83534533D01*
X128044017Y-125952533D02*
X128477350Y-125952533D01*
X128477350Y-125952533D02*
X128210684Y-126219200D01*
X128210684Y-126219200D02*
X128310684Y-126219200D01*
X128310684Y-126219200D02*
X128373184Y-126252533D01*
X128373184Y-126252533D02*
X128402350Y-126285866D01*
X128402350Y-126285866D02*
X128427350Y-126352533D01*
X128427350Y-126352533D02*
X128406517Y-126519200D01*
X128406517Y-126519200D02*
X128364850Y-126585866D01*
X128364850Y-126585866D02*
X128327350Y-126619200D01*
X128327350Y-126619200D02*
X128256517Y-126652533D01*
X128256517Y-126652533D02*
X128056517Y-126652533D01*
X128056517Y-126652533D02*
X127994017Y-126619200D01*
X127994017Y-126619200D02*
X127964850Y-126585866D01*
X128698184Y-126585866D02*
X128727351Y-126619200D01*
X128727351Y-126619200D02*
X128689851Y-126652533D01*
X128689851Y-126652533D02*
X128660684Y-126619200D01*
X128660684Y-126619200D02*
X128698184Y-126585866D01*
X128698184Y-126585866D02*
X128689851Y-126652533D01*
X129044017Y-125952533D02*
X129477350Y-125952533D01*
X129477350Y-125952533D02*
X129210684Y-126219200D01*
X129210684Y-126219200D02*
X129310684Y-126219200D01*
X129310684Y-126219200D02*
X129373184Y-126252533D01*
X129373184Y-126252533D02*
X129402350Y-126285866D01*
X129402350Y-126285866D02*
X129427350Y-126352533D01*
X129427350Y-126352533D02*
X129406517Y-126519200D01*
X129406517Y-126519200D02*
X129364850Y-126585866D01*
X129364850Y-126585866D02*
X129327350Y-126619200D01*
X129327350Y-126619200D02*
X129256517Y-126652533D01*
X129256517Y-126652533D02*
X129056517Y-126652533D01*
X129056517Y-126652533D02*
X128994017Y-126619200D01*
X128994017Y-126619200D02*
X128964850Y-126585866D01*
X129677351Y-125952533D02*
X129823184Y-126652533D01*
X129823184Y-126652533D02*
X130144017Y-125952533D01*
X134286017Y-126206533D02*
X133952684Y-126206533D01*
X133952684Y-126206533D02*
X133877684Y-126539866D01*
X133877684Y-126539866D02*
X133915184Y-126506533D01*
X133915184Y-126506533D02*
X133986017Y-126473200D01*
X133986017Y-126473200D02*
X134152684Y-126473200D01*
X134152684Y-126473200D02*
X134215184Y-126506533D01*
X134215184Y-126506533D02*
X134244350Y-126539866D01*
X134244350Y-126539866D02*
X134269350Y-126606533D01*
X134269350Y-126606533D02*
X134248517Y-126773200D01*
X134248517Y-126773200D02*
X134206850Y-126839866D01*
X134206850Y-126839866D02*
X134169350Y-126873200D01*
X134169350Y-126873200D02*
X134098517Y-126906533D01*
X134098517Y-126906533D02*
X133931850Y-126906533D01*
X133931850Y-126906533D02*
X133869350Y-126873200D01*
X133869350Y-126873200D02*
X133840184Y-126839866D01*
X134519351Y-126206533D02*
X134665184Y-126906533D01*
X134665184Y-126906533D02*
X134986017Y-126206533D01*
X134540017Y-83534533D02*
X134206684Y-83534533D01*
X134206684Y-83534533D02*
X134131684Y-83867866D01*
X134131684Y-83867866D02*
X134169184Y-83834533D01*
X134169184Y-83834533D02*
X134240017Y-83801200D01*
X134240017Y-83801200D02*
X134406684Y-83801200D01*
X134406684Y-83801200D02*
X134469184Y-83834533D01*
X134469184Y-83834533D02*
X134498350Y-83867866D01*
X134498350Y-83867866D02*
X134523350Y-83934533D01*
X134523350Y-83934533D02*
X134502517Y-84101200D01*
X134502517Y-84101200D02*
X134460850Y-84167866D01*
X134460850Y-84167866D02*
X134423350Y-84201200D01*
X134423350Y-84201200D02*
X134352517Y-84234533D01*
X134352517Y-84234533D02*
X134185850Y-84234533D01*
X134185850Y-84234533D02*
X134123350Y-84201200D01*
X134123350Y-84201200D02*
X134094184Y-84167866D01*
X134773351Y-83534533D02*
X134919184Y-84234533D01*
X134919184Y-84234533D02*
X135240017Y-83534533D01*
D12*
X136450149Y-96149219D02*
X136640625Y-96149219D01*
X136640625Y-96149219D02*
X136735863Y-96196838D01*
X136735863Y-96196838D02*
X136831101Y-96292076D01*
X136831101Y-96292076D02*
X136878720Y-96482552D01*
X136878720Y-96482552D02*
X136878720Y-96815885D01*
X136878720Y-96815885D02*
X136831101Y-97006361D01*
X136831101Y-97006361D02*
X136735863Y-97101600D01*
X136735863Y-97101600D02*
X136640625Y-97149219D01*
X136640625Y-97149219D02*
X136450149Y-97149219D01*
X136450149Y-97149219D02*
X136354911Y-97101600D01*
X136354911Y-97101600D02*
X136259673Y-97006361D01*
X136259673Y-97006361D02*
X136212054Y-96815885D01*
X136212054Y-96815885D02*
X136212054Y-96482552D01*
X136212054Y-96482552D02*
X136259673Y-96292076D01*
X136259673Y-96292076D02*
X136354911Y-96196838D01*
X136354911Y-96196838D02*
X136450149Y-96149219D01*
X137640625Y-96625409D02*
X137307292Y-96625409D01*
X137307292Y-97149219D02*
X137307292Y-96149219D01*
X137307292Y-96149219D02*
X137783482Y-96149219D01*
X138497768Y-96625409D02*
X138164435Y-96625409D01*
X138164435Y-97149219D02*
X138164435Y-96149219D01*
X138164435Y-96149219D02*
X138640625Y-96149219D01*
X146864149Y-96149219D02*
X147054625Y-96149219D01*
X147054625Y-96149219D02*
X147149863Y-96196838D01*
X147149863Y-96196838D02*
X147245101Y-96292076D01*
X147245101Y-96292076D02*
X147292720Y-96482552D01*
X147292720Y-96482552D02*
X147292720Y-96815885D01*
X147292720Y-96815885D02*
X147245101Y-97006361D01*
X147245101Y-97006361D02*
X147149863Y-97101600D01*
X147149863Y-97101600D02*
X147054625Y-97149219D01*
X147054625Y-97149219D02*
X146864149Y-97149219D01*
X146864149Y-97149219D02*
X146768911Y-97101600D01*
X146768911Y-97101600D02*
X146673673Y-97006361D01*
X146673673Y-97006361D02*
X146626054Y-96815885D01*
X146626054Y-96815885D02*
X146626054Y-96482552D01*
X146626054Y-96482552D02*
X146673673Y-96292076D01*
X146673673Y-96292076D02*
X146768911Y-96196838D01*
X146768911Y-96196838D02*
X146864149Y-96149219D01*
X147721292Y-97149219D02*
X147721292Y-96149219D01*
X147721292Y-96149219D02*
X148292720Y-97149219D01*
X148292720Y-97149219D02*
X148292720Y-96149219D01*
X146673673Y-101086266D02*
X147435578Y-101086266D01*
X147054625Y-101467219D02*
X147054625Y-100705314D01*
X146673673Y-108706266D02*
X147435578Y-108706266D01*
D11*
X136372666Y-91214700D02*
X136472666Y-91248033D01*
X136472666Y-91248033D02*
X136639333Y-91248033D01*
X136639333Y-91248033D02*
X136705999Y-91214700D01*
X136705999Y-91214700D02*
X136739333Y-91181366D01*
X136739333Y-91181366D02*
X136772666Y-91114700D01*
X136772666Y-91114700D02*
X136772666Y-91048033D01*
X136772666Y-91048033D02*
X136739333Y-90981366D01*
X136739333Y-90981366D02*
X136705999Y-90948033D01*
X136705999Y-90948033D02*
X136639333Y-90914700D01*
X136639333Y-90914700D02*
X136505999Y-90881366D01*
X136505999Y-90881366D02*
X136439333Y-90848033D01*
X136439333Y-90848033D02*
X136405999Y-90814700D01*
X136405999Y-90814700D02*
X136372666Y-90748033D01*
X136372666Y-90748033D02*
X136372666Y-90681366D01*
X136372666Y-90681366D02*
X136405999Y-90614700D01*
X136405999Y-90614700D02*
X136439333Y-90581366D01*
X136439333Y-90581366D02*
X136505999Y-90548033D01*
X136505999Y-90548033D02*
X136672666Y-90548033D01*
X136672666Y-90548033D02*
X136772666Y-90581366D01*
X137439333Y-91248033D02*
X137039333Y-91248033D01*
X137239333Y-91248033D02*
X137239333Y-90548033D01*
X137239333Y-90548033D02*
X137172666Y-90648033D01*
X137172666Y-90648033D02*
X137106000Y-90714700D01*
X137106000Y-90714700D02*
X137039333Y-90748033D01*
X140660666Y-90881366D02*
X140894000Y-90881366D01*
X140994000Y-91248033D02*
X140660666Y-91248033D01*
X140660666Y-91248033D02*
X140660666Y-90548033D01*
X140660666Y-90548033D02*
X140994000Y-90548033D01*
X141660666Y-90581366D02*
X141593999Y-90548033D01*
X141593999Y-90548033D02*
X141493999Y-90548033D01*
X141493999Y-90548033D02*
X141393999Y-90581366D01*
X141393999Y-90581366D02*
X141327333Y-90648033D01*
X141327333Y-90648033D02*
X141293999Y-90714700D01*
X141293999Y-90714700D02*
X141260666Y-90848033D01*
X141260666Y-90848033D02*
X141260666Y-90948033D01*
X141260666Y-90948033D02*
X141293999Y-91081366D01*
X141293999Y-91081366D02*
X141327333Y-91148033D01*
X141327333Y-91148033D02*
X141393999Y-91214700D01*
X141393999Y-91214700D02*
X141493999Y-91248033D01*
X141493999Y-91248033D02*
X141560666Y-91248033D01*
X141560666Y-91248033D02*
X141660666Y-91214700D01*
X141660666Y-91214700D02*
X141693999Y-91181366D01*
X141693999Y-91181366D02*
X141693999Y-90948033D01*
X141693999Y-90948033D02*
X141560666Y-90948033D01*
X142360666Y-91248033D02*
X141960666Y-91248033D01*
X142160666Y-91248033D02*
X142160666Y-90548033D01*
X142160666Y-90548033D02*
X142093999Y-90648033D01*
X142093999Y-90648033D02*
X142027333Y-90714700D01*
X142027333Y-90714700D02*
X141960666Y-90748033D01*
X142627333Y-90614700D02*
X142660666Y-90581366D01*
X142660666Y-90581366D02*
X142727333Y-90548033D01*
X142727333Y-90548033D02*
X142894000Y-90548033D01*
X142894000Y-90548033D02*
X142960666Y-90581366D01*
X142960666Y-90581366D02*
X142994000Y-90614700D01*
X142994000Y-90614700D02*
X143027333Y-90681366D01*
X143027333Y-90681366D02*
X143027333Y-90748033D01*
X143027333Y-90748033D02*
X142994000Y-90848033D01*
X142994000Y-90848033D02*
X142594000Y-91248033D01*
X142594000Y-91248033D02*
X143027333Y-91248033D01*
X143694000Y-91248033D02*
X143294000Y-91248033D01*
X143494000Y-91248033D02*
X143494000Y-90548033D01*
X143494000Y-90548033D02*
X143427333Y-90648033D01*
X143427333Y-90648033D02*
X143360667Y-90714700D01*
X143360667Y-90714700D02*
X143294000Y-90748033D01*
X144094000Y-90848033D02*
X144027334Y-90814700D01*
X144027334Y-90814700D02*
X143994000Y-90781366D01*
X143994000Y-90781366D02*
X143960667Y-90714700D01*
X143960667Y-90714700D02*
X143960667Y-90681366D01*
X143960667Y-90681366D02*
X143994000Y-90614700D01*
X143994000Y-90614700D02*
X144027334Y-90581366D01*
X144027334Y-90581366D02*
X144094000Y-90548033D01*
X144094000Y-90548033D02*
X144227334Y-90548033D01*
X144227334Y-90548033D02*
X144294000Y-90581366D01*
X144294000Y-90581366D02*
X144327334Y-90614700D01*
X144327334Y-90614700D02*
X144360667Y-90681366D01*
X144360667Y-90681366D02*
X144360667Y-90714700D01*
X144360667Y-90714700D02*
X144327334Y-90781366D01*
X144327334Y-90781366D02*
X144294000Y-90814700D01*
X144294000Y-90814700D02*
X144227334Y-90848033D01*
X144227334Y-90848033D02*
X144094000Y-90848033D01*
X144094000Y-90848033D02*
X144027334Y-90881366D01*
X144027334Y-90881366D02*
X143994000Y-90914700D01*
X143994000Y-90914700D02*
X143960667Y-90981366D01*
X143960667Y-90981366D02*
X143960667Y-91114700D01*
X143960667Y-91114700D02*
X143994000Y-91181366D01*
X143994000Y-91181366D02*
X144027334Y-91214700D01*
X144027334Y-91214700D02*
X144094000Y-91248033D01*
X144094000Y-91248033D02*
X144227334Y-91248033D01*
X144227334Y-91248033D02*
X144294000Y-91214700D01*
X144294000Y-91214700D02*
X144327334Y-91181366D01*
X144327334Y-91181366D02*
X144360667Y-91114700D01*
X144360667Y-91114700D02*
X144360667Y-90981366D01*
X144360667Y-90981366D02*
X144327334Y-90914700D01*
X144327334Y-90914700D02*
X144294000Y-90881366D01*
X144294000Y-90881366D02*
X144227334Y-90848033D01*
X135760033Y-87609333D02*
X136260033Y-87609333D01*
X136260033Y-87609333D02*
X136360033Y-87642666D01*
X136360033Y-87642666D02*
X136426700Y-87709333D01*
X136426700Y-87709333D02*
X136460033Y-87809333D01*
X136460033Y-87809333D02*
X136460033Y-87876000D01*
X135760033Y-86942667D02*
X135760033Y-87276000D01*
X135760033Y-87276000D02*
X136093366Y-87309333D01*
X136093366Y-87309333D02*
X136060033Y-87276000D01*
X136060033Y-87276000D02*
X136026700Y-87209333D01*
X136026700Y-87209333D02*
X136026700Y-87042667D01*
X136026700Y-87042667D02*
X136060033Y-86976000D01*
X136060033Y-86976000D02*
X136093366Y-86942667D01*
X136093366Y-86942667D02*
X136160033Y-86909333D01*
X136160033Y-86909333D02*
X136326700Y-86909333D01*
X136326700Y-86909333D02*
X136393366Y-86942667D01*
X136393366Y-86942667D02*
X136426700Y-86976000D01*
X136426700Y-86976000D02*
X136460033Y-87042667D01*
X136460033Y-87042667D02*
X136460033Y-87209333D01*
X136460033Y-87209333D02*
X136426700Y-87276000D01*
X136426700Y-87276000D02*
X136393366Y-87309333D01*
X136727334Y-89171200D02*
X136827334Y-89204533D01*
X136827334Y-89204533D02*
X136994001Y-89204533D01*
X136994001Y-89204533D02*
X137060667Y-89171200D01*
X137060667Y-89171200D02*
X137094001Y-89137866D01*
X137094001Y-89137866D02*
X137127334Y-89071200D01*
X137127334Y-89071200D02*
X137127334Y-89004533D01*
X137127334Y-89004533D02*
X137094001Y-88937866D01*
X137094001Y-88937866D02*
X137060667Y-88904533D01*
X137060667Y-88904533D02*
X136994001Y-88871200D01*
X136994001Y-88871200D02*
X136860667Y-88837866D01*
X136860667Y-88837866D02*
X136794001Y-88804533D01*
X136794001Y-88804533D02*
X136760667Y-88771200D01*
X136760667Y-88771200D02*
X136727334Y-88704533D01*
X136727334Y-88704533D02*
X136727334Y-88637866D01*
X136727334Y-88637866D02*
X136760667Y-88571200D01*
X136760667Y-88571200D02*
X136794001Y-88537866D01*
X136794001Y-88537866D02*
X136860667Y-88504533D01*
X136860667Y-88504533D02*
X137027334Y-88504533D01*
X137027334Y-88504533D02*
X137127334Y-88537866D01*
X137727334Y-89171200D02*
X137660668Y-89204533D01*
X137660668Y-89204533D02*
X137527334Y-89204533D01*
X137527334Y-89204533D02*
X137460668Y-89171200D01*
X137460668Y-89171200D02*
X137427334Y-89137866D01*
X137427334Y-89137866D02*
X137394001Y-89071200D01*
X137394001Y-89071200D02*
X137394001Y-88871200D01*
X137394001Y-88871200D02*
X137427334Y-88804533D01*
X137427334Y-88804533D02*
X137460668Y-88771200D01*
X137460668Y-88771200D02*
X137527334Y-88737866D01*
X137527334Y-88737866D02*
X137660668Y-88737866D01*
X137660668Y-88737866D02*
X137727334Y-88771200D01*
X138027334Y-89204533D02*
X138027334Y-88737866D01*
X138027334Y-88871200D02*
X138060668Y-88804533D01*
X138060668Y-88804533D02*
X138094001Y-88771200D01*
X138094001Y-88771200D02*
X138160668Y-88737866D01*
X138160668Y-88737866D02*
X138227334Y-88737866D01*
X138727334Y-89171200D02*
X138660667Y-89204533D01*
X138660667Y-89204533D02*
X138527334Y-89204533D01*
X138527334Y-89204533D02*
X138460667Y-89171200D01*
X138460667Y-89171200D02*
X138427334Y-89104533D01*
X138427334Y-89104533D02*
X138427334Y-88837866D01*
X138427334Y-88837866D02*
X138460667Y-88771200D01*
X138460667Y-88771200D02*
X138527334Y-88737866D01*
X138527334Y-88737866D02*
X138660667Y-88737866D01*
X138660667Y-88737866D02*
X138727334Y-88771200D01*
X138727334Y-88771200D02*
X138760667Y-88837866D01*
X138760667Y-88837866D02*
X138760667Y-88904533D01*
X138760667Y-88904533D02*
X138427334Y-88971200D01*
X138994001Y-88737866D02*
X139127334Y-89204533D01*
X139127334Y-89204533D02*
X139260667Y-88871200D01*
X139260667Y-88871200D02*
X139394001Y-89204533D01*
X139394001Y-89204533D02*
X139527334Y-88737866D01*
X139627334Y-89271200D02*
X140160667Y-89271200D01*
X140227333Y-88504533D02*
X140627333Y-88504533D01*
X140427333Y-89204533D02*
X140427333Y-88504533D01*
X141127333Y-89171200D02*
X141060666Y-89204533D01*
X141060666Y-89204533D02*
X140927333Y-89204533D01*
X140927333Y-89204533D02*
X140860666Y-89171200D01*
X140860666Y-89171200D02*
X140827333Y-89104533D01*
X140827333Y-89104533D02*
X140827333Y-88837866D01*
X140827333Y-88837866D02*
X140860666Y-88771200D01*
X140860666Y-88771200D02*
X140927333Y-88737866D01*
X140927333Y-88737866D02*
X141060666Y-88737866D01*
X141060666Y-88737866D02*
X141127333Y-88771200D01*
X141127333Y-88771200D02*
X141160666Y-88837866D01*
X141160666Y-88837866D02*
X141160666Y-88904533D01*
X141160666Y-88904533D02*
X140827333Y-88971200D01*
X141460666Y-89204533D02*
X141460666Y-88737866D01*
X141460666Y-88871200D02*
X141494000Y-88804533D01*
X141494000Y-88804533D02*
X141527333Y-88771200D01*
X141527333Y-88771200D02*
X141594000Y-88737866D01*
X141594000Y-88737866D02*
X141660666Y-88737866D01*
X141893999Y-89204533D02*
X141893999Y-88737866D01*
X141893999Y-88804533D02*
X141927333Y-88771200D01*
X141927333Y-88771200D02*
X141993999Y-88737866D01*
X141993999Y-88737866D02*
X142093999Y-88737866D01*
X142093999Y-88737866D02*
X142160666Y-88771200D01*
X142160666Y-88771200D02*
X142193999Y-88837866D01*
X142193999Y-88837866D02*
X142193999Y-89204533D01*
X142193999Y-88837866D02*
X142227333Y-88771200D01*
X142227333Y-88771200D02*
X142293999Y-88737866D01*
X142293999Y-88737866D02*
X142393999Y-88737866D01*
X142393999Y-88737866D02*
X142460666Y-88771200D01*
X142460666Y-88771200D02*
X142493999Y-88837866D01*
X142493999Y-88837866D02*
X142493999Y-89204533D01*
X142827332Y-89204533D02*
X142827332Y-88737866D01*
X142827332Y-88504533D02*
X142793999Y-88537866D01*
X142793999Y-88537866D02*
X142827332Y-88571200D01*
X142827332Y-88571200D02*
X142860666Y-88537866D01*
X142860666Y-88537866D02*
X142827332Y-88504533D01*
X142827332Y-88504533D02*
X142827332Y-88571200D01*
X143160665Y-88737866D02*
X143160665Y-89204533D01*
X143160665Y-88804533D02*
X143193999Y-88771200D01*
X143193999Y-88771200D02*
X143260665Y-88737866D01*
X143260665Y-88737866D02*
X143360665Y-88737866D01*
X143360665Y-88737866D02*
X143427332Y-88771200D01*
X143427332Y-88771200D02*
X143460665Y-88837866D01*
X143460665Y-88837866D02*
X143460665Y-89204533D01*
X144093998Y-89204533D02*
X144093998Y-88837866D01*
X144093998Y-88837866D02*
X144060665Y-88771200D01*
X144060665Y-88771200D02*
X143993998Y-88737866D01*
X143993998Y-88737866D02*
X143860665Y-88737866D01*
X143860665Y-88737866D02*
X143793998Y-88771200D01*
X144093998Y-89171200D02*
X144027332Y-89204533D01*
X144027332Y-89204533D02*
X143860665Y-89204533D01*
X143860665Y-89204533D02*
X143793998Y-89171200D01*
X143793998Y-89171200D02*
X143760665Y-89104533D01*
X143760665Y-89104533D02*
X143760665Y-89037866D01*
X143760665Y-89037866D02*
X143793998Y-88971200D01*
X143793998Y-88971200D02*
X143860665Y-88937866D01*
X143860665Y-88937866D02*
X144027332Y-88937866D01*
X144027332Y-88937866D02*
X144093998Y-88904533D01*
X144527331Y-89204533D02*
X144460665Y-89171200D01*
X144460665Y-89171200D02*
X144427331Y-89104533D01*
X144427331Y-89104533D02*
X144427331Y-88504533D01*
X144627332Y-89271200D02*
X145160665Y-89271200D01*
X145460665Y-88504533D02*
X145527331Y-88504533D01*
X145527331Y-88504533D02*
X145593998Y-88537866D01*
X145593998Y-88537866D02*
X145627331Y-88571200D01*
X145627331Y-88571200D02*
X145660665Y-88637866D01*
X145660665Y-88637866D02*
X145693998Y-88771200D01*
X145693998Y-88771200D02*
X145693998Y-88937866D01*
X145693998Y-88937866D02*
X145660665Y-89071200D01*
X145660665Y-89071200D02*
X145627331Y-89137866D01*
X145627331Y-89137866D02*
X145593998Y-89171200D01*
X145593998Y-89171200D02*
X145527331Y-89204533D01*
X145527331Y-89204533D02*
X145460665Y-89204533D01*
X145460665Y-89204533D02*
X145393998Y-89171200D01*
X145393998Y-89171200D02*
X145360665Y-89137866D01*
X145360665Y-89137866D02*
X145327331Y-89071200D01*
X145327331Y-89071200D02*
X145293998Y-88937866D01*
X145293998Y-88937866D02*
X145293998Y-88771200D01*
X145293998Y-88771200D02*
X145327331Y-88637866D01*
X145327331Y-88637866D02*
X145360665Y-88571200D01*
X145360665Y-88571200D02*
X145393998Y-88537866D01*
X145393998Y-88537866D02*
X145460665Y-88504533D01*
X146360665Y-89204533D02*
X145960665Y-89204533D01*
X146160665Y-89204533D02*
X146160665Y-88504533D01*
X146160665Y-88504533D02*
X146093998Y-88604533D01*
X146093998Y-88604533D02*
X146027332Y-88671200D01*
X146027332Y-88671200D02*
X145960665Y-88704533D01*
X146593999Y-89204533D02*
X146960665Y-88737866D01*
X146593999Y-88737866D02*
X146960665Y-89204533D01*
X147360666Y-88504533D02*
X147427332Y-88504533D01*
X147427332Y-88504533D02*
X147493999Y-88537866D01*
X147493999Y-88537866D02*
X147527332Y-88571200D01*
X147527332Y-88571200D02*
X147560666Y-88637866D01*
X147560666Y-88637866D02*
X147593999Y-88771200D01*
X147593999Y-88771200D02*
X147593999Y-88937866D01*
X147593999Y-88937866D02*
X147560666Y-89071200D01*
X147560666Y-89071200D02*
X147527332Y-89137866D01*
X147527332Y-89137866D02*
X147493999Y-89171200D01*
X147493999Y-89171200D02*
X147427332Y-89204533D01*
X147427332Y-89204533D02*
X147360666Y-89204533D01*
X147360666Y-89204533D02*
X147293999Y-89171200D01*
X147293999Y-89171200D02*
X147260666Y-89137866D01*
X147260666Y-89137866D02*
X147227332Y-89071200D01*
X147227332Y-89071200D02*
X147193999Y-88937866D01*
X147193999Y-88937866D02*
X147193999Y-88771200D01*
X147193999Y-88771200D02*
X147227332Y-88637866D01*
X147227332Y-88637866D02*
X147260666Y-88571200D01*
X147260666Y-88571200D02*
X147293999Y-88537866D01*
X147293999Y-88537866D02*
X147360666Y-88504533D01*
X147860666Y-88571200D02*
X147893999Y-88537866D01*
X147893999Y-88537866D02*
X147960666Y-88504533D01*
X147960666Y-88504533D02*
X148127333Y-88504533D01*
X148127333Y-88504533D02*
X148193999Y-88537866D01*
X148193999Y-88537866D02*
X148227333Y-88571200D01*
X148227333Y-88571200D02*
X148260666Y-88637866D01*
X148260666Y-88637866D02*
X148260666Y-88704533D01*
X148260666Y-88704533D02*
X148227333Y-88804533D01*
X148227333Y-88804533D02*
X147827333Y-89204533D01*
X147827333Y-89204533D02*
X148260666Y-89204533D01*
X149730033Y-130281333D02*
X150230033Y-130281333D01*
X150230033Y-130281333D02*
X150330033Y-130314666D01*
X150330033Y-130314666D02*
X150396700Y-130381333D01*
X150396700Y-130381333D02*
X150430033Y-130481333D01*
X150430033Y-130481333D02*
X150430033Y-130548000D01*
X149796700Y-129981333D02*
X149763366Y-129948000D01*
X149763366Y-129948000D02*
X149730033Y-129881333D01*
X149730033Y-129881333D02*
X149730033Y-129714667D01*
X149730033Y-129714667D02*
X149763366Y-129648000D01*
X149763366Y-129648000D02*
X149796700Y-129614667D01*
X149796700Y-129614667D02*
X149863366Y-129581333D01*
X149863366Y-129581333D02*
X149930033Y-129581333D01*
X149930033Y-129581333D02*
X150030033Y-129614667D01*
X150030033Y-129614667D02*
X150430033Y-130014667D01*
X150430033Y-130014667D02*
X150430033Y-129581333D01*
X137434666Y-120520033D02*
X137434666Y-121020033D01*
X137434666Y-121020033D02*
X137401333Y-121120033D01*
X137401333Y-121120033D02*
X137334666Y-121186700D01*
X137334666Y-121186700D02*
X137234666Y-121220033D01*
X137234666Y-121220033D02*
X137168000Y-121220033D01*
X137701333Y-120520033D02*
X138167999Y-120520033D01*
X138167999Y-120520033D02*
X137867999Y-121220033D01*
D13*
X139452762Y-121319840D02*
X139509905Y-121338887D01*
X139509905Y-121338887D02*
X139605143Y-121338887D01*
X139605143Y-121338887D02*
X139643238Y-121319840D01*
X139643238Y-121319840D02*
X139662286Y-121300792D01*
X139662286Y-121300792D02*
X139681333Y-121262697D01*
X139681333Y-121262697D02*
X139681333Y-121224601D01*
X139681333Y-121224601D02*
X139662286Y-121186506D01*
X139662286Y-121186506D02*
X139643238Y-121167459D01*
X139643238Y-121167459D02*
X139605143Y-121148411D01*
X139605143Y-121148411D02*
X139528952Y-121129363D01*
X139528952Y-121129363D02*
X139490857Y-121110316D01*
X139490857Y-121110316D02*
X139471810Y-121091268D01*
X139471810Y-121091268D02*
X139452762Y-121053173D01*
X139452762Y-121053173D02*
X139452762Y-121015078D01*
X139452762Y-121015078D02*
X139471810Y-120976982D01*
X139471810Y-120976982D02*
X139490857Y-120957935D01*
X139490857Y-120957935D02*
X139528952Y-120938887D01*
X139528952Y-120938887D02*
X139624191Y-120938887D01*
X139624191Y-120938887D02*
X139681333Y-120957935D01*
X140024190Y-121319840D02*
X139986095Y-121338887D01*
X139986095Y-121338887D02*
X139909904Y-121338887D01*
X139909904Y-121338887D02*
X139871809Y-121319840D01*
X139871809Y-121319840D02*
X139852762Y-121300792D01*
X139852762Y-121300792D02*
X139833714Y-121262697D01*
X139833714Y-121262697D02*
X139833714Y-121148411D01*
X139833714Y-121148411D02*
X139852762Y-121110316D01*
X139852762Y-121110316D02*
X139871809Y-121091268D01*
X139871809Y-121091268D02*
X139909904Y-121072220D01*
X139909904Y-121072220D02*
X139986095Y-121072220D01*
X139986095Y-121072220D02*
X140024190Y-121091268D01*
X140195619Y-121338887D02*
X140195619Y-121072220D01*
X140195619Y-121148411D02*
X140214666Y-121110316D01*
X140214666Y-121110316D02*
X140233714Y-121091268D01*
X140233714Y-121091268D02*
X140271809Y-121072220D01*
X140271809Y-121072220D02*
X140309904Y-121072220D01*
X140595619Y-121319840D02*
X140557523Y-121338887D01*
X140557523Y-121338887D02*
X140481333Y-121338887D01*
X140481333Y-121338887D02*
X140443238Y-121319840D01*
X140443238Y-121319840D02*
X140424190Y-121281744D01*
X140424190Y-121281744D02*
X140424190Y-121129363D01*
X140424190Y-121129363D02*
X140443238Y-121091268D01*
X140443238Y-121091268D02*
X140481333Y-121072220D01*
X140481333Y-121072220D02*
X140557523Y-121072220D01*
X140557523Y-121072220D02*
X140595619Y-121091268D01*
X140595619Y-121091268D02*
X140614666Y-121129363D01*
X140614666Y-121129363D02*
X140614666Y-121167459D01*
X140614666Y-121167459D02*
X140424190Y-121205554D01*
X140747999Y-121072220D02*
X140824190Y-121338887D01*
X140824190Y-121338887D02*
X140900380Y-121148411D01*
X140900380Y-121148411D02*
X140976571Y-121338887D01*
X140976571Y-121338887D02*
X141052761Y-121072220D01*
X141109905Y-121376982D02*
X141414666Y-121376982D01*
X141452762Y-120938887D02*
X141681333Y-120938887D01*
X141567047Y-121338887D02*
X141567047Y-120938887D01*
X141967048Y-121319840D02*
X141928952Y-121338887D01*
X141928952Y-121338887D02*
X141852762Y-121338887D01*
X141852762Y-121338887D02*
X141814667Y-121319840D01*
X141814667Y-121319840D02*
X141795619Y-121281744D01*
X141795619Y-121281744D02*
X141795619Y-121129363D01*
X141795619Y-121129363D02*
X141814667Y-121091268D01*
X141814667Y-121091268D02*
X141852762Y-121072220D01*
X141852762Y-121072220D02*
X141928952Y-121072220D01*
X141928952Y-121072220D02*
X141967048Y-121091268D01*
X141967048Y-121091268D02*
X141986095Y-121129363D01*
X141986095Y-121129363D02*
X141986095Y-121167459D01*
X141986095Y-121167459D02*
X141795619Y-121205554D01*
X142157524Y-121338887D02*
X142157524Y-121072220D01*
X142157524Y-121148411D02*
X142176571Y-121110316D01*
X142176571Y-121110316D02*
X142195619Y-121091268D01*
X142195619Y-121091268D02*
X142233714Y-121072220D01*
X142233714Y-121072220D02*
X142271809Y-121072220D01*
X142405143Y-121338887D02*
X142405143Y-121072220D01*
X142405143Y-121110316D02*
X142424190Y-121091268D01*
X142424190Y-121091268D02*
X142462285Y-121072220D01*
X142462285Y-121072220D02*
X142519428Y-121072220D01*
X142519428Y-121072220D02*
X142557524Y-121091268D01*
X142557524Y-121091268D02*
X142576571Y-121129363D01*
X142576571Y-121129363D02*
X142576571Y-121338887D01*
X142576571Y-121129363D02*
X142595619Y-121091268D01*
X142595619Y-121091268D02*
X142633714Y-121072220D01*
X142633714Y-121072220D02*
X142690857Y-121072220D01*
X142690857Y-121072220D02*
X142728952Y-121091268D01*
X142728952Y-121091268D02*
X142748000Y-121129363D01*
X142748000Y-121129363D02*
X142748000Y-121338887D01*
X142938476Y-121338887D02*
X142938476Y-121072220D01*
X142938476Y-120938887D02*
X142919428Y-120957935D01*
X142919428Y-120957935D02*
X142938476Y-120976982D01*
X142938476Y-120976982D02*
X142957523Y-120957935D01*
X142957523Y-120957935D02*
X142938476Y-120938887D01*
X142938476Y-120938887D02*
X142938476Y-120976982D01*
X143128952Y-121072220D02*
X143128952Y-121338887D01*
X143128952Y-121110316D02*
X143147999Y-121091268D01*
X143147999Y-121091268D02*
X143186094Y-121072220D01*
X143186094Y-121072220D02*
X143243237Y-121072220D01*
X143243237Y-121072220D02*
X143281333Y-121091268D01*
X143281333Y-121091268D02*
X143300380Y-121129363D01*
X143300380Y-121129363D02*
X143300380Y-121338887D01*
X143662285Y-121338887D02*
X143662285Y-121129363D01*
X143662285Y-121129363D02*
X143643238Y-121091268D01*
X143643238Y-121091268D02*
X143605142Y-121072220D01*
X143605142Y-121072220D02*
X143528952Y-121072220D01*
X143528952Y-121072220D02*
X143490857Y-121091268D01*
X143662285Y-121319840D02*
X143624190Y-121338887D01*
X143624190Y-121338887D02*
X143528952Y-121338887D01*
X143528952Y-121338887D02*
X143490857Y-121319840D01*
X143490857Y-121319840D02*
X143471809Y-121281744D01*
X143471809Y-121281744D02*
X143471809Y-121243649D01*
X143471809Y-121243649D02*
X143490857Y-121205554D01*
X143490857Y-121205554D02*
X143528952Y-121186506D01*
X143528952Y-121186506D02*
X143624190Y-121186506D01*
X143624190Y-121186506D02*
X143662285Y-121167459D01*
X143909904Y-121338887D02*
X143871809Y-121319840D01*
X143871809Y-121319840D02*
X143852762Y-121281744D01*
X143852762Y-121281744D02*
X143852762Y-120938887D01*
X143967048Y-121376982D02*
X144271809Y-121376982D01*
X144443238Y-120938887D02*
X144481333Y-120938887D01*
X144481333Y-120938887D02*
X144519429Y-120957935D01*
X144519429Y-120957935D02*
X144538476Y-120976982D01*
X144538476Y-120976982D02*
X144557524Y-121015078D01*
X144557524Y-121015078D02*
X144576571Y-121091268D01*
X144576571Y-121091268D02*
X144576571Y-121186506D01*
X144576571Y-121186506D02*
X144557524Y-121262697D01*
X144557524Y-121262697D02*
X144538476Y-121300792D01*
X144538476Y-121300792D02*
X144519429Y-121319840D01*
X144519429Y-121319840D02*
X144481333Y-121338887D01*
X144481333Y-121338887D02*
X144443238Y-121338887D01*
X144443238Y-121338887D02*
X144405143Y-121319840D01*
X144405143Y-121319840D02*
X144386095Y-121300792D01*
X144386095Y-121300792D02*
X144367048Y-121262697D01*
X144367048Y-121262697D02*
X144348000Y-121186506D01*
X144348000Y-121186506D02*
X144348000Y-121091268D01*
X144348000Y-121091268D02*
X144367048Y-121015078D01*
X144367048Y-121015078D02*
X144386095Y-120976982D01*
X144386095Y-120976982D02*
X144405143Y-120957935D01*
X144405143Y-120957935D02*
X144443238Y-120938887D01*
X144957523Y-121338887D02*
X144728952Y-121338887D01*
X144843238Y-121338887D02*
X144843238Y-120938887D01*
X144843238Y-120938887D02*
X144805142Y-120996030D01*
X144805142Y-120996030D02*
X144767047Y-121034125D01*
X144767047Y-121034125D02*
X144728952Y-121053173D01*
X145090856Y-121338887D02*
X145300380Y-121072220D01*
X145090856Y-121072220D02*
X145300380Y-121338887D01*
X145528952Y-120938887D02*
X145567047Y-120938887D01*
X145567047Y-120938887D02*
X145605143Y-120957935D01*
X145605143Y-120957935D02*
X145624190Y-120976982D01*
X145624190Y-120976982D02*
X145643238Y-121015078D01*
X145643238Y-121015078D02*
X145662285Y-121091268D01*
X145662285Y-121091268D02*
X145662285Y-121186506D01*
X145662285Y-121186506D02*
X145643238Y-121262697D01*
X145643238Y-121262697D02*
X145624190Y-121300792D01*
X145624190Y-121300792D02*
X145605143Y-121319840D01*
X145605143Y-121319840D02*
X145567047Y-121338887D01*
X145567047Y-121338887D02*
X145528952Y-121338887D01*
X145528952Y-121338887D02*
X145490857Y-121319840D01*
X145490857Y-121319840D02*
X145471809Y-121300792D01*
X145471809Y-121300792D02*
X145452762Y-121262697D01*
X145452762Y-121262697D02*
X145433714Y-121186506D01*
X145433714Y-121186506D02*
X145433714Y-121091268D01*
X145433714Y-121091268D02*
X145452762Y-121015078D01*
X145452762Y-121015078D02*
X145471809Y-120976982D01*
X145471809Y-120976982D02*
X145490857Y-120957935D01*
X145490857Y-120957935D02*
X145528952Y-120938887D01*
X145814666Y-120976982D02*
X145833714Y-120957935D01*
X145833714Y-120957935D02*
X145871809Y-120938887D01*
X145871809Y-120938887D02*
X145967047Y-120938887D01*
X145967047Y-120938887D02*
X146005142Y-120957935D01*
X146005142Y-120957935D02*
X146024190Y-120976982D01*
X146024190Y-120976982D02*
X146043237Y-121015078D01*
X146043237Y-121015078D02*
X146043237Y-121053173D01*
X146043237Y-121053173D02*
X146024190Y-121110316D01*
X146024190Y-121110316D02*
X145795618Y-121338887D01*
X145795618Y-121338887D02*
X146043237Y-121338887D01*
D10*
X138600666Y-98016109D02*
X138434000Y-97778014D01*
X138314952Y-98016109D02*
X138314952Y-97516109D01*
X138314952Y-97516109D02*
X138505428Y-97516109D01*
X138505428Y-97516109D02*
X138553047Y-97539919D01*
X138553047Y-97539919D02*
X138576857Y-97563728D01*
X138576857Y-97563728D02*
X138600666Y-97611347D01*
X138600666Y-97611347D02*
X138600666Y-97682776D01*
X138600666Y-97682776D02*
X138576857Y-97730395D01*
X138576857Y-97730395D02*
X138553047Y-97754204D01*
X138553047Y-97754204D02*
X138505428Y-97778014D01*
X138505428Y-97778014D02*
X138314952Y-97778014D01*
X138791143Y-97563728D02*
X138814952Y-97539919D01*
X138814952Y-97539919D02*
X138862571Y-97516109D01*
X138862571Y-97516109D02*
X138981619Y-97516109D01*
X138981619Y-97516109D02*
X139029238Y-97539919D01*
X139029238Y-97539919D02*
X139053047Y-97563728D01*
X139053047Y-97563728D02*
X139076857Y-97611347D01*
X139076857Y-97611347D02*
X139076857Y-97658966D01*
X139076857Y-97658966D02*
X139053047Y-97730395D01*
X139053047Y-97730395D02*
X138767333Y-98016109D01*
X138767333Y-98016109D02*
X139076857Y-98016109D01*
D11*
X141848000Y-100708033D02*
X142281333Y-100708033D01*
X142281333Y-100708033D02*
X142048000Y-100974700D01*
X142048000Y-100974700D02*
X142148000Y-100974700D01*
X142148000Y-100974700D02*
X142214666Y-101008033D01*
X142214666Y-101008033D02*
X142248000Y-101041366D01*
X142248000Y-101041366D02*
X142281333Y-101108033D01*
X142281333Y-101108033D02*
X142281333Y-101274700D01*
X142281333Y-101274700D02*
X142248000Y-101341366D01*
X142248000Y-101341366D02*
X142214666Y-101374700D01*
X142214666Y-101374700D02*
X142148000Y-101408033D01*
X142148000Y-101408033D02*
X141948000Y-101408033D01*
X141948000Y-101408033D02*
X141881333Y-101374700D01*
X141881333Y-101374700D02*
X141848000Y-101341366D01*
X142514667Y-100708033D02*
X142948000Y-100708033D01*
X142948000Y-100708033D02*
X142714667Y-100974700D01*
X142714667Y-100974700D02*
X142814667Y-100974700D01*
X142814667Y-100974700D02*
X142881333Y-101008033D01*
X142881333Y-101008033D02*
X142914667Y-101041366D01*
X142914667Y-101041366D02*
X142948000Y-101108033D01*
X142948000Y-101108033D02*
X142948000Y-101274700D01*
X142948000Y-101274700D02*
X142914667Y-101341366D01*
X142914667Y-101341366D02*
X142881333Y-101374700D01*
X142881333Y-101374700D02*
X142814667Y-101408033D01*
X142814667Y-101408033D02*
X142614667Y-101408033D01*
X142614667Y-101408033D02*
X142548000Y-101374700D01*
X142548000Y-101374700D02*
X142514667Y-101341366D01*
X143381334Y-100708033D02*
X143448000Y-100708033D01*
X143448000Y-100708033D02*
X143514667Y-100741366D01*
X143514667Y-100741366D02*
X143548000Y-100774700D01*
X143548000Y-100774700D02*
X143581334Y-100841366D01*
X143581334Y-100841366D02*
X143614667Y-100974700D01*
X143614667Y-100974700D02*
X143614667Y-101141366D01*
X143614667Y-101141366D02*
X143581334Y-101274700D01*
X143581334Y-101274700D02*
X143548000Y-101341366D01*
X143548000Y-101341366D02*
X143514667Y-101374700D01*
X143514667Y-101374700D02*
X143448000Y-101408033D01*
X143448000Y-101408033D02*
X143381334Y-101408033D01*
X143381334Y-101408033D02*
X143314667Y-101374700D01*
X143314667Y-101374700D02*
X143281334Y-101341366D01*
X143281334Y-101341366D02*
X143248000Y-101274700D01*
X143248000Y-101274700D02*
X143214667Y-101141366D01*
X143214667Y-101141366D02*
X143214667Y-100974700D01*
X143214667Y-100974700D02*
X143248000Y-100841366D01*
X143248000Y-100841366D02*
X143281334Y-100774700D01*
X143281334Y-100774700D02*
X143314667Y-100741366D01*
X143314667Y-100741366D02*
X143381334Y-100708033D01*
X141361333Y-114616033D02*
X141128000Y-114282700D01*
X140961333Y-114616033D02*
X140961333Y-113916033D01*
X140961333Y-113916033D02*
X141228000Y-113916033D01*
X141228000Y-113916033D02*
X141294667Y-113949366D01*
X141294667Y-113949366D02*
X141328000Y-113982700D01*
X141328000Y-113982700D02*
X141361333Y-114049366D01*
X141361333Y-114049366D02*
X141361333Y-114149366D01*
X141361333Y-114149366D02*
X141328000Y-114216033D01*
X141328000Y-114216033D02*
X141294667Y-114249366D01*
X141294667Y-114249366D02*
X141228000Y-114282700D01*
X141228000Y-114282700D02*
X140961333Y-114282700D01*
X141594667Y-113916033D02*
X142028000Y-113916033D01*
X142028000Y-113916033D02*
X141794667Y-114182700D01*
X141794667Y-114182700D02*
X141894667Y-114182700D01*
X141894667Y-114182700D02*
X141961333Y-114216033D01*
X141961333Y-114216033D02*
X141994667Y-114249366D01*
X141994667Y-114249366D02*
X142028000Y-114316033D01*
X142028000Y-114316033D02*
X142028000Y-114482700D01*
X142028000Y-114482700D02*
X141994667Y-114549366D01*
X141994667Y-114549366D02*
X141961333Y-114582700D01*
X141961333Y-114582700D02*
X141894667Y-114616033D01*
X141894667Y-114616033D02*
X141694667Y-114616033D01*
X141694667Y-114616033D02*
X141628000Y-114582700D01*
X141628000Y-114582700D02*
X141594667Y-114549366D01*
X142248000Y-117472033D02*
X141914666Y-117472033D01*
X141914666Y-117472033D02*
X141881333Y-117805366D01*
X141881333Y-117805366D02*
X141914666Y-117772033D01*
X141914666Y-117772033D02*
X141981333Y-117738700D01*
X141981333Y-117738700D02*
X142148000Y-117738700D01*
X142148000Y-117738700D02*
X142214666Y-117772033D01*
X142214666Y-117772033D02*
X142248000Y-117805366D01*
X142248000Y-117805366D02*
X142281333Y-117872033D01*
X142281333Y-117872033D02*
X142281333Y-118038700D01*
X142281333Y-118038700D02*
X142248000Y-118105366D01*
X142248000Y-118105366D02*
X142214666Y-118138700D01*
X142214666Y-118138700D02*
X142148000Y-118172033D01*
X142148000Y-118172033D02*
X141981333Y-118172033D01*
X141981333Y-118172033D02*
X141914666Y-118138700D01*
X141914666Y-118138700D02*
X141881333Y-118105366D01*
X142881333Y-117472033D02*
X142748000Y-117472033D01*
X142748000Y-117472033D02*
X142681333Y-117505366D01*
X142681333Y-117505366D02*
X142648000Y-117538700D01*
X142648000Y-117538700D02*
X142581333Y-117638700D01*
X142581333Y-117638700D02*
X142548000Y-117772033D01*
X142548000Y-117772033D02*
X142548000Y-118038700D01*
X142548000Y-118038700D02*
X142581333Y-118105366D01*
X142581333Y-118105366D02*
X142614667Y-118138700D01*
X142614667Y-118138700D02*
X142681333Y-118172033D01*
X142681333Y-118172033D02*
X142814667Y-118172033D01*
X142814667Y-118172033D02*
X142881333Y-118138700D01*
X142881333Y-118138700D02*
X142914667Y-118105366D01*
X142914667Y-118105366D02*
X142948000Y-118038700D01*
X142948000Y-118038700D02*
X142948000Y-117872033D01*
X142948000Y-117872033D02*
X142914667Y-117805366D01*
X142914667Y-117805366D02*
X142881333Y-117772033D01*
X142881333Y-117772033D02*
X142814667Y-117738700D01*
X142814667Y-117738700D02*
X142681333Y-117738700D01*
X142681333Y-117738700D02*
X142614667Y-117772033D01*
X142614667Y-117772033D02*
X142581333Y-117805366D01*
X142581333Y-117805366D02*
X142548000Y-117872033D01*
X143381334Y-117472033D02*
X143448000Y-117472033D01*
X143448000Y-117472033D02*
X143514667Y-117505366D01*
X143514667Y-117505366D02*
X143548000Y-117538700D01*
X143548000Y-117538700D02*
X143581334Y-117605366D01*
X143581334Y-117605366D02*
X143614667Y-117738700D01*
X143614667Y-117738700D02*
X143614667Y-117905366D01*
X143614667Y-117905366D02*
X143581334Y-118038700D01*
X143581334Y-118038700D02*
X143548000Y-118105366D01*
X143548000Y-118105366D02*
X143514667Y-118138700D01*
X143514667Y-118138700D02*
X143448000Y-118172033D01*
X143448000Y-118172033D02*
X143381334Y-118172033D01*
X143381334Y-118172033D02*
X143314667Y-118138700D01*
X143314667Y-118138700D02*
X143281334Y-118105366D01*
X143281334Y-118105366D02*
X143248000Y-118038700D01*
X143248000Y-118038700D02*
X143214667Y-117905366D01*
X143214667Y-117905366D02*
X143214667Y-117738700D01*
X143214667Y-117738700D02*
X143248000Y-117605366D01*
X143248000Y-117605366D02*
X143281334Y-117538700D01*
X143281334Y-117538700D02*
X143314667Y-117505366D01*
X143314667Y-117505366D02*
X143381334Y-117472033D01*
X123210666Y-97406033D02*
X123210666Y-97906033D01*
X123210666Y-97906033D02*
X123177333Y-98006033D01*
X123177333Y-98006033D02*
X123110666Y-98072700D01*
X123110666Y-98072700D02*
X123010666Y-98106033D01*
X123010666Y-98106033D02*
X122944000Y-98106033D01*
X123843999Y-97406033D02*
X123710666Y-97406033D01*
X123710666Y-97406033D02*
X123643999Y-97439366D01*
X123643999Y-97439366D02*
X123610666Y-97472700D01*
X123610666Y-97472700D02*
X123543999Y-97572700D01*
X123543999Y-97572700D02*
X123510666Y-97706033D01*
X123510666Y-97706033D02*
X123510666Y-97972700D01*
X123510666Y-97972700D02*
X123543999Y-98039366D01*
X123543999Y-98039366D02*
X123577333Y-98072700D01*
X123577333Y-98072700D02*
X123643999Y-98106033D01*
X123643999Y-98106033D02*
X123777333Y-98106033D01*
X123777333Y-98106033D02*
X123843999Y-98072700D01*
X123843999Y-98072700D02*
X123877333Y-98039366D01*
X123877333Y-98039366D02*
X123910666Y-97972700D01*
X123910666Y-97972700D02*
X123910666Y-97806033D01*
X123910666Y-97806033D02*
X123877333Y-97739366D01*
X123877333Y-97739366D02*
X123843999Y-97706033D01*
X123843999Y-97706033D02*
X123777333Y-97672700D01*
X123777333Y-97672700D02*
X123643999Y-97672700D01*
X123643999Y-97672700D02*
X123577333Y-97706033D01*
X123577333Y-97706033D02*
X123543999Y-97739366D01*
X123543999Y-97739366D02*
X123510666Y-97806033D01*
D13*
X123519810Y-108423244D02*
X123591238Y-108447054D01*
X123591238Y-108447054D02*
X123615048Y-108470863D01*
X123615048Y-108470863D02*
X123638857Y-108518482D01*
X123638857Y-108518482D02*
X123638857Y-108589911D01*
X123638857Y-108589911D02*
X123615048Y-108637530D01*
X123615048Y-108637530D02*
X123591238Y-108661340D01*
X123591238Y-108661340D02*
X123543619Y-108685149D01*
X123543619Y-108685149D02*
X123353143Y-108685149D01*
X123353143Y-108685149D02*
X123353143Y-108185149D01*
X123353143Y-108185149D02*
X123519810Y-108185149D01*
X123519810Y-108185149D02*
X123567429Y-108208959D01*
X123567429Y-108208959D02*
X123591238Y-108232768D01*
X123591238Y-108232768D02*
X123615048Y-108280387D01*
X123615048Y-108280387D02*
X123615048Y-108328006D01*
X123615048Y-108328006D02*
X123591238Y-108375625D01*
X123591238Y-108375625D02*
X123567429Y-108399435D01*
X123567429Y-108399435D02*
X123519810Y-108423244D01*
X123519810Y-108423244D02*
X123353143Y-108423244D01*
X124067429Y-108685149D02*
X124067429Y-108423244D01*
X124067429Y-108423244D02*
X124043619Y-108375625D01*
X124043619Y-108375625D02*
X123996000Y-108351816D01*
X123996000Y-108351816D02*
X123900762Y-108351816D01*
X123900762Y-108351816D02*
X123853143Y-108375625D01*
X124067429Y-108661340D02*
X124019810Y-108685149D01*
X124019810Y-108685149D02*
X123900762Y-108685149D01*
X123900762Y-108685149D02*
X123853143Y-108661340D01*
X123853143Y-108661340D02*
X123829334Y-108613720D01*
X123829334Y-108613720D02*
X123829334Y-108566101D01*
X123829334Y-108566101D02*
X123853143Y-108518482D01*
X123853143Y-108518482D02*
X123900762Y-108494673D01*
X123900762Y-108494673D02*
X124019810Y-108494673D01*
X124019810Y-108494673D02*
X124067429Y-108470863D01*
X124305524Y-108685149D02*
X124305524Y-108351816D01*
X124305524Y-108447054D02*
X124329334Y-108399435D01*
X124329334Y-108399435D02*
X124353143Y-108375625D01*
X124353143Y-108375625D02*
X124400762Y-108351816D01*
X124400762Y-108351816D02*
X124448381Y-108351816D01*
X124615048Y-108685149D02*
X124615048Y-108351816D01*
X124615048Y-108447054D02*
X124638858Y-108399435D01*
X124638858Y-108399435D02*
X124662667Y-108375625D01*
X124662667Y-108375625D02*
X124710286Y-108351816D01*
X124710286Y-108351816D02*
X124757905Y-108351816D01*
X125115048Y-108661340D02*
X125067429Y-108685149D01*
X125067429Y-108685149D02*
X124972191Y-108685149D01*
X124972191Y-108685149D02*
X124924572Y-108661340D01*
X124924572Y-108661340D02*
X124900763Y-108613720D01*
X124900763Y-108613720D02*
X124900763Y-108423244D01*
X124900763Y-108423244D02*
X124924572Y-108375625D01*
X124924572Y-108375625D02*
X124972191Y-108351816D01*
X124972191Y-108351816D02*
X125067429Y-108351816D01*
X125067429Y-108351816D02*
X125115048Y-108375625D01*
X125115048Y-108375625D02*
X125138858Y-108423244D01*
X125138858Y-108423244D02*
X125138858Y-108470863D01*
X125138858Y-108470863D02*
X124900763Y-108518482D01*
X125424572Y-108685149D02*
X125376953Y-108661340D01*
X125376953Y-108661340D02*
X125353143Y-108613720D01*
X125353143Y-108613720D02*
X125353143Y-108185149D01*
X125496001Y-108732768D02*
X125876953Y-108732768D01*
X126138857Y-108185149D02*
X126138857Y-108542292D01*
X126138857Y-108542292D02*
X126115048Y-108613720D01*
X126115048Y-108613720D02*
X126067429Y-108661340D01*
X126067429Y-108661340D02*
X125996000Y-108685149D01*
X125996000Y-108685149D02*
X125948381Y-108685149D01*
X126591238Y-108685149D02*
X126591238Y-108423244D01*
X126591238Y-108423244D02*
X126567428Y-108375625D01*
X126567428Y-108375625D02*
X126519809Y-108351816D01*
X126519809Y-108351816D02*
X126424571Y-108351816D01*
X126424571Y-108351816D02*
X126376952Y-108375625D01*
X126591238Y-108661340D02*
X126543619Y-108685149D01*
X126543619Y-108685149D02*
X126424571Y-108685149D01*
X126424571Y-108685149D02*
X126376952Y-108661340D01*
X126376952Y-108661340D02*
X126353143Y-108613720D01*
X126353143Y-108613720D02*
X126353143Y-108566101D01*
X126353143Y-108566101D02*
X126376952Y-108518482D01*
X126376952Y-108518482D02*
X126424571Y-108494673D01*
X126424571Y-108494673D02*
X126543619Y-108494673D01*
X126543619Y-108494673D02*
X126591238Y-108470863D01*
X127043619Y-108661340D02*
X126996000Y-108685149D01*
X126996000Y-108685149D02*
X126900762Y-108685149D01*
X126900762Y-108685149D02*
X126853143Y-108661340D01*
X126853143Y-108661340D02*
X126829333Y-108637530D01*
X126829333Y-108637530D02*
X126805524Y-108589911D01*
X126805524Y-108589911D02*
X126805524Y-108447054D01*
X126805524Y-108447054D02*
X126829333Y-108399435D01*
X126829333Y-108399435D02*
X126853143Y-108375625D01*
X126853143Y-108375625D02*
X126900762Y-108351816D01*
X126900762Y-108351816D02*
X126996000Y-108351816D01*
X126996000Y-108351816D02*
X127043619Y-108375625D01*
X127257904Y-108685149D02*
X127257904Y-108185149D01*
X127305523Y-108494673D02*
X127448380Y-108685149D01*
X127448380Y-108351816D02*
X127257904Y-108542292D01*
X127543619Y-108732768D02*
X127924571Y-108732768D01*
X128019809Y-108661340D02*
X128067428Y-108685149D01*
X128067428Y-108685149D02*
X128162666Y-108685149D01*
X128162666Y-108685149D02*
X128210285Y-108661340D01*
X128210285Y-108661340D02*
X128234094Y-108613720D01*
X128234094Y-108613720D02*
X128234094Y-108589911D01*
X128234094Y-108589911D02*
X128210285Y-108542292D01*
X128210285Y-108542292D02*
X128162666Y-108518482D01*
X128162666Y-108518482D02*
X128091237Y-108518482D01*
X128091237Y-108518482D02*
X128043618Y-108494673D01*
X128043618Y-108494673D02*
X128019809Y-108447054D01*
X128019809Y-108447054D02*
X128019809Y-108423244D01*
X128019809Y-108423244D02*
X128043618Y-108375625D01*
X128043618Y-108375625D02*
X128091237Y-108351816D01*
X128091237Y-108351816D02*
X128162666Y-108351816D01*
X128162666Y-108351816D02*
X128210285Y-108375625D01*
X128400761Y-108351816D02*
X128495999Y-108685149D01*
X128495999Y-108685149D02*
X128591237Y-108447054D01*
X128591237Y-108447054D02*
X128686475Y-108685149D01*
X128686475Y-108685149D02*
X128781713Y-108351816D01*
X128972190Y-108685149D02*
X128972190Y-108351816D01*
X128972190Y-108185149D02*
X128948381Y-108208959D01*
X128948381Y-108208959D02*
X128972190Y-108232768D01*
X128972190Y-108232768D02*
X128996000Y-108208959D01*
X128996000Y-108208959D02*
X128972190Y-108185149D01*
X128972190Y-108185149D02*
X128972190Y-108232768D01*
X129138857Y-108351816D02*
X129329333Y-108351816D01*
X129210285Y-108185149D02*
X129210285Y-108613720D01*
X129210285Y-108613720D02*
X129234095Y-108661340D01*
X129234095Y-108661340D02*
X129281714Y-108685149D01*
X129281714Y-108685149D02*
X129329333Y-108685149D01*
X129710285Y-108661340D02*
X129662666Y-108685149D01*
X129662666Y-108685149D02*
X129567428Y-108685149D01*
X129567428Y-108685149D02*
X129519809Y-108661340D01*
X129519809Y-108661340D02*
X129495999Y-108637530D01*
X129495999Y-108637530D02*
X129472190Y-108589911D01*
X129472190Y-108589911D02*
X129472190Y-108447054D01*
X129472190Y-108447054D02*
X129495999Y-108399435D01*
X129495999Y-108399435D02*
X129519809Y-108375625D01*
X129519809Y-108375625D02*
X129567428Y-108351816D01*
X129567428Y-108351816D02*
X129662666Y-108351816D01*
X129662666Y-108351816D02*
X129710285Y-108375625D01*
X129924570Y-108685149D02*
X129924570Y-108185149D01*
X130138856Y-108685149D02*
X130138856Y-108423244D01*
X130138856Y-108423244D02*
X130115046Y-108375625D01*
X130115046Y-108375625D02*
X130067427Y-108351816D01*
X130067427Y-108351816D02*
X129995999Y-108351816D01*
X129995999Y-108351816D02*
X129948380Y-108375625D01*
X129948380Y-108375625D02*
X129924570Y-108399435D01*
D11*
X123418666Y-87754033D02*
X123418666Y-88320700D01*
X123418666Y-88320700D02*
X123452000Y-88387366D01*
X123452000Y-88387366D02*
X123485333Y-88420700D01*
X123485333Y-88420700D02*
X123552000Y-88454033D01*
X123552000Y-88454033D02*
X123685333Y-88454033D01*
X123685333Y-88454033D02*
X123752000Y-88420700D01*
X123752000Y-88420700D02*
X123785333Y-88387366D01*
X123785333Y-88387366D02*
X123818666Y-88320700D01*
X123818666Y-88320700D02*
X123818666Y-87754033D01*
X124118666Y-87820700D02*
X124151999Y-87787366D01*
X124151999Y-87787366D02*
X124218666Y-87754033D01*
X124218666Y-87754033D02*
X124385333Y-87754033D01*
X124385333Y-87754033D02*
X124451999Y-87787366D01*
X124451999Y-87787366D02*
X124485333Y-87820700D01*
X124485333Y-87820700D02*
X124518666Y-87887366D01*
X124518666Y-87887366D02*
X124518666Y-87954033D01*
X124518666Y-87954033D02*
X124485333Y-88054033D01*
X124485333Y-88054033D02*
X124085333Y-88454033D01*
X124085333Y-88454033D02*
X124518666Y-88454033D01*
X124753333Y-94652033D02*
X124419999Y-94652033D01*
X124419999Y-94652033D02*
X124419999Y-93952033D01*
X124986666Y-94652033D02*
X124986666Y-93952033D01*
X124986666Y-93952033D02*
X125220000Y-94452033D01*
X125220000Y-94452033D02*
X125453333Y-93952033D01*
X125453333Y-93952033D02*
X125453333Y-94652033D01*
X125720000Y-93952033D02*
X126153333Y-93952033D01*
X126153333Y-93952033D02*
X125920000Y-94218700D01*
X125920000Y-94218700D02*
X126020000Y-94218700D01*
X126020000Y-94218700D02*
X126086666Y-94252033D01*
X126086666Y-94252033D02*
X126120000Y-94285366D01*
X126120000Y-94285366D02*
X126153333Y-94352033D01*
X126153333Y-94352033D02*
X126153333Y-94518700D01*
X126153333Y-94518700D02*
X126120000Y-94585366D01*
X126120000Y-94585366D02*
X126086666Y-94618700D01*
X126086666Y-94618700D02*
X126020000Y-94652033D01*
X126020000Y-94652033D02*
X125820000Y-94652033D01*
X125820000Y-94652033D02*
X125753333Y-94618700D01*
X125753333Y-94618700D02*
X125720000Y-94585366D01*
X126820000Y-94652033D02*
X126420000Y-94652033D01*
X126620000Y-94652033D02*
X126620000Y-93952033D01*
X126620000Y-93952033D02*
X126553333Y-94052033D01*
X126553333Y-94052033D02*
X126486667Y-94118700D01*
X126486667Y-94118700D02*
X126420000Y-94152033D01*
X127053334Y-93952033D02*
X127520000Y-93952033D01*
X127520000Y-93952033D02*
X127220000Y-94652033D01*
X127620001Y-94718700D02*
X128153334Y-94718700D01*
X128220000Y-93952033D02*
X128620000Y-93952033D01*
X128420000Y-94652033D02*
X128420000Y-93952033D01*
X128986667Y-93952033D02*
X129120000Y-93952033D01*
X129120000Y-93952033D02*
X129186667Y-93985366D01*
X129186667Y-93985366D02*
X129253333Y-94052033D01*
X129253333Y-94052033D02*
X129286667Y-94185366D01*
X129286667Y-94185366D02*
X129286667Y-94418700D01*
X129286667Y-94418700D02*
X129253333Y-94552033D01*
X129253333Y-94552033D02*
X129186667Y-94618700D01*
X129186667Y-94618700D02*
X129120000Y-94652033D01*
X129120000Y-94652033D02*
X128986667Y-94652033D01*
X128986667Y-94652033D02*
X128920000Y-94618700D01*
X128920000Y-94618700D02*
X128853333Y-94552033D01*
X128853333Y-94552033D02*
X128820000Y-94418700D01*
X128820000Y-94418700D02*
X128820000Y-94185366D01*
X128820000Y-94185366D02*
X128853333Y-94052033D01*
X128853333Y-94052033D02*
X128920000Y-93985366D01*
X128920000Y-93985366D02*
X128986667Y-93952033D01*
X129586666Y-94385366D02*
X130120000Y-94385366D01*
X130420000Y-94018700D02*
X130453333Y-93985366D01*
X130453333Y-93985366D02*
X130520000Y-93952033D01*
X130520000Y-93952033D02*
X130686667Y-93952033D01*
X130686667Y-93952033D02*
X130753333Y-93985366D01*
X130753333Y-93985366D02*
X130786667Y-94018700D01*
X130786667Y-94018700D02*
X130820000Y-94085366D01*
X130820000Y-94085366D02*
X130820000Y-94152033D01*
X130820000Y-94152033D02*
X130786667Y-94252033D01*
X130786667Y-94252033D02*
X130386667Y-94652033D01*
X130386667Y-94652033D02*
X130820000Y-94652033D01*
X131086667Y-94018700D02*
X131120000Y-93985366D01*
X131120000Y-93985366D02*
X131186667Y-93952033D01*
X131186667Y-93952033D02*
X131353334Y-93952033D01*
X131353334Y-93952033D02*
X131420000Y-93985366D01*
X131420000Y-93985366D02*
X131453334Y-94018700D01*
X131453334Y-94018700D02*
X131486667Y-94085366D01*
X131486667Y-94085366D02*
X131486667Y-94152033D01*
X131486667Y-94152033D02*
X131453334Y-94252033D01*
X131453334Y-94252033D02*
X131053334Y-94652033D01*
X131053334Y-94652033D02*
X131486667Y-94652033D01*
X131920001Y-93952033D02*
X131986667Y-93952033D01*
X131986667Y-93952033D02*
X132053334Y-93985366D01*
X132053334Y-93985366D02*
X132086667Y-94018700D01*
X132086667Y-94018700D02*
X132120001Y-94085366D01*
X132120001Y-94085366D02*
X132153334Y-94218700D01*
X132153334Y-94218700D02*
X132153334Y-94385366D01*
X132153334Y-94385366D02*
X132120001Y-94518700D01*
X132120001Y-94518700D02*
X132086667Y-94585366D01*
X132086667Y-94585366D02*
X132053334Y-94618700D01*
X132053334Y-94618700D02*
X131986667Y-94652033D01*
X131986667Y-94652033D02*
X131920001Y-94652033D01*
X131920001Y-94652033D02*
X131853334Y-94618700D01*
X131853334Y-94618700D02*
X131820001Y-94585366D01*
X131820001Y-94585366D02*
X131786667Y-94518700D01*
X131786667Y-94518700D02*
X131753334Y-94385366D01*
X131753334Y-94385366D02*
X131753334Y-94218700D01*
X131753334Y-94218700D02*
X131786667Y-94085366D01*
X131786667Y-94085366D02*
X131820001Y-94018700D01*
X131820001Y-94018700D02*
X131853334Y-93985366D01*
X131853334Y-93985366D02*
X131920001Y-93952033D01*
X141869333Y-110044033D02*
X141636000Y-109710700D01*
X141469333Y-110044033D02*
X141469333Y-109344033D01*
X141469333Y-109344033D02*
X141736000Y-109344033D01*
X141736000Y-109344033D02*
X141802667Y-109377366D01*
X141802667Y-109377366D02*
X141836000Y-109410700D01*
X141836000Y-109410700D02*
X141869333Y-109477366D01*
X141869333Y-109477366D02*
X141869333Y-109577366D01*
X141869333Y-109577366D02*
X141836000Y-109644033D01*
X141836000Y-109644033D02*
X141802667Y-109677366D01*
X141802667Y-109677366D02*
X141736000Y-109710700D01*
X141736000Y-109710700D02*
X141469333Y-109710700D01*
X142536000Y-110044033D02*
X142136000Y-110044033D01*
X142336000Y-110044033D02*
X142336000Y-109344033D01*
X142336000Y-109344033D02*
X142269333Y-109444033D01*
X142269333Y-109444033D02*
X142202667Y-109510700D01*
X142202667Y-109510700D02*
X142136000Y-109544033D01*
X142102000Y-112900033D02*
X142535333Y-112900033D01*
X142535333Y-112900033D02*
X142302000Y-113166700D01*
X142302000Y-113166700D02*
X142402000Y-113166700D01*
X142402000Y-113166700D02*
X142468666Y-113200033D01*
X142468666Y-113200033D02*
X142502000Y-113233366D01*
X142502000Y-113233366D02*
X142535333Y-113300033D01*
X142535333Y-113300033D02*
X142535333Y-113466700D01*
X142535333Y-113466700D02*
X142502000Y-113533366D01*
X142502000Y-113533366D02*
X142468666Y-113566700D01*
X142468666Y-113566700D02*
X142402000Y-113600033D01*
X142402000Y-113600033D02*
X142202000Y-113600033D01*
X142202000Y-113600033D02*
X142135333Y-113566700D01*
X142135333Y-113566700D02*
X142102000Y-113533366D01*
X142768667Y-112900033D02*
X143202000Y-112900033D01*
X143202000Y-112900033D02*
X142968667Y-113166700D01*
X142968667Y-113166700D02*
X143068667Y-113166700D01*
X143068667Y-113166700D02*
X143135333Y-113200033D01*
X143135333Y-113200033D02*
X143168667Y-113233366D01*
X143168667Y-113233366D02*
X143202000Y-113300033D01*
X143202000Y-113300033D02*
X143202000Y-113466700D01*
X143202000Y-113466700D02*
X143168667Y-113533366D01*
X143168667Y-113533366D02*
X143135333Y-113566700D01*
X143135333Y-113566700D02*
X143068667Y-113600033D01*
X143068667Y-113600033D02*
X142868667Y-113600033D01*
X142868667Y-113600033D02*
X142802000Y-113566700D01*
X142802000Y-113566700D02*
X142768667Y-113533366D01*
X143635334Y-112900033D02*
X143702000Y-112900033D01*
X143702000Y-112900033D02*
X143768667Y-112933366D01*
X143768667Y-112933366D02*
X143802000Y-112966700D01*
X143802000Y-112966700D02*
X143835334Y-113033366D01*
X143835334Y-113033366D02*
X143868667Y-113166700D01*
X143868667Y-113166700D02*
X143868667Y-113333366D01*
X143868667Y-113333366D02*
X143835334Y-113466700D01*
X143835334Y-113466700D02*
X143802000Y-113533366D01*
X143802000Y-113533366D02*
X143768667Y-113566700D01*
X143768667Y-113566700D02*
X143702000Y-113600033D01*
X143702000Y-113600033D02*
X143635334Y-113600033D01*
X143635334Y-113600033D02*
X143568667Y-113566700D01*
X143568667Y-113566700D02*
X143535334Y-113533366D01*
X143535334Y-113533366D02*
X143502000Y-113466700D01*
X143502000Y-113466700D02*
X143468667Y-113333366D01*
X143468667Y-113333366D02*
X143468667Y-113166700D01*
X143468667Y-113166700D02*
X143502000Y-113033366D01*
X143502000Y-113033366D02*
X143535334Y-112966700D01*
X143535334Y-112966700D02*
X143568667Y-112933366D01*
X143568667Y-112933366D02*
X143635334Y-112900033D01*
X140778033Y-107958666D02*
X140078033Y-107958666D01*
X140078033Y-107958666D02*
X140078033Y-107791999D01*
X140078033Y-107791999D02*
X140111366Y-107691999D01*
X140111366Y-107691999D02*
X140178033Y-107625333D01*
X140178033Y-107625333D02*
X140244700Y-107591999D01*
X140244700Y-107591999D02*
X140378033Y-107558666D01*
X140378033Y-107558666D02*
X140478033Y-107558666D01*
X140478033Y-107558666D02*
X140611366Y-107591999D01*
X140611366Y-107591999D02*
X140678033Y-107625333D01*
X140678033Y-107625333D02*
X140744700Y-107691999D01*
X140744700Y-107691999D02*
X140778033Y-107791999D01*
X140778033Y-107791999D02*
X140778033Y-107958666D01*
X140778033Y-106891999D02*
X140778033Y-107291999D01*
X140778033Y-107091999D02*
X140078033Y-107091999D01*
X140078033Y-107091999D02*
X140178033Y-107158666D01*
X140178033Y-107158666D02*
X140244700Y-107225333D01*
X140244700Y-107225333D02*
X140278033Y-107291999D01*
X148652033Y-105357000D02*
X148652033Y-105690333D01*
X148652033Y-105690333D02*
X147952033Y-105690333D01*
X148285366Y-105123666D02*
X148285366Y-104890333D01*
X148652033Y-104790333D02*
X148652033Y-105123666D01*
X148652033Y-105123666D02*
X147952033Y-105123666D01*
X147952033Y-105123666D02*
X147952033Y-104790333D01*
X148652033Y-104490333D02*
X147952033Y-104490333D01*
X147952033Y-104490333D02*
X147952033Y-104323666D01*
X147952033Y-104323666D02*
X147985366Y-104223666D01*
X147985366Y-104223666D02*
X148052033Y-104157000D01*
X148052033Y-104157000D02*
X148118700Y-104123666D01*
X148118700Y-104123666D02*
X148252033Y-104090333D01*
X148252033Y-104090333D02*
X148352033Y-104090333D01*
X148352033Y-104090333D02*
X148485366Y-104123666D01*
X148485366Y-104123666D02*
X148552033Y-104157000D01*
X148552033Y-104157000D02*
X148618700Y-104223666D01*
X148618700Y-104223666D02*
X148652033Y-104323666D01*
X148652033Y-104323666D02*
X148652033Y-104490333D01*
X149730033Y-85069333D02*
X150230033Y-85069333D01*
X150230033Y-85069333D02*
X150330033Y-85102666D01*
X150330033Y-85102666D02*
X150396700Y-85169333D01*
X150396700Y-85169333D02*
X150430033Y-85269333D01*
X150430033Y-85269333D02*
X150430033Y-85336000D01*
X150430033Y-84369333D02*
X150430033Y-84769333D01*
X150430033Y-84569333D02*
X149730033Y-84569333D01*
X149730033Y-84569333D02*
X149830033Y-84636000D01*
X149830033Y-84636000D02*
X149896700Y-84702667D01*
X149896700Y-84702667D02*
X149930033Y-84769333D01*
X126522033Y-82275333D02*
X127022033Y-82275333D01*
X127022033Y-82275333D02*
X127122033Y-82308666D01*
X127122033Y-82308666D02*
X127188700Y-82375333D01*
X127188700Y-82375333D02*
X127222033Y-82475333D01*
X127222033Y-82475333D02*
X127222033Y-82542000D01*
X126522033Y-82008667D02*
X126522033Y-81575333D01*
X126522033Y-81575333D02*
X126788700Y-81808667D01*
X126788700Y-81808667D02*
X126788700Y-81708667D01*
X126788700Y-81708667D02*
X126822033Y-81642000D01*
X126822033Y-81642000D02*
X126855366Y-81608667D01*
X126855366Y-81608667D02*
X126922033Y-81575333D01*
X126922033Y-81575333D02*
X127088700Y-81575333D01*
X127088700Y-81575333D02*
X127155366Y-81608667D01*
X127155366Y-81608667D02*
X127188700Y-81642000D01*
X127188700Y-81642000D02*
X127222033Y-81708667D01*
X127222033Y-81708667D02*
X127222033Y-81908667D01*
X127222033Y-81908667D02*
X127188700Y-81975333D01*
X127188700Y-81975333D02*
X127155366Y-82008667D01*
D14*
X124851333Y-84578666D02*
X124818000Y-84612000D01*
X124818000Y-84612000D02*
X124718000Y-84645333D01*
X124718000Y-84645333D02*
X124651333Y-84645333D01*
X124651333Y-84645333D02*
X124551333Y-84612000D01*
X124551333Y-84612000D02*
X124484667Y-84545333D01*
X124484667Y-84545333D02*
X124451333Y-84478666D01*
X124451333Y-84478666D02*
X124418000Y-84345333D01*
X124418000Y-84345333D02*
X124418000Y-84245333D01*
X124418000Y-84245333D02*
X124451333Y-84112000D01*
X124451333Y-84112000D02*
X124484667Y-84045333D01*
X124484667Y-84045333D02*
X124551333Y-83978666D01*
X124551333Y-83978666D02*
X124651333Y-83945333D01*
X124651333Y-83945333D02*
X124718000Y-83945333D01*
X124718000Y-83945333D02*
X124818000Y-83978666D01*
X124818000Y-83978666D02*
X124851333Y-84012000D01*
X125084667Y-83945333D02*
X125518000Y-83945333D01*
X125518000Y-83945333D02*
X125284667Y-84212000D01*
X125284667Y-84212000D02*
X125384667Y-84212000D01*
X125384667Y-84212000D02*
X125451333Y-84245333D01*
X125451333Y-84245333D02*
X125484667Y-84278666D01*
X125484667Y-84278666D02*
X125518000Y-84345333D01*
X125518000Y-84345333D02*
X125518000Y-84512000D01*
X125518000Y-84512000D02*
X125484667Y-84578666D01*
X125484667Y-84578666D02*
X125451333Y-84612000D01*
X125451333Y-84612000D02*
X125384667Y-84645333D01*
X125384667Y-84645333D02*
X125184667Y-84645333D01*
X125184667Y-84645333D02*
X125118000Y-84612000D01*
X125118000Y-84612000D02*
X125084667Y-84578666D01*
D11*
X126629333Y-87692033D02*
X126229333Y-87692033D01*
X126429333Y-87692033D02*
X126429333Y-86992033D01*
X126429333Y-86992033D02*
X126362666Y-87092033D01*
X126362666Y-87092033D02*
X126296000Y-87158700D01*
X126296000Y-87158700D02*
X126229333Y-87192033D01*
X127229333Y-87225366D02*
X127229333Y-87692033D01*
X126929333Y-87225366D02*
X126929333Y-87592033D01*
X126929333Y-87592033D02*
X126962667Y-87658700D01*
X126962667Y-87658700D02*
X127029333Y-87692033D01*
X127029333Y-87692033D02*
X127129333Y-87692033D01*
X127129333Y-87692033D02*
X127196000Y-87658700D01*
X127196000Y-87658700D02*
X127229333Y-87625366D01*
X126362033Y-130281333D02*
X126862033Y-130281333D01*
X126862033Y-130281333D02*
X126962033Y-130314666D01*
X126962033Y-130314666D02*
X127028700Y-130381333D01*
X127028700Y-130381333D02*
X127062033Y-130481333D01*
X127062033Y-130481333D02*
X127062033Y-130548000D01*
X126595366Y-129648000D02*
X127062033Y-129648000D01*
X126328700Y-129814667D02*
X126828700Y-129981333D01*
X126828700Y-129981333D02*
X126828700Y-129548000D01*
X124434666Y-109852033D02*
X124434666Y-110418700D01*
X124434666Y-110418700D02*
X124468000Y-110485366D01*
X124468000Y-110485366D02*
X124501333Y-110518700D01*
X124501333Y-110518700D02*
X124568000Y-110552033D01*
X124568000Y-110552033D02*
X124701333Y-110552033D01*
X124701333Y-110552033D02*
X124768000Y-110518700D01*
X124768000Y-110518700D02*
X124801333Y-110485366D01*
X124801333Y-110485366D02*
X124834666Y-110418700D01*
X124834666Y-110418700D02*
X124834666Y-109852033D01*
X125534666Y-110552033D02*
X125134666Y-110552033D01*
X125334666Y-110552033D02*
X125334666Y-109852033D01*
X125334666Y-109852033D02*
X125267999Y-109952033D01*
X125267999Y-109952033D02*
X125201333Y-110018700D01*
X125201333Y-110018700D02*
X125134666Y-110052033D01*
X125869333Y-117004033D02*
X125535999Y-117004033D01*
X125535999Y-117004033D02*
X125535999Y-116304033D01*
X126102666Y-117004033D02*
X126102666Y-116304033D01*
X126102666Y-116304033D02*
X126336000Y-116804033D01*
X126336000Y-116804033D02*
X126569333Y-116304033D01*
X126569333Y-116304033D02*
X126569333Y-117004033D01*
X126836000Y-116304033D02*
X127302666Y-116304033D01*
X127302666Y-116304033D02*
X127002666Y-117004033D01*
X127669333Y-116604033D02*
X127602667Y-116570700D01*
X127602667Y-116570700D02*
X127569333Y-116537366D01*
X127569333Y-116537366D02*
X127536000Y-116470700D01*
X127536000Y-116470700D02*
X127536000Y-116437366D01*
X127536000Y-116437366D02*
X127569333Y-116370700D01*
X127569333Y-116370700D02*
X127602667Y-116337366D01*
X127602667Y-116337366D02*
X127669333Y-116304033D01*
X127669333Y-116304033D02*
X127802667Y-116304033D01*
X127802667Y-116304033D02*
X127869333Y-116337366D01*
X127869333Y-116337366D02*
X127902667Y-116370700D01*
X127902667Y-116370700D02*
X127936000Y-116437366D01*
X127936000Y-116437366D02*
X127936000Y-116470700D01*
X127936000Y-116470700D02*
X127902667Y-116537366D01*
X127902667Y-116537366D02*
X127869333Y-116570700D01*
X127869333Y-116570700D02*
X127802667Y-116604033D01*
X127802667Y-116604033D02*
X127669333Y-116604033D01*
X127669333Y-116604033D02*
X127602667Y-116637366D01*
X127602667Y-116637366D02*
X127569333Y-116670700D01*
X127569333Y-116670700D02*
X127536000Y-116737366D01*
X127536000Y-116737366D02*
X127536000Y-116870700D01*
X127536000Y-116870700D02*
X127569333Y-116937366D01*
X127569333Y-116937366D02*
X127602667Y-116970700D01*
X127602667Y-116970700D02*
X127669333Y-117004033D01*
X127669333Y-117004033D02*
X127802667Y-117004033D01*
X127802667Y-117004033D02*
X127869333Y-116970700D01*
X127869333Y-116970700D02*
X127902667Y-116937366D01*
X127902667Y-116937366D02*
X127936000Y-116870700D01*
X127936000Y-116870700D02*
X127936000Y-116737366D01*
X127936000Y-116737366D02*
X127902667Y-116670700D01*
X127902667Y-116670700D02*
X127869333Y-116637366D01*
X127869333Y-116637366D02*
X127802667Y-116604033D01*
X128369334Y-116304033D02*
X128436000Y-116304033D01*
X128436000Y-116304033D02*
X128502667Y-116337366D01*
X128502667Y-116337366D02*
X128536000Y-116370700D01*
X128536000Y-116370700D02*
X128569334Y-116437366D01*
X128569334Y-116437366D02*
X128602667Y-116570700D01*
X128602667Y-116570700D02*
X128602667Y-116737366D01*
X128602667Y-116737366D02*
X128569334Y-116870700D01*
X128569334Y-116870700D02*
X128536000Y-116937366D01*
X128536000Y-116937366D02*
X128502667Y-116970700D01*
X128502667Y-116970700D02*
X128436000Y-117004033D01*
X128436000Y-117004033D02*
X128369334Y-117004033D01*
X128369334Y-117004033D02*
X128302667Y-116970700D01*
X128302667Y-116970700D02*
X128269334Y-116937366D01*
X128269334Y-116937366D02*
X128236000Y-116870700D01*
X128236000Y-116870700D02*
X128202667Y-116737366D01*
X128202667Y-116737366D02*
X128202667Y-116570700D01*
X128202667Y-116570700D02*
X128236000Y-116437366D01*
X128236000Y-116437366D02*
X128269334Y-116370700D01*
X128269334Y-116370700D02*
X128302667Y-116337366D01*
X128302667Y-116337366D02*
X128369334Y-116304033D01*
X129236001Y-116304033D02*
X128902667Y-116304033D01*
X128902667Y-116304033D02*
X128869334Y-116637366D01*
X128869334Y-116637366D02*
X128902667Y-116604033D01*
X128902667Y-116604033D02*
X128969334Y-116570700D01*
X128969334Y-116570700D02*
X129136001Y-116570700D01*
X129136001Y-116570700D02*
X129202667Y-116604033D01*
X129202667Y-116604033D02*
X129236001Y-116637366D01*
X129236001Y-116637366D02*
X129269334Y-116704033D01*
X129269334Y-116704033D02*
X129269334Y-116870700D01*
X129269334Y-116870700D02*
X129236001Y-116937366D01*
X129236001Y-116937366D02*
X129202667Y-116970700D01*
X129202667Y-116970700D02*
X129136001Y-117004033D01*
X129136001Y-117004033D02*
X128969334Y-117004033D01*
X128969334Y-117004033D02*
X128902667Y-116970700D01*
X128902667Y-116970700D02*
X128869334Y-116937366D01*
X129402668Y-117070700D02*
X129936001Y-117070700D01*
X130002667Y-116304033D02*
X130402667Y-116304033D01*
X130202667Y-117004033D02*
X130202667Y-116304033D01*
X130769334Y-116304033D02*
X130902667Y-116304033D01*
X130902667Y-116304033D02*
X130969334Y-116337366D01*
X130969334Y-116337366D02*
X131036000Y-116404033D01*
X131036000Y-116404033D02*
X131069334Y-116537366D01*
X131069334Y-116537366D02*
X131069334Y-116770700D01*
X131069334Y-116770700D02*
X131036000Y-116904033D01*
X131036000Y-116904033D02*
X130969334Y-116970700D01*
X130969334Y-116970700D02*
X130902667Y-117004033D01*
X130902667Y-117004033D02*
X130769334Y-117004033D01*
X130769334Y-117004033D02*
X130702667Y-116970700D01*
X130702667Y-116970700D02*
X130636000Y-116904033D01*
X130636000Y-116904033D02*
X130602667Y-116770700D01*
X130602667Y-116770700D02*
X130602667Y-116537366D01*
X130602667Y-116537366D02*
X130636000Y-116404033D01*
X130636000Y-116404033D02*
X130702667Y-116337366D01*
X130702667Y-116337366D02*
X130769334Y-116304033D01*
X131336000Y-116370700D02*
X131369333Y-116337366D01*
X131369333Y-116337366D02*
X131436000Y-116304033D01*
X131436000Y-116304033D02*
X131602667Y-116304033D01*
X131602667Y-116304033D02*
X131669333Y-116337366D01*
X131669333Y-116337366D02*
X131702667Y-116370700D01*
X131702667Y-116370700D02*
X131736000Y-116437366D01*
X131736000Y-116437366D02*
X131736000Y-116504033D01*
X131736000Y-116504033D02*
X131702667Y-116604033D01*
X131702667Y-116604033D02*
X131302667Y-117004033D01*
X131302667Y-117004033D02*
X131736000Y-117004033D01*
X132002667Y-116370700D02*
X132036000Y-116337366D01*
X132036000Y-116337366D02*
X132102667Y-116304033D01*
X132102667Y-116304033D02*
X132269334Y-116304033D01*
X132269334Y-116304033D02*
X132336000Y-116337366D01*
X132336000Y-116337366D02*
X132369334Y-116370700D01*
X132369334Y-116370700D02*
X132402667Y-116437366D01*
X132402667Y-116437366D02*
X132402667Y-116504033D01*
X132402667Y-116504033D02*
X132369334Y-116604033D01*
X132369334Y-116604033D02*
X131969334Y-117004033D01*
X131969334Y-117004033D02*
X132402667Y-117004033D01*
X132836001Y-116304033D02*
X132902667Y-116304033D01*
X132902667Y-116304033D02*
X132969334Y-116337366D01*
X132969334Y-116337366D02*
X133002667Y-116370700D01*
X133002667Y-116370700D02*
X133036001Y-116437366D01*
X133036001Y-116437366D02*
X133069334Y-116570700D01*
X133069334Y-116570700D02*
X133069334Y-116737366D01*
X133069334Y-116737366D02*
X133036001Y-116870700D01*
X133036001Y-116870700D02*
X133002667Y-116937366D01*
X133002667Y-116937366D02*
X132969334Y-116970700D01*
X132969334Y-116970700D02*
X132902667Y-117004033D01*
X132902667Y-117004033D02*
X132836001Y-117004033D01*
X132836001Y-117004033D02*
X132769334Y-116970700D01*
X132769334Y-116970700D02*
X132736001Y-116937366D01*
X132736001Y-116937366D02*
X132702667Y-116870700D01*
X132702667Y-116870700D02*
X132669334Y-116737366D01*
X132669334Y-116737366D02*
X132669334Y-116570700D01*
X132669334Y-116570700D02*
X132702667Y-116437366D01*
X132702667Y-116437366D02*
X132736001Y-116370700D01*
X132736001Y-116370700D02*
X132769334Y-116337366D01*
X132769334Y-116337366D02*
X132836001Y-116304033D01*
X132217333Y-118613366D02*
X132184000Y-118646700D01*
X132184000Y-118646700D02*
X132084000Y-118680033D01*
X132084000Y-118680033D02*
X132017333Y-118680033D01*
X132017333Y-118680033D02*
X131917333Y-118646700D01*
X131917333Y-118646700D02*
X131850667Y-118580033D01*
X131850667Y-118580033D02*
X131817333Y-118513366D01*
X131817333Y-118513366D02*
X131784000Y-118380033D01*
X131784000Y-118380033D02*
X131784000Y-118280033D01*
X131784000Y-118280033D02*
X131817333Y-118146700D01*
X131817333Y-118146700D02*
X131850667Y-118080033D01*
X131850667Y-118080033D02*
X131917333Y-118013366D01*
X131917333Y-118013366D02*
X132017333Y-117980033D01*
X132017333Y-117980033D02*
X132084000Y-117980033D01*
X132084000Y-117980033D02*
X132184000Y-118013366D01*
X132184000Y-118013366D02*
X132217333Y-118046700D01*
X132484000Y-118046700D02*
X132517333Y-118013366D01*
X132517333Y-118013366D02*
X132584000Y-117980033D01*
X132584000Y-117980033D02*
X132750667Y-117980033D01*
X132750667Y-117980033D02*
X132817333Y-118013366D01*
X132817333Y-118013366D02*
X132850667Y-118046700D01*
X132850667Y-118046700D02*
X132884000Y-118113366D01*
X132884000Y-118113366D02*
X132884000Y-118180033D01*
X132884000Y-118180033D02*
X132850667Y-118280033D01*
X132850667Y-118280033D02*
X132450667Y-118680033D01*
X132450667Y-118680033D02*
X132884000Y-118680033D01*
X133008000Y-121536033D02*
X133074666Y-121536033D01*
X133074666Y-121536033D02*
X133141333Y-121569366D01*
X133141333Y-121569366D02*
X133174666Y-121602700D01*
X133174666Y-121602700D02*
X133208000Y-121669366D01*
X133208000Y-121669366D02*
X133241333Y-121802700D01*
X133241333Y-121802700D02*
X133241333Y-121969366D01*
X133241333Y-121969366D02*
X133208000Y-122102700D01*
X133208000Y-122102700D02*
X133174666Y-122169366D01*
X133174666Y-122169366D02*
X133141333Y-122202700D01*
X133141333Y-122202700D02*
X133074666Y-122236033D01*
X133074666Y-122236033D02*
X133008000Y-122236033D01*
X133008000Y-122236033D02*
X132941333Y-122202700D01*
X132941333Y-122202700D02*
X132908000Y-122169366D01*
X132908000Y-122169366D02*
X132874666Y-122102700D01*
X132874666Y-122102700D02*
X132841333Y-121969366D01*
X132841333Y-121969366D02*
X132841333Y-121802700D01*
X132841333Y-121802700D02*
X132874666Y-121669366D01*
X132874666Y-121669366D02*
X132908000Y-121602700D01*
X132908000Y-121602700D02*
X132941333Y-121569366D01*
X132941333Y-121569366D02*
X133008000Y-121536033D01*
X133541333Y-122169366D02*
X133574667Y-122202700D01*
X133574667Y-122202700D02*
X133541333Y-122236033D01*
X133541333Y-122236033D02*
X133508000Y-122202700D01*
X133508000Y-122202700D02*
X133541333Y-122169366D01*
X133541333Y-122169366D02*
X133541333Y-122236033D01*
X134241333Y-122236033D02*
X133841333Y-122236033D01*
X134041333Y-122236033D02*
X134041333Y-121536033D01*
X134041333Y-121536033D02*
X133974666Y-121636033D01*
X133974666Y-121636033D02*
X133908000Y-121702700D01*
X133908000Y-121702700D02*
X133841333Y-121736033D01*
X134841333Y-121769366D02*
X134841333Y-122236033D01*
X134541333Y-121769366D02*
X134541333Y-122136033D01*
X134541333Y-122136033D02*
X134574667Y-122202700D01*
X134574667Y-122202700D02*
X134641333Y-122236033D01*
X134641333Y-122236033D02*
X134741333Y-122236033D01*
X134741333Y-122236033D02*
X134808000Y-122202700D01*
X134808000Y-122202700D02*
X134841333Y-122169366D01*
X126629333Y-118613366D02*
X126596000Y-118646700D01*
X126596000Y-118646700D02*
X126496000Y-118680033D01*
X126496000Y-118680033D02*
X126429333Y-118680033D01*
X126429333Y-118680033D02*
X126329333Y-118646700D01*
X126329333Y-118646700D02*
X126262667Y-118580033D01*
X126262667Y-118580033D02*
X126229333Y-118513366D01*
X126229333Y-118513366D02*
X126196000Y-118380033D01*
X126196000Y-118380033D02*
X126196000Y-118280033D01*
X126196000Y-118280033D02*
X126229333Y-118146700D01*
X126229333Y-118146700D02*
X126262667Y-118080033D01*
X126262667Y-118080033D02*
X126329333Y-118013366D01*
X126329333Y-118013366D02*
X126429333Y-117980033D01*
X126429333Y-117980033D02*
X126496000Y-117980033D01*
X126496000Y-117980033D02*
X126596000Y-118013366D01*
X126596000Y-118013366D02*
X126629333Y-118046700D01*
X127296000Y-118680033D02*
X126896000Y-118680033D01*
X127096000Y-118680033D02*
X127096000Y-117980033D01*
X127096000Y-117980033D02*
X127029333Y-118080033D01*
X127029333Y-118080033D02*
X126962667Y-118146700D01*
X126962667Y-118146700D02*
X126896000Y-118180033D01*
X127820000Y-122236033D02*
X127420000Y-122236033D01*
X127620000Y-122236033D02*
X127620000Y-121536033D01*
X127620000Y-121536033D02*
X127553333Y-121636033D01*
X127553333Y-121636033D02*
X127486667Y-121702700D01*
X127486667Y-121702700D02*
X127420000Y-121736033D01*
X128253334Y-121536033D02*
X128320000Y-121536033D01*
X128320000Y-121536033D02*
X128386667Y-121569366D01*
X128386667Y-121569366D02*
X128420000Y-121602700D01*
X128420000Y-121602700D02*
X128453334Y-121669366D01*
X128453334Y-121669366D02*
X128486667Y-121802700D01*
X128486667Y-121802700D02*
X128486667Y-121969366D01*
X128486667Y-121969366D02*
X128453334Y-122102700D01*
X128453334Y-122102700D02*
X128420000Y-122169366D01*
X128420000Y-122169366D02*
X128386667Y-122202700D01*
X128386667Y-122202700D02*
X128320000Y-122236033D01*
X128320000Y-122236033D02*
X128253334Y-122236033D01*
X128253334Y-122236033D02*
X128186667Y-122202700D01*
X128186667Y-122202700D02*
X128153334Y-122169366D01*
X128153334Y-122169366D02*
X128120000Y-122102700D01*
X128120000Y-122102700D02*
X128086667Y-121969366D01*
X128086667Y-121969366D02*
X128086667Y-121802700D01*
X128086667Y-121802700D02*
X128120000Y-121669366D01*
X128120000Y-121669366D02*
X128153334Y-121602700D01*
X128153334Y-121602700D02*
X128186667Y-121569366D01*
X128186667Y-121569366D02*
X128253334Y-121536033D01*
X129086667Y-121769366D02*
X129086667Y-122236033D01*
X128786667Y-121769366D02*
X128786667Y-122136033D01*
X128786667Y-122136033D02*
X128820001Y-122202700D01*
X128820001Y-122202700D02*
X128886667Y-122236033D01*
X128886667Y-122236033D02*
X128986667Y-122236033D01*
X128986667Y-122236033D02*
X129053334Y-122202700D01*
X129053334Y-122202700D02*
X129086667Y-122169366D01*
%TO.C,S1*%
D10*
X136320000Y-91626000D02*
X136320000Y-92126000D01*
X136320000Y-91626000D02*
X136820000Y-91626000D01*
X136320000Y-95826000D02*
X136320000Y-95326000D01*
X136320000Y-95826000D02*
X136820000Y-95826000D01*
X148220000Y-91626000D02*
X147720000Y-91626000D01*
X148220000Y-91626000D02*
X148220000Y-92126000D01*
X148220000Y-95826000D02*
X147720000Y-95826000D01*
X148220000Y-95826000D02*
X148220000Y-95326000D01*
%TO.C,J5*%
D15*
X137124000Y-79848500D02*
X147864000Y-79848500D01*
X137124000Y-83468500D02*
X138364000Y-83468500D01*
X137124000Y-84468500D02*
X138364000Y-84468500D01*
X137124000Y-85768500D02*
X138364000Y-85768500D01*
X137124000Y-87888500D02*
X137124000Y-79848500D01*
X139944000Y-87888500D02*
X137124000Y-87888500D01*
X142124000Y-83468500D02*
X143432000Y-83468500D01*
X142124000Y-84468500D02*
X143432000Y-84468500D01*
X142124000Y-85768500D02*
X144701000Y-85768500D01*
X145787000Y-85768500D02*
X147864000Y-85768500D01*
X147056000Y-83468500D02*
X147864000Y-83468500D01*
X147056000Y-84468500D02*
X147864000Y-84468500D01*
X147864000Y-79848500D02*
X147864000Y-87888500D01*
X147864000Y-87888500D02*
X140544000Y-87888500D01*
X140244000Y-87888500D02*
X140684000Y-88498500D01*
X139804000Y-88498500D01*
X140244000Y-87888500D01*
G36*
X140684000Y-88498500D02*
G01*
X139804000Y-88498500D01*
X140244000Y-87888500D01*
X140684000Y-88498500D01*
G37*
%TO.C,J2*%
X151020000Y-125112000D02*
X152400000Y-125112000D01*
X151020000Y-126492000D02*
X151020000Y-125112000D01*
X151020000Y-127762000D02*
X151020000Y-130412000D01*
X151020000Y-127762000D02*
X153780000Y-127762000D01*
X151020000Y-130412000D02*
X153780000Y-130412000D01*
X153780000Y-127762000D02*
X153780000Y-130412000D01*
%TO.C,J7*%
X137124000Y-122085500D02*
X147864000Y-122085500D01*
X137124000Y-125705500D02*
X138364000Y-125705500D01*
X137124000Y-126705500D02*
X138364000Y-126705500D01*
X137124000Y-128005500D02*
X138364000Y-128005500D01*
X137124000Y-130125500D02*
X137124000Y-122085500D01*
X139944000Y-130125500D02*
X137124000Y-130125500D01*
X142124000Y-125705500D02*
X143432000Y-125705500D01*
X142124000Y-126705500D02*
X143432000Y-126705500D01*
X142124000Y-128005500D02*
X144701000Y-128005500D01*
X145787000Y-128005500D02*
X147864000Y-128005500D01*
X147056000Y-125705500D02*
X147864000Y-125705500D01*
X147056000Y-126705500D02*
X147864000Y-126705500D01*
X147864000Y-122085500D02*
X147864000Y-130125500D01*
X147864000Y-130125500D02*
X140544000Y-130125500D01*
X140244000Y-130125500D02*
X140684000Y-130735500D01*
X139804000Y-130735500D01*
X140244000Y-130125500D01*
G36*
X140684000Y-130735500D02*
G01*
X139804000Y-130735500D01*
X140244000Y-130125500D01*
X140684000Y-130735500D01*
G37*
%TO.C,R2*%
X139878000Y-99314000D02*
X140828000Y-99314000D01*
X145618000Y-99314000D02*
X144668000Y-99314000D01*
X140828000Y-98394000D02*
X144668000Y-98394000D01*
X144668000Y-100234000D01*
X140828000Y-100234000D01*
X140828000Y-98394000D01*
%TO.C,R3*%
X139878000Y-116078000D02*
X140828000Y-116078000D01*
X145618000Y-116078000D02*
X144668000Y-116078000D01*
X140828000Y-115158000D02*
X144668000Y-115158000D01*
X144668000Y-116998000D01*
X140828000Y-116998000D01*
X140828000Y-115158000D01*
%TO.C,J6*%
X122756000Y-98582500D02*
X137456000Y-98582500D01*
X122756000Y-107782500D02*
X122756000Y-98582500D01*
X131556000Y-107782500D02*
X122756000Y-107782500D01*
X136606000Y-98382500D02*
X137656000Y-98382500D01*
X137456000Y-98582500D02*
X137456000Y-101182500D01*
X137456000Y-105082500D02*
X137456000Y-107782500D01*
X137456000Y-107782500D02*
X135556000Y-107782500D01*
X137656000Y-99432500D02*
X137656000Y-98382500D01*
%TO.C,U2*%
X123160000Y-88876000D02*
X133380000Y-88876000D01*
X123160000Y-90256000D02*
X133380000Y-90256000D01*
X123160000Y-93496000D02*
X123160000Y-88876000D01*
X126420000Y-88876000D02*
X126420000Y-90256000D01*
X130120000Y-88876000D02*
X130120000Y-90256000D01*
X133380000Y-88876000D02*
X133380000Y-93496000D01*
X133380000Y-93496000D02*
X123160000Y-93496000D01*
%TO.C,R1*%
X140152000Y-111506000D02*
X141102000Y-111506000D01*
X145892000Y-111506000D02*
X144942000Y-111506000D01*
X141102000Y-110586000D02*
X144942000Y-110586000D01*
X144942000Y-112426000D01*
X141102000Y-112426000D01*
X141102000Y-110586000D01*
%TO.C,D1*%
X142981000Y-107467000D02*
X146071000Y-107467000D01*
X142981170Y-107467000D02*
G75*
G02*
X144526000Y-101917000I1544830J2560000D01*
G01*
X144526000Y-101917000D02*
G75*
G02*
X146070830Y-107467000I0J-2990000D01*
G01*
X147026000Y-104907000D02*
G75*
G02*
X142026000Y-104907000I-2500000J0D01*
G01*
X142026000Y-104907000D02*
G75*
G02*
X147026000Y-104907000I2500000J0D01*
G01*
%TO.C,J1*%
X151020000Y-79900000D02*
X152400000Y-79900000D01*
X151020000Y-81280000D02*
X151020000Y-79900000D01*
X151020000Y-82550000D02*
X151020000Y-85200000D01*
X151020000Y-82550000D02*
X153780000Y-82550000D01*
X151020000Y-85200000D02*
X153780000Y-85200000D01*
X153780000Y-82550000D02*
X153780000Y-85200000D01*
%TO.C,J3*%
X127906000Y-82618500D02*
X127906000Y-81238500D01*
X129286000Y-82618500D02*
X127906000Y-82618500D01*
X130556000Y-79858500D02*
X135746000Y-79858500D01*
X130556000Y-82618500D02*
X130556000Y-79858500D01*
X130556000Y-82618500D02*
X135746000Y-82618500D01*
X135746000Y-82618500D02*
X135746000Y-79858500D01*
%TO.C,C3*%
X126001000Y-84932000D02*
X127531000Y-84932000D01*
X127531000Y-86772000D02*
X126001000Y-86772000D01*
%TO.C,J4*%
X127906000Y-130370500D02*
X127906000Y-128990500D01*
X129286000Y-130370500D02*
X127906000Y-130370500D01*
X130556000Y-127610500D02*
X135746000Y-127610500D01*
X130556000Y-130370500D02*
X130556000Y-127610500D01*
X130556000Y-130370500D02*
X135746000Y-130370500D01*
X135746000Y-130370500D02*
X135746000Y-127610500D01*
%TO.C,U1*%
X124176000Y-111228000D02*
X134396000Y-111228000D01*
X124176000Y-112608000D02*
X134396000Y-112608000D01*
X124176000Y-115848000D02*
X124176000Y-111228000D01*
X127436000Y-111228000D02*
X127436000Y-112608000D01*
X131136000Y-111228000D02*
X131136000Y-112608000D01*
X134396000Y-111228000D02*
X134396000Y-115848000D01*
X134396000Y-115848000D02*
X124176000Y-115848000D01*
%TO.C,C2*%
X133113000Y-119222000D02*
X134643000Y-119222000D01*
X134643000Y-121062000D02*
X133113000Y-121062000D01*
%TO.C,C1*%
X127505000Y-119222000D02*
X129035000Y-119222000D01*
X129035000Y-121062000D02*
X127505000Y-121062000D01*
%TD*%
M02*
