%TF.GenerationSoftware,KiCad,Pcbnew,10.0.3-2.fc44*%
%TF.CreationDate,2026-06-16T18:17:13+05:30*%
%TF.ProjectId,Breadboard power supply,42726561-6462-46f6-9172-6420706f7765,rev?*%
%TF.SameCoordinates,Original*%
%TF.FileFunction,Copper,L1,Top*%
%TF.FilePolarity,Positive*%
%FSLAX46Y46*%
G04 Gerber Fmt 4.6, Leading zero omitted, Abs format (unit mm)*
G04 Created by KiCad (PCBNEW 10.0.3-2.fc44) date 2026-06-16 18:17:13*
%MOMM*%
%LPD*%
G01*
G04 APERTURE LIST*
G04 Aperture macros list*
%AMRoundRect*
0 Rectangle with rounded corners*
0 $1 Rounding radius*
0 $2 $3 $4 $5 $6 $7 $8 $9 X,Y pos of 4 corners*
0 Add a 4 corners polygon primitive as box body*
4,1,4,$2,$3,$4,$5,$6,$7,$8,$9,$2,$3,0*
0 Add four circle primitives for the rounded corners*
1,1,$1+$1,$2,$3*
1,1,$1+$1,$4,$5*
1,1,$1+$1,$6,$7*
1,1,$1+$1,$8,$9*
0 Add four rect primitives between the rounded corners*
20,1,$1+$1,$2,$3,$4,$5,0*
20,1,$1+$1,$4,$5,$6,$7,0*
20,1,$1+$1,$6,$7,$8,$9,0*
20,1,$1+$1,$8,$9,$2,$3,0*%
G04 Aperture macros list end*
%TA.AperFunction,ComponentPad*%
%ADD10R,1.900000X1.900000*%
%TD*%
%TA.AperFunction,ComponentPad*%
%ADD11C,1.900000*%
%TD*%
%TA.AperFunction,ComponentPad*%
%ADD12RoundRect,0.250001X-1.149999X-1.149999X1.149999X-1.149999X1.149999X1.149999X-1.149999X1.149999X0*%
%TD*%
%TA.AperFunction,ComponentPad*%
%ADD13C,2.800000*%
%TD*%
%TA.AperFunction,ComponentPad*%
%ADD14R,1.700000X1.700000*%
%TD*%
%TA.AperFunction,ComponentPad*%
%ADD15C,1.700000*%
%TD*%
%TA.AperFunction,ComponentPad*%
%ADD16C,1.400000*%
%TD*%
%TA.AperFunction,ComponentPad*%
%ADD17R,3.500000X3.500000*%
%TD*%
%TA.AperFunction,ComponentPad*%
%ADD18RoundRect,0.750000X-0.750000X-1.000000X0.750000X-1.000000X0.750000X1.000000X-0.750000X1.000000X0*%
%TD*%
%TA.AperFunction,ComponentPad*%
%ADD19RoundRect,0.875000X-0.875000X-0.875000X0.875000X-0.875000X0.875000X0.875000X-0.875000X0.875000X0*%
%TD*%
%TA.AperFunction,ComponentPad*%
%ADD20R,1.905000X2.000000*%
%TD*%
%TA.AperFunction,ComponentPad*%
%ADD21O,1.905000X2.000000*%
%TD*%
%TA.AperFunction,ComponentPad*%
%ADD22R,1.800000X1.800000*%
%TD*%
%TA.AperFunction,ComponentPad*%
%ADD23C,1.800000*%
%TD*%
%TA.AperFunction,ComponentPad*%
%ADD24C,1.600000*%
%TD*%
%TA.AperFunction,ViaPad*%
%ADD25C,0.600000*%
%TD*%
%TA.AperFunction,ViaPad*%
%ADD26C,0.800000*%
%TD*%
%TA.AperFunction,Conductor*%
%ADD27C,0.350000*%
%TD*%
%TA.AperFunction,Conductor*%
%ADD28C,0.200000*%
%TD*%
G04 APERTURE END LIST*
D10*
%TO.P,S1,1,~_1*%
%TO.N,/12V*%
X144620000Y-93726000D03*
D11*
%TO.P,S1,2,~_2*%
%TO.N,/Power_input*%
X142120000Y-93726000D03*
%TO.P,S1,3,~_3*%
%TO.N,unconnected-(S1-~-Pad3)*%
X139620000Y-93726000D03*
%TD*%
D12*
%TO.P,J5,1,Pin_1_1*%
%TO.N,GND*%
X140244000Y-83968500D03*
D13*
%TO.P,J5,2,Pin_2_2*%
%TO.N,/Power_output*%
X145244000Y-83968500D03*
%TD*%
D14*
%TO.P,J2,1,Pin_1_1*%
%TO.N,GND*%
X152400000Y-126492000D03*
D15*
%TO.P,J2,2,Pin_2_2*%
%TO.N,/Power_output*%
X152400000Y-129032000D03*
%TD*%
D12*
%TO.P,J7,1,Pin_1_1*%
%TO.N,GND*%
X140244000Y-126205500D03*
D13*
%TO.P,J7,2,Pin_2_2*%
%TO.N,/Power_output*%
X145244000Y-126205500D03*
%TD*%
D16*
%TO.P,R2,1*%
%TO.N,Net-(D1-A)*%
X138938000Y-99314000D03*
%TO.P,R2,2*%
%TO.N,/12V*%
X146558000Y-99314000D03*
%TD*%
%TO.P,R3,1*%
%TO.N,GND*%
X146558000Y-116078000D03*
%TO.P,R3,2*%
%TO.N,Net-(U2-ADJ)*%
X138938000Y-116078000D03*
%TD*%
D17*
%TO.P,J6,1*%
%TO.N,/Power_input*%
X136556000Y-103182500D03*
D18*
%TO.P,J6,2*%
%TO.N,GND*%
X130556000Y-103182500D03*
D19*
%TO.P,J6,3*%
X133556000Y-107882500D03*
%TD*%
D20*
%TO.P,U2,1,ADJ_1*%
%TO.N,Net-(U2-ADJ)*%
X125730000Y-92136000D03*
D21*
%TO.P,U2,2,VO_2*%
%TO.N,/3.3v*%
X128270000Y-92136000D03*
%TO.P,U2,3,VI_3*%
%TO.N,/12V*%
X130810000Y-92136000D03*
%TD*%
D16*
%TO.P,R1,1*%
%TO.N,Net-(U2-ADJ)*%
X139212000Y-111506000D03*
%TO.P,R1,2*%
%TO.N,/3.3v*%
X146832000Y-111506000D03*
%TD*%
D22*
%TO.P,D1,1,K_1*%
%TO.N,GND*%
X144526000Y-106177000D03*
D23*
%TO.P,D1,2,A_2*%
%TO.N,Net-(D1-A)*%
X144526000Y-103637000D03*
%TD*%
D14*
%TO.P,J1,1,Pin_1_1*%
%TO.N,GND*%
X152400000Y-81280000D03*
D15*
%TO.P,J1,2,Pin_2_2*%
%TO.N,/Power_output*%
X152400000Y-83820000D03*
%TD*%
D14*
%TO.P,J3,1,Pin_1_1*%
%TO.N,/3.3v*%
X129286000Y-81238500D03*
D15*
%TO.P,J3,2,Pin_2_2*%
%TO.N,/Power_output*%
X131826000Y-81238500D03*
%TO.P,J3,3,Pin_3_3*%
%TO.N,/5V*%
X134366000Y-81238500D03*
%TD*%
D24*
%TO.P,C3,1*%
%TO.N,/3.3v*%
X128016000Y-85852000D03*
%TO.P,C3,2*%
%TO.N,GND*%
X125516000Y-85852000D03*
%TD*%
D14*
%TO.P,J4,1,Pin_1_1*%
%TO.N,/3.3v*%
X129286000Y-128990500D03*
D15*
%TO.P,J4,2,Pin_2_2*%
%TO.N,/Power_output*%
X131826000Y-128990500D03*
%TO.P,J4,3,Pin_3_3*%
%TO.N,/5V*%
X134366000Y-128990500D03*
%TD*%
D20*
%TO.P,U1,1,VI_1*%
%TO.N,/12V*%
X126746000Y-114488000D03*
D21*
%TO.P,U1,2,GND_2*%
%TO.N,GND*%
X129286000Y-114488000D03*
%TO.P,U1,3,VO_3*%
%TO.N,/5V*%
X131826000Y-114488000D03*
%TD*%
D24*
%TO.P,C2,1*%
%TO.N,/5V*%
X135128000Y-120142000D03*
%TO.P,C2,2*%
%TO.N,GND*%
X132628000Y-120142000D03*
%TD*%
%TO.P,C1,1*%
%TO.N,/12V*%
X127020000Y-120142000D03*
%TO.P,C1,2*%
%TO.N,GND*%
X129520000Y-120142000D03*
%TD*%
D25*
%TO.N,Net-(U2-ADJ)*%
X125730000Y-106680000D03*
D26*
%TO.N,/3.3v*%
X131064000Y-118618000D03*
X129781136Y-94729136D03*
X138176000Y-92961000D03*
%TO.N,/5V*%
X134366000Y-91311000D03*
%TD*%
%TO.N,/12V*%
D27*
X144620000Y-97376000D02*
X146558000Y-99314000D01*
X126746000Y-96200000D02*
X126746000Y-114488000D01*
X130810000Y-92136000D02*
X143030000Y-92136000D01*
X126746000Y-114488000D02*
X126746000Y-119868000D01*
X126746000Y-119868000D02*
X127020000Y-120142000D01*
X130810000Y-92136000D02*
X126746000Y-96200000D01*
X143030000Y-92136000D02*
X144620000Y-93726000D01*
X144620000Y-93726000D02*
X144620000Y-97376000D01*
%TO.N,/Power_input*%
X136556000Y-99290000D02*
X136556000Y-103182500D01*
X142120000Y-93726000D02*
X136556000Y-99290000D01*
%TO.N,/Power_output*%
X131826000Y-81238500D02*
X133101000Y-79963500D01*
X131826000Y-128990500D02*
X133101000Y-130265500D01*
X152146000Y-83820000D02*
X151997500Y-83968500D01*
X151997500Y-83968500D02*
X145244000Y-83968500D01*
X147957000Y-123492500D02*
X145244000Y-126205500D01*
X141184000Y-130265500D02*
X145244000Y-126205500D01*
X133101000Y-130265500D02*
X141184000Y-130265500D01*
X147957000Y-86681500D02*
X147957000Y-123492500D01*
X145244000Y-126205500D02*
X149573500Y-126205500D01*
X152400000Y-83820000D02*
X152146000Y-83820000D01*
X145244000Y-83968500D02*
X147957000Y-86681500D01*
X133101000Y-79963500D02*
X141239000Y-79963500D01*
X141239000Y-79963500D02*
X145244000Y-83968500D01*
X149573500Y-126205500D02*
X152400000Y-129032000D01*
%TO.N,Net-(D1-A)*%
D28*
X143261000Y-103637000D02*
X144526000Y-103637000D01*
X138938000Y-99314000D02*
X143261000Y-103637000D01*
%TO.N,Net-(U2-ADJ)*%
X139212000Y-115804000D02*
X138938000Y-116078000D01*
X139212000Y-111506000D02*
X139212000Y-115804000D01*
X125730000Y-92136000D02*
X125730000Y-106680000D01*
%TO.N,/3.3v*%
D27*
X128016000Y-85852000D02*
X128016000Y-91882000D01*
X138176000Y-93472000D02*
X138176000Y-92961000D01*
X129781136Y-94729136D02*
X130302000Y-95250000D01*
X137160000Y-94488000D02*
X138176000Y-93472000D01*
X129286000Y-81238500D02*
X129286000Y-84582000D01*
X129286000Y-128990500D02*
X129581500Y-128990500D01*
X128016000Y-91882000D02*
X128270000Y-92136000D01*
X131064000Y-127508000D02*
X131064000Y-118618000D01*
X130302000Y-95250000D02*
X137160000Y-95250000D01*
X129581500Y-128990500D02*
X131064000Y-127508000D01*
X137160000Y-95250000D02*
X137160000Y-94488000D01*
X129286000Y-84582000D02*
X128016000Y-85852000D01*
%TO.N,/5V*%
X135128000Y-120142000D02*
X135128000Y-128228500D01*
X134366000Y-81238500D02*
X134366000Y-91311000D01*
X131826000Y-116840000D02*
X135128000Y-120142000D01*
X135128000Y-128228500D02*
X134366000Y-128990500D01*
X131826000Y-114488000D02*
X131826000Y-116840000D01*
%TD*%
M02*
