%TF.GenerationSoftware,KiCad,Pcbnew,10.0.3-2.fc44*%
%TF.CreationDate,2026-06-16T18:17:13+05:30*%
%TF.ProjectId,Breadboard power supply,42726561-6462-46f6-9172-6420706f7765,rev?*%
%TF.SameCoordinates,Original*%
%TF.FileFunction,Copper,L2,Bot*%
%TF.FilePolarity,Positive*%
%FSLAX46Y46*%
G04 Gerber Fmt 4.6, Leading zero omitted, Abs format (unit mm)*
G04 Created by KiCad (PCBNEW 10.0.3-2.fc44) date 2026-06-16 18:17:13*
%MOMM*%
%LPD*%
G01*
G04 APERTURE LIST*
G04 Aperture macros list*
%AMRoundRect*
0 Rectangle with rounded corners*
0 $1 Rounding radius*
0 $2 $3 $4 $5 $6 $7 $8 $9 X,Y pos of 4 corners*
0 Add a 4 corners polygon primitive as box body*
4,1,4,$2,$3,$4,$5,$6,$7,$8,$9,$2,$3,0*
0 Add four circle primitives for the rounded corners*
1,1,$1+$1,$2,$3*
1,1,$1+$1,$4,$5*
1,1,$1+$1,$6,$7*
1,1,$1+$1,$8,$9*
0 Add four rect primitives between the rounded corners*
20,1,$1+$1,$2,$3,$4,$5,0*
20,1,$1+$1,$4,$5,$6,$7,0*
20,1,$1+$1,$6,$7,$8,$9,0*
20,1,$1+$1,$8,$9,$2,$3,0*%
G04 Aperture macros list end*
%TA.AperFunction,ComponentPad*%
%ADD10R,1.900000X1.900000*%
%TD*%
%TA.AperFunction,ComponentPad*%
%ADD11C,1.900000*%
%TD*%
%TA.AperFunction,ComponentPad*%
%ADD12RoundRect,0.250001X-1.149999X-1.149999X1.149999X-1.149999X1.149999X1.149999X-1.149999X1.149999X0*%
%TD*%
%TA.AperFunction,ComponentPad*%
%ADD13C,2.800000*%
%TD*%
%TA.AperFunction,ComponentPad*%
%ADD14R,1.700000X1.700000*%
%TD*%
%TA.AperFunction,ComponentPad*%
%ADD15C,1.700000*%
%TD*%
%TA.AperFunction,ComponentPad*%
%ADD16C,1.400000*%
%TD*%
%TA.AperFunction,ComponentPad*%
%ADD17R,3.500000X3.500000*%
%TD*%
%TA.AperFunction,ComponentPad*%
%ADD18RoundRect,0.750000X-0.750000X-1.000000X0.750000X-1.000000X0.750000X1.000000X-0.750000X1.000000X0*%
%TD*%
%TA.AperFunction,ComponentPad*%
%ADD19RoundRect,0.875000X-0.875000X-0.875000X0.875000X-0.875000X0.875000X0.875000X-0.875000X0.875000X0*%
%TD*%
%TA.AperFunction,ComponentPad*%
%ADD20R,1.905000X2.000000*%
%TD*%
%TA.AperFunction,ComponentPad*%
%ADD21O,1.905000X2.000000*%
%TD*%
%TA.AperFunction,ComponentPad*%
%ADD22R,1.800000X1.800000*%
%TD*%
%TA.AperFunction,ComponentPad*%
%ADD23C,1.800000*%
%TD*%
%TA.AperFunction,ComponentPad*%
%ADD24C,1.600000*%
%TD*%
%TA.AperFunction,ViaPad*%
%ADD25C,0.600000*%
%TD*%
%TA.AperFunction,ViaPad*%
%ADD26C,0.800000*%
%TD*%
%TA.AperFunction,Conductor*%
%ADD27C,0.200000*%
%TD*%
%TA.AperFunction,Conductor*%
%ADD28C,0.350000*%
%TD*%
G04 APERTURE END LIST*
D10*
%TO.P,S1,1,~_1*%
%TO.N,/12V*%
X144620000Y-93726000D03*
D11*
%TO.P,S1,2,~_2*%
%TO.N,/Power_input*%
X142120000Y-93726000D03*
%TO.P,S1,3,~_3*%
%TO.N,unconnected-(S1-~-Pad3)*%
X139620000Y-93726000D03*
%TD*%
D12*
%TO.P,J5,1,Pin_1_1*%
%TO.N,GND*%
X140244000Y-83968500D03*
D13*
%TO.P,J5,2,Pin_2_2*%
%TO.N,/Power_output*%
X145244000Y-83968500D03*
%TD*%
D14*
%TO.P,J2,1,Pin_1_1*%
%TO.N,GND*%
X152400000Y-126492000D03*
D15*
%TO.P,J2,2,Pin_2_2*%
%TO.N,/Power_output*%
X152400000Y-129032000D03*
%TD*%
D12*
%TO.P,J7,1,Pin_1_1*%
%TO.N,GND*%
X140244000Y-126205500D03*
D13*
%TO.P,J7,2,Pin_2_2*%
%TO.N,/Power_output*%
X145244000Y-126205500D03*
%TD*%
D16*
%TO.P,R2,1*%
%TO.N,Net-(D1-A)*%
X138938000Y-99314000D03*
%TO.P,R2,2*%
%TO.N,/12V*%
X146558000Y-99314000D03*
%TD*%
%TO.P,R3,1*%
%TO.N,GND*%
X146558000Y-116078000D03*
%TO.P,R3,2*%
%TO.N,Net-(U2-ADJ)*%
X138938000Y-116078000D03*
%TD*%
D17*
%TO.P,J6,1*%
%TO.N,/Power_input*%
X136556000Y-103182500D03*
D18*
%TO.P,J6,2*%
%TO.N,GND*%
X130556000Y-103182500D03*
D19*
%TO.P,J6,3*%
X133556000Y-107882500D03*
%TD*%
D20*
%TO.P,U2,1,ADJ_1*%
%TO.N,Net-(U2-ADJ)*%
X125730000Y-92136000D03*
D21*
%TO.P,U2,2,VO_2*%
%TO.N,/3.3v*%
X128270000Y-92136000D03*
%TO.P,U2,3,VI_3*%
%TO.N,/12V*%
X130810000Y-92136000D03*
%TD*%
D16*
%TO.P,R1,1*%
%TO.N,Net-(U2-ADJ)*%
X139212000Y-111506000D03*
%TO.P,R1,2*%
%TO.N,/3.3v*%
X146832000Y-111506000D03*
%TD*%
D22*
%TO.P,D1,1,K_1*%
%TO.N,GND*%
X144526000Y-106177000D03*
D23*
%TO.P,D1,2,A_2*%
%TO.N,Net-(D1-A)*%
X144526000Y-103637000D03*
%TD*%
D14*
%TO.P,J1,1,Pin_1_1*%
%TO.N,GND*%
X152400000Y-81280000D03*
D15*
%TO.P,J1,2,Pin_2_2*%
%TO.N,/Power_output*%
X152400000Y-83820000D03*
%TD*%
D14*
%TO.P,J3,1,Pin_1_1*%
%TO.N,/3.3v*%
X129286000Y-81238500D03*
D15*
%TO.P,J3,2,Pin_2_2*%
%TO.N,/Power_output*%
X131826000Y-81238500D03*
%TO.P,J3,3,Pin_3_3*%
%TO.N,/5V*%
X134366000Y-81238500D03*
%TD*%
D24*
%TO.P,C3,1*%
%TO.N,/3.3v*%
X128016000Y-85852000D03*
%TO.P,C3,2*%
%TO.N,GND*%
X125516000Y-85852000D03*
%TD*%
D14*
%TO.P,J4,1,Pin_1_1*%
%TO.N,/3.3v*%
X129286000Y-128990500D03*
D15*
%TO.P,J4,2,Pin_2_2*%
%TO.N,/Power_output*%
X131826000Y-128990500D03*
%TO.P,J4,3,Pin_3_3*%
%TO.N,/5V*%
X134366000Y-128990500D03*
%TD*%
D20*
%TO.P,U1,1,VI_1*%
%TO.N,/12V*%
X126746000Y-114488000D03*
D21*
%TO.P,U1,2,GND_2*%
%TO.N,GND*%
X129286000Y-114488000D03*
%TO.P,U1,3,VO_3*%
%TO.N,/5V*%
X131826000Y-114488000D03*
%TD*%
D24*
%TO.P,C2,1*%
%TO.N,/5V*%
X135128000Y-120142000D03*
%TO.P,C2,2*%
%TO.N,GND*%
X132628000Y-120142000D03*
%TD*%
%TO.P,C1,1*%
%TO.N,/12V*%
X127020000Y-120142000D03*
%TO.P,C1,2*%
%TO.N,GND*%
X129520000Y-120142000D03*
%TD*%
D25*
%TO.N,Net-(U2-ADJ)*%
X125730000Y-106680000D03*
D26*
%TO.N,/3.3v*%
X131064000Y-118618000D03*
X129781136Y-94729136D03*
X138176000Y-92961000D03*
%TO.N,/5V*%
X134366000Y-91311000D03*
%TD*%
%TO.N,GND*%
D27*
X129286000Y-114488000D02*
X129286000Y-119908000D01*
X133556000Y-107882500D02*
X133556000Y-106182500D01*
X129286000Y-119908000D02*
X129520000Y-120142000D01*
%TO.N,Net-(U2-ADJ)*%
X129540000Y-110490000D02*
X138196000Y-110490000D01*
X138196000Y-110490000D02*
X139212000Y-111506000D01*
X125730000Y-106680000D02*
X129540000Y-110490000D01*
%TO.N,/3.3v*%
D28*
X131064000Y-118618000D02*
X133350000Y-118618000D01*
X144130000Y-90486000D02*
X147683000Y-94039000D01*
X147683000Y-94039000D02*
X147683000Y-110655000D01*
X138176000Y-92961000D02*
X138176000Y-92202000D01*
X128270000Y-93218000D02*
X129781136Y-94729136D01*
X139892000Y-90486000D02*
X144130000Y-90486000D01*
X139172000Y-112796000D02*
X145542000Y-112796000D01*
X128270000Y-92136000D02*
X128270000Y-93218000D01*
X138176000Y-92202000D02*
X139892000Y-90486000D01*
X145542000Y-112796000D02*
X146832000Y-111506000D01*
X133350000Y-118618000D02*
X139172000Y-112796000D01*
X147683000Y-110655000D02*
X146832000Y-111506000D01*
%TO.N,/5V*%
X131826000Y-113792000D02*
X131826000Y-114488000D01*
X125005000Y-106980305D02*
X125429695Y-107405000D01*
X125439000Y-107405000D02*
X131826000Y-113792000D01*
X134366000Y-91311000D02*
X125005000Y-100672000D01*
X125005000Y-100672000D02*
X125005000Y-106980305D01*
X125429695Y-107405000D02*
X125439000Y-107405000D01*
%TD*%
%TA.AperFunction,Conductor*%
%TO.N,GND*%
G36*
X153676921Y-79495280D02*
G01*
X153685352Y-79496230D01*
X153770830Y-79505861D01*
X153797891Y-79512037D01*
X153880480Y-79540937D01*
X153905490Y-79552980D01*
X153979580Y-79599534D01*
X154001289Y-79616847D01*
X154063152Y-79678710D01*
X154080465Y-79700419D01*
X154127017Y-79774506D01*
X154139061Y-79799515D01*
X154167962Y-79882108D01*
X154174139Y-79909173D01*
X154184720Y-80003075D01*
X154185500Y-80016960D01*
X154185500Y-85083037D01*
X154184720Y-85096921D01*
X154174139Y-85190826D01*
X154167960Y-85217897D01*
X154139064Y-85300476D01*
X154127017Y-85325493D01*
X154080465Y-85399580D01*
X154063152Y-85421289D01*
X154001289Y-85483152D01*
X153979580Y-85500465D01*
X153905493Y-85547017D01*
X153880476Y-85559064D01*
X153797897Y-85587960D01*
X153770826Y-85594139D01*
X153676922Y-85604720D01*
X153663038Y-85605500D01*
X149925891Y-85605500D01*
X149859999Y-85605500D01*
X149751537Y-85605500D01*
X149731857Y-85608329D01*
X149536825Y-85636370D01*
X149536815Y-85636373D01*
X149328684Y-85697487D01*
X149131362Y-85787600D01*
X149131357Y-85787602D01*
X148948874Y-85904878D01*
X148784933Y-86046933D01*
X148642878Y-86210874D01*
X148525602Y-86393357D01*
X148525600Y-86393362D01*
X148435487Y-86590684D01*
X148374373Y-86798815D01*
X148374370Y-86798825D01*
X148343500Y-87013538D01*
X148343500Y-93444836D01*
X148323815Y-93511875D01*
X148271011Y-93557630D01*
X148201853Y-93567574D01*
X148138297Y-93538549D01*
X148131821Y-93532520D01*
X148128064Y-93528763D01*
X148113606Y-93514305D01*
X146347551Y-91748250D01*
X144560609Y-89961307D01*
X144560605Y-89961304D01*
X144449975Y-89887383D01*
X144449965Y-89887378D01*
X144327036Y-89836459D01*
X144327028Y-89836457D01*
X144196535Y-89810500D01*
X144196531Y-89810500D01*
X139825469Y-89810500D01*
X139825467Y-89810500D01*
X139694969Y-89836458D01*
X139694959Y-89836461D01*
X139572038Y-89887376D01*
X139572020Y-89887386D01*
X139461398Y-89961301D01*
X139461390Y-89961307D01*
X137651307Y-91771390D01*
X137651304Y-91771394D01*
X137577383Y-91882024D01*
X137577378Y-91882034D01*
X137526459Y-92004963D01*
X137526457Y-92004971D01*
X137500500Y-92135464D01*
X137500500Y-92313484D01*
X137480815Y-92380523D01*
X137479602Y-92382375D01*
X137377990Y-92534446D01*
X137377983Y-92534459D01*
X137310106Y-92698332D01*
X137310103Y-92698341D01*
X137275500Y-92872304D01*
X137275500Y-93049695D01*
X137310103Y-93223658D01*
X137310106Y-93223667D01*
X137377983Y-93387540D01*
X137377990Y-93387553D01*
X137476535Y-93535034D01*
X137476538Y-93535038D01*
X137601961Y-93660461D01*
X137601965Y-93660464D01*
X137749446Y-93759009D01*
X137749459Y-93759016D01*
X137833007Y-93793622D01*
X137913334Y-93826894D01*
X137913336Y-93826894D01*
X137913341Y-93826896D01*
X138090901Y-93862215D01*
X138152812Y-93894600D01*
X138187386Y-93955316D01*
X138189183Y-93964434D01*
X138205216Y-94065660D01*
X138275769Y-94282799D01*
X138379421Y-94486228D01*
X138513621Y-94670937D01*
X138675063Y-94832379D01*
X138859772Y-94966579D01*
X138909277Y-94991803D01*
X139063196Y-95070229D01*
X139063198Y-95070229D01*
X139063201Y-95070231D01*
X139179592Y-95108049D01*
X139280339Y-95140784D01*
X139505838Y-95176500D01*
X139505843Y-95176500D01*
X139734162Y-95176500D01*
X139959660Y-95140784D01*
X140176799Y-95070231D01*
X140380228Y-94966579D01*
X140564937Y-94832379D01*
X140726379Y-94670937D01*
X140769683Y-94611333D01*
X140825012Y-94568670D01*
X140894626Y-94562691D01*
X140956421Y-94595297D01*
X140970313Y-94611329D01*
X141013621Y-94670937D01*
X141175063Y-94832379D01*
X141359772Y-94966579D01*
X141409277Y-94991803D01*
X141563196Y-95070229D01*
X141563198Y-95070229D01*
X141563201Y-95070231D01*
X141679592Y-95108049D01*
X141780339Y-95140784D01*
X142005838Y-95176500D01*
X142005843Y-95176500D01*
X142234162Y-95176500D01*
X142459660Y-95140784D01*
X142676799Y-95070231D01*
X142880228Y-94966579D01*
X143034564Y-94854446D01*
X143100368Y-94830967D01*
X143168422Y-94846792D01*
X143217117Y-94896897D01*
X143223629Y-94911429D01*
X143226202Y-94918327D01*
X143226206Y-94918335D01*
X143312452Y-95033544D01*
X143312455Y-95033547D01*
X143427664Y-95119793D01*
X143427671Y-95119797D01*
X143562517Y-95170091D01*
X143562516Y-95170091D01*
X143569444Y-95170835D01*
X143622127Y-95176500D01*
X145617872Y-95176499D01*
X145677483Y-95170091D01*
X145812331Y-95119796D01*
X145927546Y-95033546D01*
X146013796Y-94918331D01*
X146064091Y-94783483D01*
X146070500Y-94723873D01*
X146070499Y-93681161D01*
X146090183Y-93614123D01*
X146142987Y-93568368D01*
X146212146Y-93558424D01*
X146275702Y-93587449D01*
X146282180Y-93593481D01*
X146971181Y-94282482D01*
X147004666Y-94343805D01*
X147007500Y-94370163D01*
X147007500Y-98027098D01*
X146987815Y-98094137D01*
X146935011Y-98139892D01*
X146865853Y-98149836D01*
X146845192Y-98145032D01*
X146839124Y-98143061D01*
X146839121Y-98143060D01*
X146652486Y-98113500D01*
X146652481Y-98113500D01*
X146463519Y-98113500D01*
X146463514Y-98113500D01*
X146276881Y-98143059D01*
X146097163Y-98201454D01*
X145928800Y-98287240D01*
X145841579Y-98350610D01*
X145775927Y-98398310D01*
X145775925Y-98398312D01*
X145775924Y-98398312D01*
X145642312Y-98531924D01*
X145642312Y-98531925D01*
X145642310Y-98531927D01*
X145594610Y-98597579D01*
X145531240Y-98684800D01*
X145445454Y-98853163D01*
X145387059Y-99032881D01*
X145357500Y-99219513D01*
X145357500Y-99408486D01*
X145387059Y-99595118D01*
X145445454Y-99774836D01*
X145531240Y-99943199D01*
X145642310Y-100096073D01*
X145775927Y-100229690D01*
X145928801Y-100340760D01*
X145950922Y-100352031D01*
X146097163Y-100426545D01*
X146097165Y-100426545D01*
X146097168Y-100426547D01*
X146150070Y-100443736D01*
X146276881Y-100484940D01*
X146463514Y-100514500D01*
X146463519Y-100514500D01*
X146652486Y-100514500D01*
X146742963Y-100500169D01*
X146839118Y-100484940D01*
X146842143Y-100483957D01*
X146845179Y-100482971D01*
X146915020Y-100480974D01*
X146974854Y-100517053D01*
X147005683Y-100579753D01*
X147007500Y-100600901D01*
X147007500Y-110181500D01*
X146987815Y-110248539D01*
X146935011Y-110294294D01*
X146883500Y-110305500D01*
X146737514Y-110305500D01*
X146550881Y-110335059D01*
X146371163Y-110393454D01*
X146202800Y-110479240D01*
X146115579Y-110542610D01*
X146049927Y-110590310D01*
X146049925Y-110590312D01*
X146049924Y-110590312D01*
X145916312Y-110723924D01*
X145916312Y-110723925D01*
X145916310Y-110723927D01*
X145868610Y-110789579D01*
X145805240Y-110876800D01*
X145719454Y-111045163D01*
X145661059Y-111224881D01*
X145631500Y-111411513D01*
X145631500Y-111600486D01*
X145642223Y-111668187D01*
X145633269Y-111737480D01*
X145607431Y-111775266D01*
X145298516Y-112084182D01*
X145237195Y-112117666D01*
X145210837Y-112120500D01*
X140445288Y-112120500D01*
X140378249Y-112100815D01*
X140332494Y-112048011D01*
X140322550Y-111978853D01*
X140327354Y-111958190D01*
X140382940Y-111787118D01*
X140401777Y-111668187D01*
X140412500Y-111600486D01*
X140412500Y-111411513D01*
X140382940Y-111224881D01*
X140324545Y-111045163D01*
X140238759Y-110876800D01*
X140220767Y-110852036D01*
X140127690Y-110723927D01*
X139994073Y-110590310D01*
X139841199Y-110479240D01*
X139672836Y-110393454D01*
X139493118Y-110335059D01*
X139306486Y-110305500D01*
X139306481Y-110305500D01*
X139117519Y-110305500D01*
X139117514Y-110305500D01*
X138958247Y-110330725D01*
X138888953Y-110321770D01*
X138851168Y-110295933D01*
X138683590Y-110128355D01*
X138683588Y-110128352D01*
X138679236Y-110124000D01*
X140925413Y-110124000D01*
X141057680Y-110306047D01*
X141060466Y-110310045D01*
X141076834Y-110334543D01*
X141079458Y-110338642D01*
X141099940Y-110372066D01*
X141102401Y-110376264D01*
X141116792Y-110401960D01*
X141119088Y-110406257D01*
X141222676Y-110609562D01*
X141224801Y-110613944D01*
X141237144Y-110640719D01*
X141239099Y-110645187D01*
X141254097Y-110681403D01*
X141255869Y-110685933D01*
X141266053Y-110713541D01*
X141267647Y-110718136D01*
X141338155Y-110935132D01*
X141339570Y-110939796D01*
X141347573Y-110968176D01*
X141348803Y-110972894D01*
X141357951Y-111011013D01*
X141358993Y-111015763D01*
X141364733Y-111044625D01*
X141365588Y-111049413D01*
X141377164Y-111122500D01*
X141626000Y-111122500D01*
X142624000Y-111122500D01*
X144126000Y-111122500D01*
X144126000Y-110124000D01*
X142624000Y-110124000D01*
X142624000Y-111122500D01*
X141626000Y-111122500D01*
X141626000Y-110124000D01*
X140925413Y-110124000D01*
X138679236Y-110124000D01*
X138564717Y-110009481D01*
X138564716Y-110009480D01*
X138477904Y-109959360D01*
X138477904Y-109959359D01*
X138477900Y-109959358D01*
X138427785Y-109930423D01*
X138275057Y-109889499D01*
X138116943Y-109889499D01*
X138109347Y-109889499D01*
X138109331Y-109889500D01*
X135413878Y-109889500D01*
X135458927Y-109851518D01*
X135429026Y-109817011D01*
X135419082Y-109747853D01*
X135447018Y-109685571D01*
X135557660Y-109554341D01*
X135676120Y-109352475D01*
X135758762Y-109133487D01*
X135803205Y-108903691D01*
X135803205Y-108903690D01*
X135803853Y-108891500D01*
X137624000Y-108891500D01*
X138085983Y-108891500D01*
X138086015Y-108891499D01*
X138307742Y-108891499D01*
X138315854Y-108891765D01*
X138364864Y-108894978D01*
X138372941Y-108895773D01*
X138437741Y-108904306D01*
X138445743Y-108905628D01*
X138493895Y-108915206D01*
X138501798Y-108917048D01*
X138717659Y-108974889D01*
X138725423Y-108977244D01*
X138771928Y-108993030D01*
X138779526Y-108995890D01*
X138839913Y-109020905D01*
X138847301Y-109024253D01*
X138881585Y-109041160D01*
X138881391Y-109041552D01*
X138891386Y-109045693D01*
X138898451Y-109049772D01*
X138898496Y-109049796D01*
X138976913Y-109095071D01*
X138976915Y-109095073D01*
X139030482Y-109126000D01*
X139126000Y-109126000D01*
X140124000Y-109126000D01*
X141626000Y-109126000D01*
X142624000Y-109126000D01*
X144126000Y-109126000D01*
X144126000Y-108575000D01*
X145124000Y-108575000D01*
X145124000Y-109126000D01*
X146009500Y-109126000D01*
X146009500Y-108458172D01*
X145852904Y-108516579D01*
X145845564Y-108519058D01*
X145800695Y-108532668D01*
X145793212Y-108534685D01*
X145732501Y-108549028D01*
X145724916Y-108550572D01*
X145678738Y-108558478D01*
X145671069Y-108559545D01*
X145567217Y-108570711D01*
X145563905Y-108571023D01*
X145543856Y-108572636D01*
X145540542Y-108572858D01*
X145513855Y-108574287D01*
X145510539Y-108574420D01*
X145490491Y-108574956D01*
X145487177Y-108575000D01*
X145124000Y-108575000D01*
X144126000Y-108575000D01*
X143564823Y-108575000D01*
X143561509Y-108574956D01*
X143541461Y-108574420D01*
X143538145Y-108574287D01*
X143511458Y-108572858D01*
X143508144Y-108572636D01*
X143488095Y-108571023D01*
X143484783Y-108570711D01*
X143380931Y-108559545D01*
X143373262Y-108558478D01*
X143327084Y-108550572D01*
X143319499Y-108549028D01*
X143258788Y-108534685D01*
X143251305Y-108532668D01*
X143206436Y-108519058D01*
X143199096Y-108516579D01*
X143001739Y-108442970D01*
X142993559Y-108439581D01*
X142944823Y-108417323D01*
X142936909Y-108413362D01*
X142874319Y-108379185D01*
X142866705Y-108374667D01*
X142821638Y-108345703D01*
X142814368Y-108340655D01*
X142642184Y-108211757D01*
X142635293Y-108206204D01*
X142624000Y-108196418D01*
X142624000Y-109126000D01*
X141626000Y-109126000D01*
X141626000Y-107624000D01*
X140124000Y-107624000D01*
X140124000Y-109126000D01*
X139126000Y-109126000D01*
X139126000Y-107624000D01*
X137624000Y-107624000D01*
X137624000Y-108891500D01*
X135803853Y-108891500D01*
X135805998Y-108851117D01*
X135806000Y-108851078D01*
X135806000Y-108132500D01*
X134989012Y-108132500D01*
X135021925Y-108075493D01*
X135056000Y-107948326D01*
X135056000Y-107816674D01*
X135021925Y-107689507D01*
X134989012Y-107632500D01*
X135805999Y-107632500D01*
X135805999Y-106913923D01*
X135805998Y-106913911D01*
X135803205Y-106861308D01*
X135758762Y-106631512D01*
X135683092Y-106430999D01*
X137624000Y-106430999D01*
X137624000Y-106626000D01*
X139126000Y-106626000D01*
X140124000Y-106626000D01*
X141626000Y-106626000D01*
X141626000Y-105124000D01*
X140124000Y-105124000D01*
X140124000Y-106626000D01*
X139126000Y-106626000D01*
X139126000Y-106190514D01*
X139117874Y-106196598D01*
X139110604Y-106201646D01*
X139065537Y-106230610D01*
X139057923Y-106235128D01*
X138995333Y-106269305D01*
X138987419Y-106273267D01*
X138938682Y-106295525D01*
X138930502Y-106298913D01*
X138733018Y-106372569D01*
X138725679Y-106375048D01*
X138680828Y-106388653D01*
X138673352Y-106390668D01*
X138612637Y-106405016D01*
X138605045Y-106406561D01*
X138558840Y-106414472D01*
X138551167Y-106415541D01*
X138447244Y-106426712D01*
X138443939Y-106427022D01*
X138423899Y-106428635D01*
X138420578Y-106428858D01*
X138393895Y-106430286D01*
X138390582Y-106430419D01*
X138370534Y-106430955D01*
X138367220Y-106430999D01*
X137624000Y-106430999D01*
X135683092Y-106430999D01*
X135676120Y-106412524D01*
X135557660Y-106210658D01*
X135557655Y-106210651D01*
X135406788Y-106031713D01*
X135406786Y-106031711D01*
X135227848Y-105880844D01*
X135227841Y-105880839D01*
X135025975Y-105762379D01*
X134806984Y-105679736D01*
X134801840Y-105678741D01*
X134739760Y-105646680D01*
X134704869Y-105586146D01*
X134707382Y-105534175D01*
X134686695Y-105530174D01*
X134678007Y-105570118D01*
X134628603Y-105619524D01*
X134562598Y-105634518D01*
X134524625Y-105632501D01*
X134524579Y-105632500D01*
X133806000Y-105632500D01*
X133806000Y-107382500D01*
X133306000Y-107382500D01*
X133306000Y-105632500D01*
X132587423Y-105632500D01*
X132587411Y-105632501D01*
X132534808Y-105635294D01*
X132305012Y-105679737D01*
X132086024Y-105762379D01*
X131884158Y-105880839D01*
X131884151Y-105880844D01*
X131705213Y-106031711D01*
X131705211Y-106031713D01*
X131554344Y-106210651D01*
X131554339Y-106210658D01*
X131435879Y-106412524D01*
X131353237Y-106631512D01*
X131308794Y-106861308D01*
X131308794Y-106861309D01*
X131306001Y-106913882D01*
X131306000Y-106913921D01*
X131306000Y-107632500D01*
X132122988Y-107632500D01*
X132090075Y-107689507D01*
X132056000Y-107816674D01*
X132056000Y-107948326D01*
X132090075Y-108075493D01*
X132122988Y-108132500D01*
X131306001Y-108132500D01*
X131306001Y-108851088D01*
X131308794Y-108903691D01*
X131353237Y-109133487D01*
X131435879Y-109352475D01*
X131554339Y-109554341D01*
X131664982Y-109685571D01*
X131693145Y-109749513D01*
X131682268Y-109818531D01*
X131652971Y-109851432D01*
X131698122Y-109889500D01*
X129840098Y-109889500D01*
X129773059Y-109869815D01*
X129752417Y-109853181D01*
X128712616Y-108813380D01*
X130124000Y-108813380D01*
X130202120Y-108891500D01*
X130308752Y-108891500D01*
X130308657Y-108889105D01*
X130308044Y-108865931D01*
X130308001Y-108862652D01*
X130308001Y-107931954D01*
X130317440Y-107884501D01*
X130318268Y-107882501D01*
X130317439Y-107880499D01*
X130308000Y-107833046D01*
X130308000Y-107624000D01*
X130124000Y-107624000D01*
X130124000Y-108813380D01*
X128712616Y-108813380D01*
X126564573Y-106665337D01*
X126531088Y-106604014D01*
X126530637Y-106601847D01*
X126499738Y-106446510D01*
X126499737Y-106446503D01*
X126486912Y-106415541D01*
X126444597Y-106313380D01*
X127624000Y-106313380D01*
X127936620Y-106626000D01*
X129126000Y-106626000D01*
X129126000Y-106329422D01*
X129125906Y-106329399D01*
X129120541Y-106327918D01*
X129088286Y-106318232D01*
X129082992Y-106316512D01*
X129040702Y-106301713D01*
X129035494Y-106299758D01*
X129004258Y-106287228D01*
X128999142Y-106285041D01*
X128753494Y-106173462D01*
X128748478Y-106171047D01*
X128718483Y-106155763D01*
X128713587Y-106153128D01*
X128674621Y-106131019D01*
X128669842Y-106128164D01*
X128641337Y-106110253D01*
X128636693Y-106107187D01*
X128414901Y-105953530D01*
X128410397Y-105950258D01*
X128383595Y-105929850D01*
X128379241Y-105926377D01*
X128344850Y-105897662D01*
X128340661Y-105894003D01*
X128315827Y-105871302D01*
X128311809Y-105867459D01*
X128121041Y-105676691D01*
X128117198Y-105672673D01*
X128094497Y-105647839D01*
X128090838Y-105643650D01*
X128062123Y-105609259D01*
X128058650Y-105604905D01*
X128038242Y-105578103D01*
X128034970Y-105573599D01*
X127881313Y-105351807D01*
X127878247Y-105347163D01*
X127860336Y-105318658D01*
X127857481Y-105313879D01*
X127835372Y-105274913D01*
X127832737Y-105270017D01*
X127817453Y-105240022D01*
X127815038Y-105235006D01*
X127764617Y-105124000D01*
X127624000Y-105124000D01*
X127624000Y-106313380D01*
X126444597Y-106313380D01*
X126439397Y-106300827D01*
X126439390Y-106300814D01*
X126351789Y-106169711D01*
X126351786Y-106169707D01*
X126240292Y-106058213D01*
X126240288Y-106058210D01*
X126109185Y-105970609D01*
X126109172Y-105970602D01*
X125963501Y-105910264D01*
X125963489Y-105910261D01*
X125808845Y-105879500D01*
X125808842Y-105879500D01*
X125804500Y-105879500D01*
X125737461Y-105859815D01*
X125691706Y-105807011D01*
X125680500Y-105755500D01*
X125680500Y-102118303D01*
X128556000Y-102118303D01*
X128556000Y-102932500D01*
X130056000Y-102932500D01*
X130056000Y-103432500D01*
X128556001Y-103432500D01*
X128556001Y-104246697D01*
X128566400Y-104378832D01*
X128621377Y-104597019D01*
X128714428Y-104801874D01*
X128714431Y-104801880D01*
X128842559Y-104986823D01*
X128842569Y-104986835D01*
X129001664Y-105145930D01*
X129001676Y-105145940D01*
X129186619Y-105274068D01*
X129186625Y-105274071D01*
X129391480Y-105367122D01*
X129609667Y-105422099D01*
X129741810Y-105432499D01*
X130305999Y-105432499D01*
X130306000Y-105432498D01*
X130306000Y-104615512D01*
X130363007Y-104648425D01*
X130490174Y-104682500D01*
X130621826Y-104682500D01*
X130748993Y-104648425D01*
X130806000Y-104615512D01*
X130806000Y-105432499D01*
X131370182Y-105432499D01*
X131370197Y-105432498D01*
X131502332Y-105422099D01*
X131720519Y-105367122D01*
X131925374Y-105274071D01*
X131925380Y-105274068D01*
X132110323Y-105145940D01*
X132110335Y-105145930D01*
X132269430Y-104986835D01*
X132269440Y-104986823D01*
X132397568Y-104801880D01*
X132397571Y-104801874D01*
X132490622Y-104597019D01*
X132545599Y-104378832D01*
X132555999Y-104246696D01*
X132556000Y-104246684D01*
X132556000Y-103432500D01*
X131056000Y-103432500D01*
X131056000Y-102932500D01*
X132555999Y-102932500D01*
X132555999Y-102118317D01*
X132555998Y-102118302D01*
X132545599Y-101986167D01*
X132490622Y-101767980D01*
X132397571Y-101563125D01*
X132397568Y-101563119D01*
X132273915Y-101384635D01*
X134305500Y-101384635D01*
X134305500Y-104980370D01*
X134305501Y-104980376D01*
X134311908Y-105039983D01*
X134362202Y-105174828D01*
X134362206Y-105174835D01*
X134423341Y-105256500D01*
X134448454Y-105290046D01*
X134563669Y-105376296D01*
X134698517Y-105426591D01*
X134758127Y-105433000D01*
X138353872Y-105432999D01*
X138413483Y-105426591D01*
X138548331Y-105376296D01*
X138663546Y-105290046D01*
X138749796Y-105174831D01*
X138800091Y-105039983D01*
X138806500Y-104980373D01*
X138806500Y-104126000D01*
X140124000Y-104126000D01*
X141626000Y-104126000D01*
X141626000Y-103526778D01*
X143125500Y-103526778D01*
X143125500Y-103747221D01*
X143159985Y-103964952D01*
X143228103Y-104174603D01*
X143228104Y-104174606D01*
X143328187Y-104371025D01*
X143376327Y-104437284D01*
X143457758Y-104549365D01*
X143562376Y-104653983D01*
X143539196Y-104656475D01*
X143541801Y-104661246D01*
X143536817Y-104730938D01*
X143494945Y-104786871D01*
X143463969Y-104803785D01*
X143383918Y-104833643D01*
X143383906Y-104833649D01*
X143268812Y-104919809D01*
X143268809Y-104919812D01*
X143182649Y-105034906D01*
X143182645Y-105034913D01*
X143132403Y-105169620D01*
X143132401Y-105169627D01*
X143126000Y-105229155D01*
X143126000Y-105927000D01*
X144150722Y-105927000D01*
X144106667Y-106003306D01*
X144076000Y-106117756D01*
X144076000Y-106236244D01*
X144106667Y-106350694D01*
X144150722Y-106427000D01*
X143126000Y-106427000D01*
X143126000Y-107124844D01*
X143132401Y-107184372D01*
X143132403Y-107184379D01*
X143182645Y-107319086D01*
X143182649Y-107319093D01*
X143268809Y-107434187D01*
X143268812Y-107434190D01*
X143383906Y-107520350D01*
X143383913Y-107520354D01*
X143518620Y-107570596D01*
X143518627Y-107570598D01*
X143578155Y-107576999D01*
X143578172Y-107577000D01*
X144276000Y-107577000D01*
X144276000Y-106552277D01*
X144352306Y-106596333D01*
X144466756Y-106627000D01*
X144585244Y-106627000D01*
X144699694Y-106596333D01*
X144776000Y-106552277D01*
X144776000Y-107577000D01*
X145473828Y-107577000D01*
X145473844Y-107576999D01*
X145533372Y-107570598D01*
X145533379Y-107570596D01*
X145668086Y-107520354D01*
X145668093Y-107520350D01*
X145783187Y-107434190D01*
X145783190Y-107434187D01*
X145869350Y-107319093D01*
X145869354Y-107319086D01*
X145919596Y-107184379D01*
X145919598Y-107184372D01*
X145925999Y-107124844D01*
X145926000Y-107124827D01*
X145926000Y-106427000D01*
X144901278Y-106427000D01*
X144945333Y-106350694D01*
X144976000Y-106236244D01*
X144976000Y-106117756D01*
X144945333Y-106003306D01*
X144901278Y-105927000D01*
X145926000Y-105927000D01*
X145926000Y-105229172D01*
X145925999Y-105229155D01*
X145919598Y-105169627D01*
X145919596Y-105169620D01*
X145869354Y-105034913D01*
X145869350Y-105034906D01*
X145783190Y-104919812D01*
X145783187Y-104919809D01*
X145668093Y-104833649D01*
X145668087Y-104833646D01*
X145588030Y-104803786D01*
X145532097Y-104761914D01*
X145507680Y-104696450D01*
X145516294Y-104656850D01*
X145489623Y-104653983D01*
X145594242Y-104549365D01*
X145723815Y-104371022D01*
X145823895Y-104174606D01*
X145892015Y-103964951D01*
X145926500Y-103747222D01*
X145926500Y-103526778D01*
X145892015Y-103309049D01*
X145823895Y-103099394D01*
X145823895Y-103099393D01*
X145738857Y-102932500D01*
X145723815Y-102902978D01*
X145707260Y-102880192D01*
X145594247Y-102724641D01*
X145594243Y-102724636D01*
X145438363Y-102568756D01*
X145438358Y-102568752D01*
X145260025Y-102439187D01*
X145260024Y-102439186D01*
X145260022Y-102439185D01*
X145197096Y-102407122D01*
X145063606Y-102339104D01*
X145063603Y-102339103D01*
X144853952Y-102270985D01*
X144745086Y-102253742D01*
X144636222Y-102236500D01*
X144415778Y-102236500D01*
X144343201Y-102247995D01*
X144198047Y-102270985D01*
X143988396Y-102339103D01*
X143988393Y-102339104D01*
X143791974Y-102439187D01*
X143613641Y-102568752D01*
X143613636Y-102568756D01*
X143457756Y-102724636D01*
X143457752Y-102724641D01*
X143328187Y-102902974D01*
X143228104Y-103099393D01*
X143228103Y-103099396D01*
X143159985Y-103309047D01*
X143125500Y-103526778D01*
X141626000Y-103526778D01*
X141626000Y-102624000D01*
X140124000Y-102624000D01*
X140124000Y-104126000D01*
X138806500Y-104126000D01*
X138806499Y-101384628D01*
X138800091Y-101325017D01*
X138786410Y-101288337D01*
X138749797Y-101190171D01*
X138749793Y-101190164D01*
X138734037Y-101169117D01*
X140124000Y-101169117D01*
X140124000Y-101626000D01*
X141626000Y-101626000D01*
X142624000Y-101626000D01*
X143213333Y-101626000D01*
X143221229Y-101620263D01*
X143225223Y-101617479D01*
X143249718Y-101601112D01*
X143253819Y-101598487D01*
X143287241Y-101578006D01*
X143291445Y-101575542D01*
X143317140Y-101561153D01*
X143321431Y-101558859D01*
X143552775Y-101440982D01*
X143557155Y-101438858D01*
X143583913Y-101426522D01*
X143588378Y-101424569D01*
X143624596Y-101409568D01*
X143629127Y-101407794D01*
X143656759Y-101397600D01*
X143661361Y-101396005D01*
X143908304Y-101315770D01*
X143912964Y-101314356D01*
X143928002Y-101310115D01*
X145124000Y-101310115D01*
X145139036Y-101314356D01*
X145143696Y-101315770D01*
X145390639Y-101396005D01*
X145395241Y-101397600D01*
X145422873Y-101407794D01*
X145427404Y-101409568D01*
X145463622Y-101424569D01*
X145468087Y-101426522D01*
X145494845Y-101438858D01*
X145499225Y-101440982D01*
X145730569Y-101558859D01*
X145734860Y-101561153D01*
X145760555Y-101575542D01*
X145764759Y-101578006D01*
X145798181Y-101598487D01*
X145802282Y-101601112D01*
X145826777Y-101617479D01*
X145830771Y-101620263D01*
X145838667Y-101626000D01*
X146009500Y-101626000D01*
X146009500Y-101446562D01*
X145991796Y-101441570D01*
X145987132Y-101440155D01*
X145770136Y-101369647D01*
X145765541Y-101368053D01*
X145737933Y-101357869D01*
X145733403Y-101356097D01*
X145697187Y-101341099D01*
X145692719Y-101339144D01*
X145665944Y-101326801D01*
X145661562Y-101324676D01*
X145458257Y-101221088D01*
X145453960Y-101218792D01*
X145428264Y-101204401D01*
X145424066Y-101201940D01*
X145390642Y-101181458D01*
X145386543Y-101178834D01*
X145362045Y-101162466D01*
X145358047Y-101159680D01*
X145173456Y-101025565D01*
X145169573Y-101022625D01*
X145146440Y-101004388D01*
X145142677Y-101001300D01*
X145124000Y-100985348D01*
X145124000Y-101310115D01*
X143928002Y-101310115D01*
X143941331Y-101306356D01*
X143946046Y-101305126D01*
X143984162Y-101295977D01*
X143988917Y-101294934D01*
X144017789Y-101289192D01*
X144022578Y-101288337D01*
X144126000Y-101271956D01*
X144126000Y-100124000D01*
X142624000Y-100124000D01*
X142624000Y-101626000D01*
X141626000Y-101626000D01*
X141626000Y-100124000D01*
X140985583Y-100124000D01*
X140981869Y-100134067D01*
X140980097Y-100138597D01*
X140965099Y-100174813D01*
X140963144Y-100179281D01*
X140950801Y-100206056D01*
X140948676Y-100210438D01*
X140845088Y-100413743D01*
X140842792Y-100418040D01*
X140828401Y-100443736D01*
X140825940Y-100447934D01*
X140805458Y-100481358D01*
X140802834Y-100485457D01*
X140786466Y-100509955D01*
X140783680Y-100513953D01*
X140649565Y-100698544D01*
X140646625Y-100702427D01*
X140628388Y-100725560D01*
X140625300Y-100729323D01*
X140599842Y-100759130D01*
X140596607Y-100762770D01*
X140576614Y-100784398D01*
X140573240Y-100787907D01*
X140411907Y-100949240D01*
X140408398Y-100952614D01*
X140386770Y-100972607D01*
X140383130Y-100975842D01*
X140353323Y-101001300D01*
X140349560Y-101004388D01*
X140326427Y-101022625D01*
X140322544Y-101025565D01*
X140137953Y-101159680D01*
X140133955Y-101162466D01*
X140124000Y-101169117D01*
X138734037Y-101169117D01*
X138663547Y-101074955D01*
X138663544Y-101074952D01*
X138548335Y-100988706D01*
X138548328Y-100988702D01*
X138413482Y-100938408D01*
X138413483Y-100938408D01*
X138353883Y-100932001D01*
X138353881Y-100932000D01*
X138353873Y-100932000D01*
X138353864Y-100932000D01*
X134758129Y-100932000D01*
X134758123Y-100932001D01*
X134698516Y-100938408D01*
X134563671Y-100988702D01*
X134563664Y-100988706D01*
X134448455Y-101074952D01*
X134448452Y-101074955D01*
X134362206Y-101190164D01*
X134362202Y-101190171D01*
X134311908Y-101325017D01*
X134305916Y-101380758D01*
X134305501Y-101384623D01*
X134305500Y-101384635D01*
X132273915Y-101384635D01*
X132269440Y-101378176D01*
X132269430Y-101378164D01*
X132110335Y-101219069D01*
X132110323Y-101219059D01*
X131925380Y-101090931D01*
X131925374Y-101090928D01*
X131720519Y-100997877D01*
X131502332Y-100942900D01*
X131370196Y-100932500D01*
X130806000Y-100932500D01*
X130806000Y-101749488D01*
X130748993Y-101716575D01*
X130621826Y-101682500D01*
X130490174Y-101682500D01*
X130363007Y-101716575D01*
X130306000Y-101749488D01*
X130306000Y-100932500D01*
X129741817Y-100932500D01*
X129741802Y-100932501D01*
X129609667Y-100942900D01*
X129391480Y-100997877D01*
X129186625Y-101090928D01*
X129186619Y-101090931D01*
X129001676Y-101219059D01*
X129001664Y-101219069D01*
X128842569Y-101378164D01*
X128842559Y-101378176D01*
X128714431Y-101563119D01*
X128714428Y-101563125D01*
X128621377Y-101767980D01*
X128566400Y-101986167D01*
X128556000Y-102118303D01*
X125680500Y-102118303D01*
X125680500Y-101003163D01*
X125700185Y-100936124D01*
X125716819Y-100915482D01*
X126212618Y-100419683D01*
X127624000Y-100419683D01*
X127624000Y-101626000D01*
X127627959Y-101626000D01*
X127659102Y-101502406D01*
X127660582Y-101497041D01*
X127670268Y-101464786D01*
X127671988Y-101459492D01*
X127686787Y-101417202D01*
X127688742Y-101411994D01*
X127701272Y-101380758D01*
X127703459Y-101375642D01*
X127815038Y-101129994D01*
X127817453Y-101124978D01*
X127832737Y-101094983D01*
X127835372Y-101090087D01*
X127857481Y-101051121D01*
X127860336Y-101046342D01*
X127878247Y-101017837D01*
X127881313Y-101013193D01*
X128034970Y-100791401D01*
X128038242Y-100786897D01*
X128058650Y-100760095D01*
X128062123Y-100755741D01*
X128090838Y-100721350D01*
X128094497Y-100717161D01*
X128117198Y-100692327D01*
X128121041Y-100688309D01*
X128311809Y-100497541D01*
X128315827Y-100493698D01*
X128340661Y-100470997D01*
X128344850Y-100467338D01*
X128379241Y-100438623D01*
X128383595Y-100435150D01*
X128410397Y-100414742D01*
X128414901Y-100411470D01*
X128488002Y-100360826D01*
X132624000Y-100360826D01*
X132697099Y-100411470D01*
X132701603Y-100414742D01*
X132728405Y-100435150D01*
X132732759Y-100438623D01*
X132767150Y-100467338D01*
X132771339Y-100470997D01*
X132796173Y-100493698D01*
X132800191Y-100497541D01*
X132990959Y-100688309D01*
X132994802Y-100692327D01*
X133017503Y-100717161D01*
X133021162Y-100721350D01*
X133049877Y-100755741D01*
X133053350Y-100760095D01*
X133073758Y-100786897D01*
X133077030Y-100791401D01*
X133230687Y-101013193D01*
X133233753Y-101017837D01*
X133251664Y-101046342D01*
X133254519Y-101051121D01*
X133276628Y-101090087D01*
X133279263Y-101094983D01*
X133294547Y-101124978D01*
X133296962Y-101129994D01*
X133322971Y-101187255D01*
X133324029Y-101179657D01*
X133331936Y-101133471D01*
X133333481Y-101125881D01*
X133347826Y-101065170D01*
X133349842Y-101057691D01*
X133363450Y-101012828D01*
X133365929Y-101005488D01*
X133439587Y-100807998D01*
X133442975Y-100799818D01*
X133465233Y-100751081D01*
X133469195Y-100743167D01*
X133503372Y-100680577D01*
X133507890Y-100672963D01*
X133536854Y-100627896D01*
X133541902Y-100620626D01*
X133670886Y-100448327D01*
X133676439Y-100441436D01*
X133711519Y-100400951D01*
X133717551Y-100394472D01*
X133767972Y-100344051D01*
X133774451Y-100338019D01*
X133814936Y-100302939D01*
X133821827Y-100297386D01*
X133994126Y-100168402D01*
X134001396Y-100163354D01*
X134046463Y-100134390D01*
X134054077Y-100129872D01*
X134064831Y-100124000D01*
X132624000Y-100124000D01*
X132624000Y-100360826D01*
X128488002Y-100360826D01*
X128636693Y-100257813D01*
X128641337Y-100254747D01*
X128669842Y-100236836D01*
X128674621Y-100233981D01*
X128713587Y-100211872D01*
X128718483Y-100209237D01*
X128748478Y-100193953D01*
X128753494Y-100191538D01*
X128902183Y-100124000D01*
X127919684Y-100124000D01*
X127624000Y-100419683D01*
X126212618Y-100419683D01*
X127412788Y-99219513D01*
X137737500Y-99219513D01*
X137737500Y-99408486D01*
X137767059Y-99595118D01*
X137825454Y-99774836D01*
X137911240Y-99943199D01*
X138022310Y-100096073D01*
X138155927Y-100229690D01*
X138308801Y-100340760D01*
X138330922Y-100352031D01*
X138477163Y-100426545D01*
X138477165Y-100426545D01*
X138477168Y-100426547D01*
X138530070Y-100443736D01*
X138656881Y-100484940D01*
X138843514Y-100514500D01*
X138843519Y-100514500D01*
X139032486Y-100514500D01*
X139219118Y-100484940D01*
X139249799Y-100474971D01*
X139398832Y-100426547D01*
X139567199Y-100340760D01*
X139720073Y-100229690D01*
X139853690Y-100096073D01*
X139964760Y-99943199D01*
X140050547Y-99774832D01*
X140108940Y-99595118D01*
X140138500Y-99408486D01*
X140138500Y-99219513D01*
X140108940Y-99032881D01*
X140081846Y-98949497D01*
X140050547Y-98853168D01*
X140050545Y-98853165D01*
X140050545Y-98853163D01*
X139964759Y-98684800D01*
X139853690Y-98531927D01*
X139720073Y-98398310D01*
X139567199Y-98287240D01*
X139398836Y-98201454D01*
X139219118Y-98143059D01*
X139032486Y-98113500D01*
X139032481Y-98113500D01*
X138843519Y-98113500D01*
X138843514Y-98113500D01*
X138656881Y-98143059D01*
X138477163Y-98201454D01*
X138308800Y-98287240D01*
X138221579Y-98350610D01*
X138155927Y-98398310D01*
X138155925Y-98398312D01*
X138155924Y-98398312D01*
X138022312Y-98531924D01*
X138022312Y-98531925D01*
X138022310Y-98531927D01*
X137974610Y-98597579D01*
X137911240Y-98684800D01*
X137825454Y-98853163D01*
X137767059Y-99032881D01*
X137737500Y-99219513D01*
X127412788Y-99219513D01*
X128712618Y-97919683D01*
X130124000Y-97919683D01*
X130124000Y-99126000D01*
X131626000Y-99126000D01*
X132624000Y-99126000D01*
X134126000Y-99126000D01*
X135124000Y-99126000D01*
X136626000Y-99126000D01*
X136626000Y-97624000D01*
X140350033Y-97624000D01*
X140353323Y-97626700D01*
X140383130Y-97652158D01*
X140386770Y-97655393D01*
X140408398Y-97675386D01*
X140411907Y-97678760D01*
X140573240Y-97840093D01*
X140576614Y-97843602D01*
X140596607Y-97865230D01*
X140599842Y-97868870D01*
X140625300Y-97898677D01*
X140628388Y-97902440D01*
X140646625Y-97925573D01*
X140649565Y-97929456D01*
X140783680Y-98114047D01*
X140786466Y-98118045D01*
X140802834Y-98142543D01*
X140805458Y-98146642D01*
X140825940Y-98180066D01*
X140828401Y-98184264D01*
X140842792Y-98209960D01*
X140845088Y-98214257D01*
X140948676Y-98417562D01*
X140950801Y-98421944D01*
X140963144Y-98448719D01*
X140965099Y-98453187D01*
X140980097Y-98489403D01*
X140981869Y-98493933D01*
X140992053Y-98521541D01*
X140993647Y-98526136D01*
X141064155Y-98743132D01*
X141065570Y-98747796D01*
X141073573Y-98776176D01*
X141074803Y-98780894D01*
X141083951Y-98819013D01*
X141084993Y-98823763D01*
X141090733Y-98852625D01*
X141091588Y-98857414D01*
X141127281Y-99082765D01*
X141127949Y-99087595D01*
X141131412Y-99116867D01*
X141131889Y-99121711D01*
X141132226Y-99126000D01*
X141626000Y-99126000D01*
X142624000Y-99126000D01*
X144126000Y-99126000D01*
X144126000Y-97624000D01*
X142624000Y-97624000D01*
X142624000Y-99126000D01*
X141626000Y-99126000D01*
X141626000Y-97624000D01*
X140350033Y-97624000D01*
X136626000Y-97624000D01*
X135124000Y-97624000D01*
X135124000Y-99126000D01*
X134126000Y-99126000D01*
X134126000Y-97624000D01*
X132624000Y-97624000D01*
X132624000Y-99126000D01*
X131626000Y-99126000D01*
X131626000Y-97624000D01*
X130419684Y-97624000D01*
X130124000Y-97919683D01*
X128712618Y-97919683D01*
X130006301Y-96626000D01*
X131212618Y-95419683D01*
X132624000Y-95419683D01*
X132624000Y-96626000D01*
X134126000Y-96626000D01*
X135124000Y-96626000D01*
X136626000Y-96626000D01*
X137624000Y-96626000D01*
X139126000Y-96626000D01*
X139126000Y-96126778D01*
X139115998Y-96125194D01*
X140124000Y-96125194D01*
X140124000Y-96626000D01*
X141626000Y-96626000D01*
X141626000Y-96126778D01*
X141615998Y-96125194D01*
X142624000Y-96125194D01*
X142624000Y-96626000D01*
X144126000Y-96626000D01*
X144126000Y-96174499D01*
X145124000Y-96174499D01*
X145124000Y-96626000D01*
X146009500Y-96626000D01*
X146009500Y-96111413D01*
X145997018Y-96116069D01*
X145989679Y-96118548D01*
X145944828Y-96132153D01*
X145937352Y-96134168D01*
X145876637Y-96148516D01*
X145869045Y-96150061D01*
X145822840Y-96157972D01*
X145815167Y-96159041D01*
X145711244Y-96170212D01*
X145707939Y-96170522D01*
X145687899Y-96172135D01*
X145684578Y-96172358D01*
X145657895Y-96173786D01*
X145654582Y-96173919D01*
X145634534Y-96174455D01*
X145631220Y-96174499D01*
X145124000Y-96174499D01*
X144126000Y-96174499D01*
X143608752Y-96174500D01*
X143605428Y-96174455D01*
X143585326Y-96173916D01*
X143582006Y-96173783D01*
X143555320Y-96172351D01*
X143552011Y-96172129D01*
X143532018Y-96170519D01*
X143528715Y-96170208D01*
X143424825Y-96159038D01*
X143417157Y-96157971D01*
X143370971Y-96150064D01*
X143363381Y-96148519D01*
X143302670Y-96134174D01*
X143295191Y-96132158D01*
X143250328Y-96118550D01*
X143242988Y-96116071D01*
X143045498Y-96042413D01*
X143037318Y-96039025D01*
X142990524Y-96017654D01*
X142749409Y-96095999D01*
X142744746Y-96097413D01*
X142716367Y-96105416D01*
X142711648Y-96106647D01*
X142673529Y-96115795D01*
X142668779Y-96116837D01*
X142639917Y-96122577D01*
X142635128Y-96123432D01*
X142624000Y-96125194D01*
X141615998Y-96125194D01*
X141604872Y-96123432D01*
X141600083Y-96122577D01*
X141571221Y-96116837D01*
X141566471Y-96115795D01*
X141528352Y-96106647D01*
X141523633Y-96105416D01*
X141495254Y-96097413D01*
X141490591Y-96095999D01*
X141236170Y-96013331D01*
X141231576Y-96011738D01*
X141203967Y-96001554D01*
X141199436Y-95999781D01*
X141163220Y-95984783D01*
X141158752Y-95982828D01*
X141131977Y-95970485D01*
X141127595Y-95968360D01*
X140889228Y-95846907D01*
X140884931Y-95844611D01*
X140870000Y-95836248D01*
X140855069Y-95844611D01*
X140850772Y-95846907D01*
X140612405Y-95968360D01*
X140608023Y-95970485D01*
X140581248Y-95982828D01*
X140576780Y-95984783D01*
X140540564Y-95999781D01*
X140536033Y-96001554D01*
X140508424Y-96011738D01*
X140503830Y-96013331D01*
X140249409Y-96095999D01*
X140244746Y-96097413D01*
X140216367Y-96105416D01*
X140211648Y-96106647D01*
X140173529Y-96115795D01*
X140168779Y-96116837D01*
X140139917Y-96122577D01*
X140135128Y-96123432D01*
X140124000Y-96125194D01*
X139115998Y-96125194D01*
X139104872Y-96123432D01*
X139100083Y-96122577D01*
X139071221Y-96116837D01*
X139066471Y-96115795D01*
X139028352Y-96106647D01*
X139023633Y-96105416D01*
X138995254Y-96097413D01*
X138990591Y-96095999D01*
X138736170Y-96013331D01*
X138731576Y-96011738D01*
X138703967Y-96001554D01*
X138699436Y-95999781D01*
X138663220Y-95984783D01*
X138658752Y-95982828D01*
X138631977Y-95970485D01*
X138627595Y-95968360D01*
X138389228Y-95846907D01*
X138384931Y-95844611D01*
X138359235Y-95830220D01*
X138355037Y-95827759D01*
X138321613Y-95807277D01*
X138317511Y-95804651D01*
X138293013Y-95788282D01*
X138289018Y-95785498D01*
X138072592Y-95628254D01*
X138068709Y-95625314D01*
X138045576Y-95607077D01*
X138041813Y-95603989D01*
X138012006Y-95578531D01*
X138008366Y-95575296D01*
X137986738Y-95555303D01*
X137983229Y-95551929D01*
X137794071Y-95362771D01*
X137790697Y-95359262D01*
X137770704Y-95337634D01*
X137767469Y-95333994D01*
X137742011Y-95304187D01*
X137738923Y-95300424D01*
X137720686Y-95277291D01*
X137717746Y-95273408D01*
X137624000Y-95144378D01*
X137624000Y-96626000D01*
X136626000Y-96626000D01*
X136626000Y-95124000D01*
X135124000Y-95124000D01*
X135124000Y-96626000D01*
X134126000Y-96626000D01*
X134126000Y-95124000D01*
X132919683Y-95124000D01*
X132624000Y-95419683D01*
X131212618Y-95419683D01*
X133580353Y-93051947D01*
X135124000Y-93051947D01*
X135124000Y-94126000D01*
X136626000Y-94126000D01*
X136626000Y-94058471D01*
X136534566Y-93921632D01*
X136531309Y-93916488D01*
X136512373Y-93884894D01*
X136509373Y-93879599D01*
X136486271Y-93836377D01*
X136483534Y-93830938D01*
X136467794Y-93797656D01*
X136465329Y-93792095D01*
X136378699Y-93582949D01*
X136376509Y-93577272D01*
X136364110Y-93542620D01*
X136362202Y-93536845D01*
X136347975Y-93489952D01*
X136346351Y-93484084D01*
X136337399Y-93448349D01*
X136336065Y-93442408D01*
X136291896Y-93220357D01*
X136290855Y-93214360D01*
X136285451Y-93177929D01*
X136284706Y-93171888D01*
X136279903Y-93123116D01*
X136279455Y-93117046D01*
X136277649Y-93080274D01*
X136277500Y-93074191D01*
X136277500Y-92847809D01*
X136277649Y-92841726D01*
X136279455Y-92804954D01*
X136279903Y-92798884D01*
X136284706Y-92750112D01*
X136285451Y-92744071D01*
X136290855Y-92707640D01*
X136291896Y-92701643D01*
X136307340Y-92624000D01*
X135737884Y-92624000D01*
X135628400Y-92733484D01*
X135623991Y-92737682D01*
X135596704Y-92762413D01*
X135592097Y-92766387D01*
X135554215Y-92797476D01*
X135549417Y-92801221D01*
X135519845Y-92823153D01*
X135514869Y-92826657D01*
X135326632Y-92952434D01*
X135321488Y-92955691D01*
X135289894Y-92974627D01*
X135284599Y-92977627D01*
X135241377Y-93000729D01*
X135235938Y-93003466D01*
X135202656Y-93019206D01*
X135197095Y-93021671D01*
X135124000Y-93051947D01*
X133580353Y-93051947D01*
X134385789Y-92246511D01*
X134447110Y-92213028D01*
X134449277Y-92212577D01*
X134628658Y-92176896D01*
X134628661Y-92176894D01*
X134628666Y-92176894D01*
X134792547Y-92109013D01*
X134940035Y-92010464D01*
X135065464Y-91885035D01*
X135164013Y-91737547D01*
X135231894Y-91573666D01*
X135232432Y-91570964D01*
X135260417Y-91430274D01*
X135266500Y-91399691D01*
X135266500Y-91222309D01*
X135266500Y-91222306D01*
X135266499Y-91222304D01*
X135231896Y-91048341D01*
X135231893Y-91048332D01*
X135164016Y-90884459D01*
X135164009Y-90884446D01*
X135065464Y-90736965D01*
X135065461Y-90736961D01*
X134940038Y-90611538D01*
X134940034Y-90611535D01*
X134792553Y-90512990D01*
X134792540Y-90512983D01*
X134628667Y-90445106D01*
X134628658Y-90445103D01*
X134454694Y-90410500D01*
X134454691Y-90410500D01*
X134277309Y-90410500D01*
X134277306Y-90410500D01*
X134103341Y-90445103D01*
X134103332Y-90445106D01*
X133939459Y-90512983D01*
X133939446Y-90512990D01*
X133791965Y-90611535D01*
X133791961Y-90611538D01*
X133666538Y-90736961D01*
X133666535Y-90736965D01*
X133567990Y-90884446D01*
X133567983Y-90884459D01*
X133500106Y-91048332D01*
X133500104Y-91048340D01*
X133464422Y-91227723D01*
X133432037Y-91289634D01*
X133430486Y-91291212D01*
X132474681Y-92247017D01*
X132413358Y-92280502D01*
X132343666Y-92275518D01*
X132287733Y-92233646D01*
X132263316Y-92168182D01*
X132263000Y-92159336D01*
X132263000Y-91974146D01*
X132227222Y-91748255D01*
X132227221Y-91748251D01*
X132227221Y-91748250D01*
X132156549Y-91530744D01*
X132105357Y-91430274D01*
X132052717Y-91326962D01*
X131918286Y-91141934D01*
X131756566Y-90980214D01*
X131571538Y-90845783D01*
X131539761Y-90829592D01*
X131367755Y-90741950D01*
X131150248Y-90671278D01*
X130964812Y-90641908D01*
X130924354Y-90635500D01*
X130695646Y-90635500D01*
X130655188Y-90641908D01*
X130469753Y-90671278D01*
X130469750Y-90671278D01*
X130252244Y-90741950D01*
X130048461Y-90845783D01*
X129982550Y-90893671D01*
X129863434Y-90980214D01*
X129863432Y-90980216D01*
X129863431Y-90980216D01*
X129701715Y-91141932D01*
X129640318Y-91226438D01*
X129584987Y-91269103D01*
X129515374Y-91275082D01*
X129453579Y-91242476D01*
X129439682Y-91226438D01*
X129414462Y-91191726D01*
X129378286Y-91141934D01*
X129216566Y-90980214D01*
X129031538Y-90845783D01*
X128999761Y-90829592D01*
X128827755Y-90741950D01*
X128610248Y-90671278D01*
X128424812Y-90641908D01*
X128384354Y-90635500D01*
X128155646Y-90635500D01*
X128115188Y-90641908D01*
X127929753Y-90671278D01*
X127929750Y-90671278D01*
X127712244Y-90741950D01*
X127508461Y-90845783D01*
X127325759Y-90978525D01*
X127259952Y-91002005D01*
X127191898Y-90986180D01*
X127143203Y-90936074D01*
X127136690Y-90921538D01*
X127126296Y-90893669D01*
X127126293Y-90893664D01*
X127040047Y-90778455D01*
X127040044Y-90778452D01*
X126924835Y-90692206D01*
X126924828Y-90692202D01*
X126789982Y-90641908D01*
X126789983Y-90641908D01*
X126730383Y-90635501D01*
X126730381Y-90635500D01*
X126730373Y-90635500D01*
X126730364Y-90635500D01*
X124729629Y-90635500D01*
X124729623Y-90635501D01*
X124670016Y-90641908D01*
X124535171Y-90692202D01*
X124535164Y-90692206D01*
X124419955Y-90778452D01*
X124419952Y-90778455D01*
X124333706Y-90893664D01*
X124333702Y-90893671D01*
X124283408Y-91028517D01*
X124277001Y-91088116D01*
X124277000Y-91088135D01*
X124277000Y-93183870D01*
X124277001Y-93183876D01*
X124283408Y-93243483D01*
X124333702Y-93378328D01*
X124333706Y-93378335D01*
X124419952Y-93493544D01*
X124419955Y-93493547D01*
X124535164Y-93579793D01*
X124535171Y-93579797D01*
X124670017Y-93630091D01*
X124670016Y-93630091D01*
X124676944Y-93630835D01*
X124729627Y-93636500D01*
X126730372Y-93636499D01*
X126789983Y-93630091D01*
X126924831Y-93579796D01*
X127040046Y-93493546D01*
X127126296Y-93378331D01*
X127136690Y-93350460D01*
X127178560Y-93294527D01*
X127244023Y-93270108D01*
X127312297Y-93284958D01*
X127325746Y-93293465D01*
X127508462Y-93426217D01*
X127551899Y-93448349D01*
X127615564Y-93480788D01*
X127666360Y-93528763D01*
X127668628Y-93532821D01*
X127671380Y-93537971D01*
X127745304Y-93648605D01*
X127745307Y-93648609D01*
X128845622Y-94748923D01*
X128879107Y-94810246D01*
X128879558Y-94812412D01*
X128915240Y-94991795D01*
X128915242Y-94991803D01*
X128983119Y-95155676D01*
X128983126Y-95155689D01*
X129081671Y-95303170D01*
X129081674Y-95303174D01*
X129162418Y-95383918D01*
X129195903Y-95445241D01*
X129190919Y-95514933D01*
X129162418Y-95559280D01*
X124480307Y-100241390D01*
X124480304Y-100241394D01*
X124406383Y-100352024D01*
X124406378Y-100352034D01*
X124355459Y-100474963D01*
X124355457Y-100474971D01*
X124329500Y-100605464D01*
X124329500Y-107046840D01*
X124355457Y-107177333D01*
X124355459Y-107177341D01*
X124406378Y-107300270D01*
X124406383Y-107300280D01*
X124480304Y-107410910D01*
X124480307Y-107410914D01*
X124905000Y-107835606D01*
X124953895Y-107884501D01*
X124999088Y-107929694D01*
X125016977Y-107941647D01*
X125035767Y-107957068D01*
X130656662Y-113577963D01*
X130632254Y-113611558D01*
X130631471Y-113610280D01*
X130491359Y-113417433D01*
X130485031Y-113410024D01*
X130316476Y-113241469D01*
X130309067Y-113235141D01*
X130116220Y-113095029D01*
X130107912Y-113089938D01*
X129987649Y-113028661D01*
X129953140Y-113074760D01*
X129887676Y-113099177D01*
X129840512Y-113093424D01*
X129626124Y-113023765D01*
X129536000Y-113009490D01*
X129536000Y-113997252D01*
X129498292Y-113975482D01*
X129358409Y-113938000D01*
X129213591Y-113938000D01*
X129073708Y-113975482D01*
X129036000Y-113997252D01*
X129036000Y-113009490D01*
X129035999Y-113009490D01*
X128945875Y-113023765D01*
X128728431Y-113094417D01*
X128524719Y-113198213D01*
X128341939Y-113331010D01*
X128276132Y-113354490D01*
X128208079Y-113338664D01*
X128183559Y-113313433D01*
X128171913Y-113325078D01*
X128142296Y-113245669D01*
X128056046Y-113130454D01*
X128026331Y-113108209D01*
X127940835Y-113044206D01*
X127940828Y-113044202D01*
X127805982Y-112993908D01*
X127805983Y-112993908D01*
X127746383Y-112987501D01*
X127746381Y-112987500D01*
X127746373Y-112987500D01*
X127746364Y-112987500D01*
X125745629Y-112987500D01*
X125745623Y-112987501D01*
X125686016Y-112993908D01*
X125551171Y-113044202D01*
X125551164Y-113044206D01*
X125435955Y-113130452D01*
X125435952Y-113130455D01*
X125349706Y-113245664D01*
X125349702Y-113245671D01*
X125299408Y-113380517D01*
X125293001Y-113440116D01*
X125293000Y-113440135D01*
X125293000Y-115535870D01*
X125293001Y-115535876D01*
X125299408Y-115595483D01*
X125349702Y-115730328D01*
X125349706Y-115730335D01*
X125435952Y-115845544D01*
X125435955Y-115845547D01*
X125551164Y-115931793D01*
X125551171Y-115931797D01*
X125686017Y-115982091D01*
X125686016Y-115982091D01*
X125692944Y-115982835D01*
X125745627Y-115988500D01*
X127746372Y-115988499D01*
X127805983Y-115982091D01*
X127940831Y-115931796D01*
X128056046Y-115845546D01*
X128142296Y-115730331D01*
X128171913Y-115650920D01*
X128182879Y-115661886D01*
X128194740Y-115646041D01*
X128260204Y-115621622D01*
X128328477Y-115636472D01*
X128341940Y-115644988D01*
X128524723Y-115777788D01*
X128728429Y-115881582D01*
X128945871Y-115952234D01*
X129036000Y-115966509D01*
X129036000Y-114978747D01*
X129073708Y-115000518D01*
X129213591Y-115038000D01*
X129358409Y-115038000D01*
X129498292Y-115000518D01*
X129536000Y-114978747D01*
X129536000Y-115966508D01*
X129626128Y-115952234D01*
X129843570Y-115881582D01*
X130047276Y-115777788D01*
X130232242Y-115643402D01*
X130393905Y-115481739D01*
X130455371Y-115397137D01*
X130510701Y-115354470D01*
X130580314Y-115348491D01*
X130626343Y-115372777D01*
X130631471Y-115365720D01*
X130632254Y-115364441D01*
X130717714Y-115482066D01*
X130879434Y-115643786D01*
X131064462Y-115778217D01*
X131208475Y-115851595D01*
X131268244Y-115882049D01*
X131485751Y-115952721D01*
X131485752Y-115952721D01*
X131485755Y-115952722D01*
X131711646Y-115988500D01*
X131711647Y-115988500D01*
X131940353Y-115988500D01*
X131940354Y-115988500D01*
X132166245Y-115952722D01*
X132166248Y-115952721D01*
X132166249Y-115952721D01*
X132383755Y-115882049D01*
X132383755Y-115882048D01*
X132383758Y-115882048D01*
X132587538Y-115778217D01*
X132772566Y-115643786D01*
X132934286Y-115482066D01*
X133068717Y-115297038D01*
X133172548Y-115093258D01*
X133185034Y-115054830D01*
X133243221Y-114875749D01*
X133243221Y-114875748D01*
X133243222Y-114875745D01*
X133279000Y-114649854D01*
X133279000Y-114326146D01*
X133247300Y-114126000D01*
X135124000Y-114126000D01*
X135475313Y-114126000D01*
X136626000Y-112975312D01*
X136626000Y-112624000D01*
X135124000Y-112624000D01*
X135124000Y-114126000D01*
X133247300Y-114126000D01*
X133243222Y-114100255D01*
X133243221Y-114100251D01*
X133243221Y-114100250D01*
X133172549Y-113882744D01*
X133068716Y-113678961D01*
X133033172Y-113630039D01*
X132934286Y-113493934D01*
X132772566Y-113332214D01*
X132587538Y-113197783D01*
X132541307Y-113174227D01*
X132383755Y-113093950D01*
X132166248Y-113023278D01*
X132023452Y-113000661D01*
X131960318Y-112970731D01*
X131955170Y-112965869D01*
X131613301Y-112624000D01*
X133475736Y-112624000D01*
X133653836Y-112802100D01*
X133657210Y-112805609D01*
X133677203Y-112827237D01*
X133680438Y-112830877D01*
X133705896Y-112860684D01*
X133708984Y-112864447D01*
X133727222Y-112887581D01*
X133730162Y-112891464D01*
X133887637Y-113108209D01*
X133890422Y-113112205D01*
X133906790Y-113136702D01*
X133909415Y-113140803D01*
X133929897Y-113174227D01*
X133932359Y-113178428D01*
X133946749Y-113204124D01*
X133949044Y-113208417D01*
X134070669Y-113447119D01*
X134072793Y-113451498D01*
X134085122Y-113478240D01*
X134087073Y-113482701D01*
X134102075Y-113518917D01*
X134103850Y-113523451D01*
X134114049Y-113551095D01*
X134115645Y-113555698D01*
X134126000Y-113587567D01*
X134126000Y-112624000D01*
X133475736Y-112624000D01*
X131613301Y-112624000D01*
X130291482Y-111302181D01*
X130257997Y-111240858D01*
X130262981Y-111171166D01*
X130304853Y-111115233D01*
X130370317Y-111090816D01*
X130379163Y-111090500D01*
X137895903Y-111090500D01*
X137962942Y-111110185D01*
X137983584Y-111126819D01*
X138001933Y-111145168D01*
X138035418Y-111206491D01*
X138036725Y-111252247D01*
X138011500Y-111411513D01*
X138011500Y-111600486D01*
X138041059Y-111787118D01*
X138099454Y-111966836D01*
X138185240Y-112135199D01*
X138296310Y-112288073D01*
X138296312Y-112288075D01*
X138422786Y-112414549D01*
X138456271Y-112475872D01*
X138451287Y-112545564D01*
X138422786Y-112589911D01*
X133106518Y-117906181D01*
X133045195Y-117939666D01*
X133018837Y-117942500D01*
X131711515Y-117942500D01*
X131644476Y-117922815D01*
X131642624Y-117921602D01*
X131490553Y-117819990D01*
X131490540Y-117819983D01*
X131326667Y-117752106D01*
X131326658Y-117752103D01*
X131152694Y-117717500D01*
X131152691Y-117717500D01*
X130975309Y-117717500D01*
X130975306Y-117717500D01*
X130801341Y-117752103D01*
X130801332Y-117752106D01*
X130637459Y-117819983D01*
X130637446Y-117819990D01*
X130489965Y-117918535D01*
X130489961Y-117918538D01*
X130364538Y-118043961D01*
X130364535Y-118043965D01*
X130265990Y-118191446D01*
X130265983Y-118191459D01*
X130198106Y-118355332D01*
X130198103Y-118355341D01*
X130163500Y-118529304D01*
X130163500Y-118529309D01*
X130163500Y-118706691D01*
X130198106Y-118880666D01*
X130205010Y-118897335D01*
X130168925Y-118878949D01*
X130133044Y-118925140D01*
X130067154Y-118948385D01*
X130022602Y-118940985D01*
X130022122Y-118942463D01*
X129823475Y-118877918D01*
X129621996Y-118846007D01*
X129418004Y-118846007D01*
X129216524Y-118877918D01*
X129022509Y-118940958D01*
X128840748Y-119033570D01*
X128796947Y-119065392D01*
X128796947Y-119065393D01*
X129473554Y-119742000D01*
X129467339Y-119742000D01*
X129365606Y-119769259D01*
X129274394Y-119821920D01*
X129199920Y-119896394D01*
X129147259Y-119987606D01*
X129120000Y-120089339D01*
X129120000Y-120095554D01*
X128443393Y-119418947D01*
X128443392Y-119418947D01*
X128411568Y-119462751D01*
X128383013Y-119518793D01*
X128335038Y-119569589D01*
X128267217Y-119586383D01*
X128217959Y-119569596D01*
X128206260Y-119592558D01*
X128203287Y-119599735D01*
X128132287Y-119460390D01*
X128046455Y-119342251D01*
X128011971Y-119294786D01*
X127867213Y-119150028D01*
X127701613Y-119029715D01*
X127701612Y-119029714D01*
X127701610Y-119029713D01*
X127644653Y-119000691D01*
X127519223Y-118936781D01*
X127324534Y-118873522D01*
X127149995Y-118845878D01*
X127122352Y-118841500D01*
X126917648Y-118841500D01*
X126893329Y-118845351D01*
X126715465Y-118873522D01*
X126520776Y-118936781D01*
X126338386Y-119029715D01*
X126172786Y-119150028D01*
X126028028Y-119294786D01*
X125907715Y-119460386D01*
X125814781Y-119642776D01*
X125751522Y-119837465D01*
X125722704Y-120019418D01*
X125719500Y-120039648D01*
X125719500Y-120244352D01*
X125720688Y-120251851D01*
X125751522Y-120446534D01*
X125814781Y-120641223D01*
X125854999Y-120720153D01*
X125906508Y-120821246D01*
X125907715Y-120823613D01*
X126028028Y-120989213D01*
X126172786Y-121133971D01*
X126327749Y-121246556D01*
X126338390Y-121254287D01*
X126454607Y-121313503D01*
X126520776Y-121347218D01*
X126520778Y-121347218D01*
X126520781Y-121347220D01*
X126625137Y-121381127D01*
X126715465Y-121410477D01*
X126816557Y-121426488D01*
X126917648Y-121442500D01*
X126917649Y-121442500D01*
X127122351Y-121442500D01*
X127122352Y-121442500D01*
X127324534Y-121410477D01*
X127519219Y-121347220D01*
X127701610Y-121254287D01*
X127794590Y-121186732D01*
X127867213Y-121133971D01*
X127867215Y-121133968D01*
X127867219Y-121133966D01*
X128011966Y-120989219D01*
X128011968Y-120989215D01*
X128011971Y-120989213D01*
X128024340Y-120972186D01*
X128132287Y-120823610D01*
X128203287Y-120684264D01*
X128206260Y-120691442D01*
X128217073Y-120712664D01*
X128277838Y-120697616D01*
X128343974Y-120720153D01*
X128383014Y-120765207D01*
X128411567Y-120821246D01*
X128443393Y-120865051D01*
X129120000Y-120188445D01*
X129120000Y-120194661D01*
X129147259Y-120296394D01*
X129199920Y-120387606D01*
X129274394Y-120462080D01*
X129365606Y-120514741D01*
X129467339Y-120542000D01*
X129473553Y-120542000D01*
X128796946Y-121218605D01*
X128796947Y-121218606D01*
X128840747Y-121250429D01*
X129022509Y-121343041D01*
X129216524Y-121406081D01*
X129418004Y-121437993D01*
X129621996Y-121437993D01*
X129823475Y-121406081D01*
X130017490Y-121343041D01*
X130199240Y-121250435D01*
X130199253Y-121250427D01*
X130243051Y-121218606D01*
X130243052Y-121218604D01*
X129566448Y-120542000D01*
X129572661Y-120542000D01*
X129674394Y-120514741D01*
X129765606Y-120462080D01*
X129840080Y-120387606D01*
X129892741Y-120296394D01*
X129920000Y-120194661D01*
X129920000Y-120188446D01*
X130596605Y-120865052D01*
X130596606Y-120865051D01*
X130628427Y-120821253D01*
X130628435Y-120821240D01*
X130721041Y-120639490D01*
X130784081Y-120445475D01*
X130815993Y-120243996D01*
X130815993Y-120040003D01*
X130784081Y-119838526D01*
X130725077Y-119656932D01*
X130723082Y-119587091D01*
X130759162Y-119527258D01*
X130792192Y-119511017D01*
X130772230Y-119471838D01*
X130801334Y-119483894D01*
X130975309Y-119518500D01*
X131152691Y-119518500D01*
X131326666Y-119483894D01*
X131381118Y-119461339D01*
X131359060Y-119504631D01*
X131406949Y-119541833D01*
X131430194Y-119607723D01*
X131424303Y-119652678D01*
X131363918Y-119838523D01*
X131363918Y-119838524D01*
X131332007Y-120040003D01*
X131332007Y-120243996D01*
X131363918Y-120445475D01*
X131426958Y-120639490D01*
X131519567Y-120821246D01*
X131551393Y-120865051D01*
X132228000Y-120188444D01*
X132228000Y-120194661D01*
X132255259Y-120296394D01*
X132307920Y-120387606D01*
X132382394Y-120462080D01*
X132473606Y-120514741D01*
X132575339Y-120542000D01*
X132581553Y-120542000D01*
X131904946Y-121218605D01*
X131904947Y-121218606D01*
X131948747Y-121250429D01*
X132130509Y-121343041D01*
X132324524Y-121406081D01*
X132526004Y-121437993D01*
X132729996Y-121437993D01*
X132931475Y-121406081D01*
X133125490Y-121343041D01*
X133307240Y-121250435D01*
X133307253Y-121250427D01*
X133351051Y-121218606D01*
X133351052Y-121218604D01*
X132674448Y-120542000D01*
X132680661Y-120542000D01*
X132782394Y-120514741D01*
X132873606Y-120462080D01*
X132948080Y-120387606D01*
X133000741Y-120296394D01*
X133028000Y-120194661D01*
X133028000Y-120188447D01*
X133704605Y-120865052D01*
X133704606Y-120865051D01*
X133736427Y-120821253D01*
X133736435Y-120821241D01*
X133764984Y-120765209D01*
X133812958Y-120714412D01*
X133880779Y-120697616D01*
X133930041Y-120714402D01*
X133941740Y-120691442D01*
X133944712Y-120684264D01*
X134015713Y-120823610D01*
X134101543Y-120941746D01*
X134101543Y-120941747D01*
X134136028Y-120989213D01*
X134280786Y-121133971D01*
X134435749Y-121246556D01*
X134446390Y-121254287D01*
X134562607Y-121313503D01*
X134628776Y-121347218D01*
X134628778Y-121347218D01*
X134628781Y-121347220D01*
X134733137Y-121381127D01*
X134823465Y-121410477D01*
X134924557Y-121426488D01*
X135025648Y-121442500D01*
X135025649Y-121442500D01*
X135230351Y-121442500D01*
X135230352Y-121442500D01*
X135432534Y-121410477D01*
X135627219Y-121347220D01*
X135809610Y-121254287D01*
X135902590Y-121186732D01*
X135975213Y-121133971D01*
X135975215Y-121133968D01*
X135975219Y-121133966D01*
X136119966Y-120989219D01*
X136119968Y-120989215D01*
X136119971Y-120989213D01*
X136195783Y-120884865D01*
X136240287Y-120823610D01*
X136333220Y-120641219D01*
X136396477Y-120446534D01*
X136428500Y-120244352D01*
X136428500Y-120039648D01*
X136416712Y-119965223D01*
X136396477Y-119837465D01*
X136337818Y-119656932D01*
X136333220Y-119642781D01*
X136333218Y-119642778D01*
X136333218Y-119642776D01*
X136274358Y-119527258D01*
X136240287Y-119460390D01*
X136210177Y-119418947D01*
X136119971Y-119294786D01*
X135975213Y-119150028D01*
X135942141Y-119126000D01*
X137624000Y-119126000D01*
X139126000Y-119126000D01*
X139126000Y-118272226D01*
X139091209Y-118274963D01*
X139086350Y-118275250D01*
X139056936Y-118276405D01*
X139052071Y-118276500D01*
X138823929Y-118276500D01*
X138819064Y-118276405D01*
X138789650Y-118275250D01*
X138784791Y-118274963D01*
X138745711Y-118271889D01*
X138740867Y-118271412D01*
X138711595Y-118267949D01*
X138706765Y-118267281D01*
X138481414Y-118231588D01*
X138476625Y-118230733D01*
X138447763Y-118224993D01*
X138443013Y-118223951D01*
X138404894Y-118214803D01*
X138400176Y-118213573D01*
X138371796Y-118205570D01*
X138367132Y-118204155D01*
X138150136Y-118133647D01*
X138145541Y-118132053D01*
X138117933Y-118121869D01*
X138113403Y-118120097D01*
X138077187Y-118105099D01*
X138072719Y-118103144D01*
X138045944Y-118090801D01*
X138041562Y-118088676D01*
X137838257Y-117985088D01*
X137833960Y-117982792D01*
X137808264Y-117968401D01*
X137804066Y-117965940D01*
X137770642Y-117945458D01*
X137766543Y-117942834D01*
X137752000Y-117933117D01*
X140124000Y-117933117D01*
X140124000Y-119126000D01*
X141626000Y-119126000D01*
X142624000Y-119126000D01*
X144126000Y-119126000D01*
X145124000Y-119126000D01*
X146626000Y-119126000D01*
X146626000Y-118272301D01*
X146444239Y-118272301D01*
X146439367Y-118272205D01*
X146409915Y-118271047D01*
X146405050Y-118270760D01*
X146365971Y-118267682D01*
X146361133Y-118267205D01*
X146331900Y-118263745D01*
X146327077Y-118263078D01*
X146102381Y-118227490D01*
X146097586Y-118226634D01*
X146068686Y-118220885D01*
X146063926Y-118219840D01*
X146025809Y-118210687D01*
X146021104Y-118209460D01*
X145992762Y-118201467D01*
X145988102Y-118200053D01*
X145771752Y-118129756D01*
X145767156Y-118128162D01*
X145739545Y-118117977D01*
X145735015Y-118116205D01*
X145698799Y-118101207D01*
X145694331Y-118099252D01*
X145667556Y-118086909D01*
X145663174Y-118084784D01*
X145460452Y-117981493D01*
X145456154Y-117979196D01*
X145430448Y-117964799D01*
X145426248Y-117962337D01*
X145392821Y-117941852D01*
X145388720Y-117939227D01*
X145364229Y-117922862D01*
X145360235Y-117920078D01*
X145140324Y-117760297D01*
X145124000Y-117741925D01*
X145124000Y-119126000D01*
X144126000Y-119126000D01*
X144126000Y-117624000D01*
X142624000Y-117624000D01*
X142624000Y-119126000D01*
X141626000Y-119126000D01*
X141626000Y-117624000D01*
X140501147Y-117624000D01*
X140411907Y-117713240D01*
X140408398Y-117716614D01*
X140386770Y-117736607D01*
X140383130Y-117739842D01*
X140353323Y-117765300D01*
X140349560Y-117768388D01*
X140326427Y-117786625D01*
X140322544Y-117789565D01*
X140137953Y-117923680D01*
X140133955Y-117926466D01*
X140124000Y-117933117D01*
X137752000Y-117933117D01*
X137742045Y-117926466D01*
X137738047Y-117923680D01*
X137624000Y-117840818D01*
X137624000Y-119126000D01*
X135942141Y-119126000D01*
X135809613Y-119029715D01*
X135809612Y-119029714D01*
X135809610Y-119029713D01*
X135752653Y-119000691D01*
X135627223Y-118936781D01*
X135432534Y-118873522D01*
X135257995Y-118845878D01*
X135230352Y-118841500D01*
X135025648Y-118841500D01*
X135001329Y-118845351D01*
X134823465Y-118873522D01*
X134628776Y-118936781D01*
X134446386Y-119029715D01*
X134280786Y-119150028D01*
X134136028Y-119294786D01*
X134101543Y-119342251D01*
X134101544Y-119342252D01*
X134015713Y-119460390D01*
X133944712Y-119599735D01*
X133941740Y-119592558D01*
X133930926Y-119571334D01*
X133870158Y-119586383D01*
X133804023Y-119563845D01*
X133764985Y-119518791D01*
X133736431Y-119462750D01*
X133670133Y-119371498D01*
X133646653Y-119305692D01*
X133662479Y-119237638D01*
X133695844Y-119201672D01*
X133694440Y-119200268D01*
X133780606Y-119142695D01*
X136939788Y-115983513D01*
X137737500Y-115983513D01*
X137737500Y-116172486D01*
X137767059Y-116359118D01*
X137825454Y-116538836D01*
X137862278Y-116611106D01*
X137911240Y-116707199D01*
X138022310Y-116860073D01*
X138155927Y-116993690D01*
X138308801Y-117104760D01*
X138388347Y-117145290D01*
X138477163Y-117190545D01*
X138477165Y-117190545D01*
X138477168Y-117190547D01*
X138573497Y-117221846D01*
X138656881Y-117248940D01*
X138843514Y-117278500D01*
X138843519Y-117278500D01*
X139032486Y-117278500D01*
X139219118Y-117248940D01*
X139231724Y-117244844D01*
X139398832Y-117190547D01*
X139567199Y-117104760D01*
X139596828Y-117083233D01*
X145906319Y-117083233D01*
X145906319Y-117083234D01*
X145931001Y-117101167D01*
X146098777Y-117186653D01*
X146277869Y-117244844D01*
X146277868Y-117244844D01*
X146463850Y-117274301D01*
X146652150Y-117274301D01*
X146838130Y-117244844D01*
X147017222Y-117186653D01*
X147185000Y-117101165D01*
X147185007Y-117101161D01*
X147209679Y-117083234D01*
X147209680Y-117083233D01*
X146558001Y-116431554D01*
X146558000Y-116431554D01*
X145906319Y-117083233D01*
X139596828Y-117083233D01*
X139720073Y-116993690D01*
X139853690Y-116860073D01*
X139964760Y-116707199D01*
X140050547Y-116538832D01*
X140108940Y-116359118D01*
X140129199Y-116231209D01*
X140138500Y-116172486D01*
X140138500Y-115983513D01*
X140108940Y-115796881D01*
X140059586Y-115644988D01*
X140050547Y-115617168D01*
X140050545Y-115617165D01*
X140050545Y-115617163D01*
X139981709Y-115482066D01*
X139964760Y-115448801D01*
X139853690Y-115295927D01*
X139720073Y-115162310D01*
X139667344Y-115124000D01*
X140919347Y-115124000D01*
X140948676Y-115181562D01*
X140950801Y-115185944D01*
X140963144Y-115212719D01*
X140965099Y-115217187D01*
X140980097Y-115253403D01*
X140981869Y-115257933D01*
X140992053Y-115285541D01*
X140993647Y-115290136D01*
X141064155Y-115507132D01*
X141065570Y-115511796D01*
X141073573Y-115540176D01*
X141074803Y-115544894D01*
X141083951Y-115583013D01*
X141084993Y-115587763D01*
X141090733Y-115616625D01*
X141091588Y-115621414D01*
X141127281Y-115846765D01*
X141127949Y-115851595D01*
X141131412Y-115880867D01*
X141131889Y-115885711D01*
X141134963Y-115924791D01*
X141135250Y-115929650D01*
X141136405Y-115959064D01*
X141136500Y-115963929D01*
X141136500Y-116192071D01*
X141136405Y-116196936D01*
X141135250Y-116226350D01*
X141134963Y-116231209D01*
X141131889Y-116270289D01*
X141131412Y-116275133D01*
X141127949Y-116304405D01*
X141127281Y-116309235D01*
X141091588Y-116534586D01*
X141090733Y-116539375D01*
X141084993Y-116568237D01*
X141083951Y-116572987D01*
X141074803Y-116611106D01*
X141073573Y-116615824D01*
X141070703Y-116626000D01*
X141626000Y-116626000D01*
X142624000Y-116626000D01*
X144126000Y-116626000D01*
X144126000Y-115983849D01*
X145361699Y-115983849D01*
X145361699Y-116172150D01*
X145391155Y-116358130D01*
X145449346Y-116537222D01*
X145534832Y-116704998D01*
X145552765Y-116729679D01*
X145552766Y-116729680D01*
X146204446Y-116078000D01*
X146158368Y-116031922D01*
X146208000Y-116031922D01*
X146208000Y-116124078D01*
X146231852Y-116213095D01*
X146277930Y-116292905D01*
X146343095Y-116358070D01*
X146422905Y-116404148D01*
X146511922Y-116428000D01*
X146604078Y-116428000D01*
X146693095Y-116404148D01*
X146772905Y-116358070D01*
X146838070Y-116292905D01*
X146884148Y-116213095D01*
X146908000Y-116124078D01*
X146908000Y-116077999D01*
X146911554Y-116077999D01*
X146911554Y-116078000D01*
X147563233Y-116729680D01*
X147563234Y-116729679D01*
X147581161Y-116705007D01*
X147581165Y-116705000D01*
X147666653Y-116537222D01*
X147724844Y-116358130D01*
X147754301Y-116172150D01*
X147754301Y-115983849D01*
X147724844Y-115797869D01*
X147666653Y-115618777D01*
X147581167Y-115451001D01*
X147563233Y-115426319D01*
X146911554Y-116077999D01*
X146908000Y-116077999D01*
X146908000Y-116031922D01*
X146884148Y-115942905D01*
X146838070Y-115863095D01*
X146772905Y-115797930D01*
X146693095Y-115751852D01*
X146604078Y-115728000D01*
X146511922Y-115728000D01*
X146422905Y-115751852D01*
X146343095Y-115797930D01*
X146277930Y-115863095D01*
X146231852Y-115942905D01*
X146208000Y-116031922D01*
X146158368Y-116031922D01*
X145552765Y-115426319D01*
X145534830Y-115451005D01*
X145449346Y-115618777D01*
X145391155Y-115797869D01*
X145361699Y-115983849D01*
X144126000Y-115983849D01*
X144126000Y-115124000D01*
X142624000Y-115124000D01*
X142624000Y-116626000D01*
X141626000Y-116626000D01*
X141626000Y-115124000D01*
X140919347Y-115124000D01*
X139667344Y-115124000D01*
X139596825Y-115072765D01*
X145906319Y-115072765D01*
X146558000Y-115724446D01*
X146558001Y-115724446D01*
X147209680Y-115072766D01*
X147209679Y-115072765D01*
X147184998Y-115054832D01*
X147017222Y-114969346D01*
X146838130Y-114911155D01*
X146838131Y-114911155D01*
X146652150Y-114881699D01*
X146463850Y-114881699D01*
X146277869Y-114911155D01*
X146098777Y-114969346D01*
X145931005Y-115054830D01*
X145906319Y-115072765D01*
X139596825Y-115072765D01*
X139567199Y-115051240D01*
X139541214Y-115038000D01*
X139398836Y-114965454D01*
X139219118Y-114907059D01*
X139032486Y-114877500D01*
X139032481Y-114877500D01*
X138843519Y-114877500D01*
X138843514Y-114877500D01*
X138656881Y-114907059D01*
X138477163Y-114965454D01*
X138308800Y-115051240D01*
X138250968Y-115093258D01*
X138155927Y-115162310D01*
X138155925Y-115162312D01*
X138155924Y-115162312D01*
X138022312Y-115295924D01*
X138022312Y-115295925D01*
X138022310Y-115295927D01*
X138021503Y-115297038D01*
X137911240Y-115448800D01*
X137825454Y-115617163D01*
X137767059Y-115796881D01*
X137737500Y-115983513D01*
X136939788Y-115983513D01*
X139415482Y-113507819D01*
X139476805Y-113474334D01*
X139503163Y-113471500D01*
X145608532Y-113471500D01*
X145608533Y-113471499D01*
X145739036Y-113445541D01*
X145861969Y-113394620D01*
X145972606Y-113320695D01*
X146562734Y-112730565D01*
X146624055Y-112697082D01*
X146669806Y-112695775D01*
X146737519Y-112706500D01*
X146737521Y-112706500D01*
X146926486Y-112706500D01*
X147113118Y-112676940D01*
X147128266Y-112672018D01*
X147292832Y-112618547D01*
X147461199Y-112532760D01*
X147614073Y-112421690D01*
X147747690Y-112288073D01*
X147858760Y-112135199D01*
X147944547Y-111966832D01*
X148002940Y-111787118D01*
X148021777Y-111668187D01*
X148032500Y-111600486D01*
X148032500Y-111411521D01*
X148032499Y-111411513D01*
X148021775Y-111343808D01*
X148030729Y-111274519D01*
X148056562Y-111236738D01*
X148131822Y-111161478D01*
X148193143Y-111127996D01*
X148262834Y-111132981D01*
X148318768Y-111174852D01*
X148343184Y-111240317D01*
X148343500Y-111249162D01*
X148343500Y-123124109D01*
X148343500Y-123190001D01*
X148343500Y-123298463D01*
X148348491Y-123333176D01*
X148374370Y-123513174D01*
X148374373Y-123513184D01*
X148402653Y-123609494D01*
X148435487Y-123721316D01*
X148477566Y-123813456D01*
X148525600Y-123918637D01*
X148525602Y-123918642D01*
X148642878Y-124101125D01*
X148784933Y-124265066D01*
X148948874Y-124407121D01*
X149089251Y-124497337D01*
X149131362Y-124524400D01*
X149328684Y-124614513D01*
X149536821Y-124675628D01*
X149536822Y-124675628D01*
X149536825Y-124675629D01*
X149594980Y-124683990D01*
X149751537Y-124706500D01*
X149794108Y-124706500D01*
X153604107Y-124706500D01*
X153663038Y-124706500D01*
X153676921Y-124707280D01*
X153685352Y-124708230D01*
X153770830Y-124717861D01*
X153797891Y-124724037D01*
X153880480Y-124752937D01*
X153905490Y-124764980D01*
X153919148Y-124773562D01*
X153979580Y-124811534D01*
X154001289Y-124828847D01*
X154063152Y-124890710D01*
X154080465Y-124912419D01*
X154127017Y-124986506D01*
X154139061Y-125011515D01*
X154167962Y-125094108D01*
X154174139Y-125121173D01*
X154184720Y-125215075D01*
X154185500Y-125228960D01*
X154185500Y-130295037D01*
X154184720Y-130308921D01*
X154174139Y-130402826D01*
X154167960Y-130429897D01*
X154139064Y-130512476D01*
X154127017Y-130537493D01*
X154080465Y-130611580D01*
X154063152Y-130633289D01*
X154001289Y-130695152D01*
X153979580Y-130712465D01*
X153905493Y-130759017D01*
X153880476Y-130771064D01*
X153797897Y-130799960D01*
X153770826Y-130806139D01*
X153676922Y-130816720D01*
X153663038Y-130817500D01*
X123450962Y-130817500D01*
X123437078Y-130816720D01*
X123343173Y-130806139D01*
X123316102Y-130799960D01*
X123233523Y-130771064D01*
X123208506Y-130759017D01*
X123134419Y-130712465D01*
X123112710Y-130695152D01*
X123050847Y-130633289D01*
X123033534Y-130611580D01*
X122986982Y-130537493D01*
X122974937Y-130512480D01*
X122946037Y-130429891D01*
X122939861Y-130402830D01*
X122929280Y-130308920D01*
X122928500Y-130295037D01*
X122928500Y-129126000D01*
X123926500Y-129126000D01*
X124126000Y-129126000D01*
X125124000Y-129126000D01*
X126626000Y-129126000D01*
X126626000Y-128092635D01*
X127935500Y-128092635D01*
X127935500Y-129888370D01*
X127935501Y-129888376D01*
X127941908Y-129947983D01*
X127992202Y-130082828D01*
X127992206Y-130082835D01*
X128078452Y-130198044D01*
X128078455Y-130198047D01*
X128193664Y-130284293D01*
X128193671Y-130284297D01*
X128328517Y-130334591D01*
X128328516Y-130334591D01*
X128335444Y-130335335D01*
X128388127Y-130341000D01*
X130183872Y-130340999D01*
X130243483Y-130334591D01*
X130378331Y-130284296D01*
X130493546Y-130198046D01*
X130579796Y-130082831D01*
X130628810Y-129951416D01*
X130670681Y-129895484D01*
X130736145Y-129871066D01*
X130804418Y-129885917D01*
X130832673Y-129907069D01*
X130946213Y-130020609D01*
X131118179Y-130145548D01*
X131118181Y-130145549D01*
X131118184Y-130145551D01*
X131307588Y-130242057D01*
X131509757Y-130307746D01*
X131719713Y-130341000D01*
X131719714Y-130341000D01*
X131932286Y-130341000D01*
X131932287Y-130341000D01*
X132142243Y-130307746D01*
X132344412Y-130242057D01*
X132533816Y-130145551D01*
X132620138Y-130082835D01*
X132705786Y-130020609D01*
X132705788Y-130020606D01*
X132705792Y-130020604D01*
X132856104Y-129870292D01*
X132856106Y-129870288D01*
X132856109Y-129870286D01*
X132981048Y-129698320D01*
X132981047Y-129698320D01*
X132981051Y-129698316D01*
X132985514Y-129689554D01*
X133033488Y-129638759D01*
X133101308Y-129621963D01*
X133167444Y-129644499D01*
X133206486Y-129689556D01*
X133210951Y-129698320D01*
X133335890Y-129870286D01*
X133486213Y-130020609D01*
X133658179Y-130145548D01*
X133658181Y-130145549D01*
X133658184Y-130145551D01*
X133847588Y-130242057D01*
X134049757Y-130307746D01*
X134259713Y-130341000D01*
X134259714Y-130341000D01*
X134472286Y-130341000D01*
X134472287Y-130341000D01*
X134682243Y-130307746D01*
X134884412Y-130242057D01*
X135073816Y-130145551D01*
X135160138Y-130082835D01*
X135245786Y-130020609D01*
X135245788Y-130020606D01*
X135245792Y-130020604D01*
X135396104Y-129870292D01*
X135396106Y-129870288D01*
X135396109Y-129870286D01*
X135521048Y-129698320D01*
X135521047Y-129698320D01*
X135521051Y-129698316D01*
X135617557Y-129508912D01*
X135683246Y-129306743D01*
X135711873Y-129126000D01*
X137624000Y-129126000D01*
X139126000Y-129126000D01*
X139126000Y-129103500D01*
X140124000Y-129103500D01*
X140124000Y-129126000D01*
X141626000Y-129126000D01*
X141626000Y-129090098D01*
X141532767Y-129099624D01*
X141529621Y-129099905D01*
X141510572Y-129101362D01*
X141507421Y-129101563D01*
X141482050Y-129102855D01*
X141478896Y-129102975D01*
X141459825Y-129103460D01*
X141456673Y-129103500D01*
X140293454Y-129103500D01*
X140246000Y-129094061D01*
X140244000Y-129093232D01*
X140242000Y-129094061D01*
X140194546Y-129103500D01*
X140124000Y-129103500D01*
X139126000Y-129103500D01*
X139031327Y-129103500D01*
X139028175Y-129103460D01*
X139009104Y-129102975D01*
X139005950Y-129102855D01*
X138980579Y-129101563D01*
X138977428Y-129101362D01*
X138958379Y-129099905D01*
X138955233Y-129099624D01*
X138812777Y-129085070D01*
X138806068Y-129084199D01*
X138765634Y-129077824D01*
X138758983Y-129076588D01*
X138705734Y-129065186D01*
X138699166Y-129063592D01*
X138659698Y-129052862D01*
X138653225Y-129050911D01*
X138433396Y-128978067D01*
X138426619Y-128975600D01*
X138386067Y-128959490D01*
X138379446Y-128956635D01*
X138326799Y-128932087D01*
X138320352Y-128928849D01*
X138281927Y-128908131D01*
X138275679Y-128904524D01*
X138077008Y-128781983D01*
X138070980Y-128778018D01*
X138035220Y-128752978D01*
X138029434Y-128748670D01*
X137983868Y-128712640D01*
X137978342Y-128708003D01*
X137945744Y-128678992D01*
X137940500Y-128674044D01*
X137864000Y-128597544D01*
X142624000Y-128597544D01*
X142624000Y-129126000D01*
X144126000Y-129126000D01*
X144126000Y-129104000D01*
X145124000Y-129104000D01*
X145124000Y-129126000D01*
X146626000Y-129126000D01*
X146626000Y-128754500D01*
X146571234Y-128786120D01*
X146567691Y-128788089D01*
X146546060Y-128799652D01*
X146542451Y-128801506D01*
X146513156Y-128815954D01*
X146509484Y-128817691D01*
X146487109Y-128827829D01*
X146483386Y-128829443D01*
X146223047Y-128937279D01*
X146219276Y-128938769D01*
X146196330Y-128947406D01*
X146192512Y-128948772D01*
X146161582Y-128959273D01*
X146157718Y-128960515D01*
X146134204Y-128967649D01*
X146130298Y-128968765D01*
X145858093Y-129041703D01*
X145854156Y-129042689D01*
X145830254Y-129048262D01*
X145826290Y-129049118D01*
X145794253Y-129055491D01*
X145790255Y-129056219D01*
X145766034Y-129060217D01*
X145762025Y-129060811D01*
X145482638Y-129097594D01*
X145478606Y-129098058D01*
X145454177Y-129100464D01*
X145450131Y-129100796D01*
X145417535Y-129102932D01*
X145413484Y-129103131D01*
X145388953Y-129103934D01*
X145384896Y-129104000D01*
X145124000Y-129104000D01*
X144126000Y-129104000D01*
X144126000Y-128879721D01*
X144004615Y-128829443D01*
X144000891Y-128827829D01*
X143978516Y-128817691D01*
X143974844Y-128815954D01*
X143945549Y-128801506D01*
X143941940Y-128799652D01*
X143920309Y-128788089D01*
X143916766Y-128786120D01*
X143672729Y-128645226D01*
X143669250Y-128643141D01*
X143648400Y-128630176D01*
X143644988Y-128627976D01*
X143617828Y-128609828D01*
X143614491Y-128607519D01*
X143594544Y-128593225D01*
X143591286Y-128590808D01*
X143367725Y-128419264D01*
X143364545Y-128416741D01*
X143345572Y-128401170D01*
X143342481Y-128398546D01*
X143317922Y-128377009D01*
X143314914Y-128374283D01*
X143296997Y-128357502D01*
X143294081Y-128354680D01*
X143094820Y-128155419D01*
X143091998Y-128152503D01*
X143075217Y-128134586D01*
X143072491Y-128131578D01*
X143050954Y-128107019D01*
X143048330Y-128103928D01*
X143032759Y-128084955D01*
X143030236Y-128081775D01*
X143004188Y-128047829D01*
X142997990Y-128063433D01*
X142995135Y-128070054D01*
X142970587Y-128122701D01*
X142967349Y-128129148D01*
X142946631Y-128167573D01*
X142943024Y-128173821D01*
X142820483Y-128372492D01*
X142816518Y-128378520D01*
X142791478Y-128414280D01*
X142787170Y-128420066D01*
X142751140Y-128465632D01*
X142746503Y-128471158D01*
X142717492Y-128503756D01*
X142712544Y-128509000D01*
X142624000Y-128597544D01*
X137864000Y-128597544D01*
X137775456Y-128509000D01*
X137770508Y-128503756D01*
X137741497Y-128471158D01*
X137736860Y-128465632D01*
X137700830Y-128420066D01*
X137696522Y-128414280D01*
X137671482Y-128378520D01*
X137667517Y-128372492D01*
X137624000Y-128301939D01*
X137624000Y-129126000D01*
X135711873Y-129126000D01*
X135716500Y-129096787D01*
X135716500Y-128884213D01*
X135683246Y-128674257D01*
X135617557Y-128472088D01*
X135521051Y-128282684D01*
X135521049Y-128282681D01*
X135521048Y-128282679D01*
X135396109Y-128110713D01*
X135245786Y-127960390D01*
X135073820Y-127835451D01*
X134884414Y-127738944D01*
X134884413Y-127738943D01*
X134884412Y-127738943D01*
X134682243Y-127673254D01*
X134682241Y-127673253D01*
X134682240Y-127673253D01*
X134520957Y-127647708D01*
X134472287Y-127640000D01*
X134259713Y-127640000D01*
X134211042Y-127647708D01*
X134049760Y-127673253D01*
X133847585Y-127738944D01*
X133658179Y-127835451D01*
X133486213Y-127960390D01*
X133335890Y-128110713D01*
X133210949Y-128282682D01*
X133206484Y-128291446D01*
X133158509Y-128342242D01*
X133090688Y-128359036D01*
X133024553Y-128336498D01*
X132985516Y-128291446D01*
X132981050Y-128282682D01*
X132856109Y-128110713D01*
X132705786Y-127960390D01*
X132533820Y-127835451D01*
X132344414Y-127738944D01*
X132344413Y-127738943D01*
X132344412Y-127738943D01*
X132142243Y-127673254D01*
X132142241Y-127673253D01*
X132142240Y-127673253D01*
X131980957Y-127647708D01*
X131932287Y-127640000D01*
X131719713Y-127640000D01*
X131671042Y-127647708D01*
X131509760Y-127673253D01*
X131307585Y-127738944D01*
X131118179Y-127835451D01*
X130946215Y-127960389D01*
X130832673Y-128073931D01*
X130771350Y-128107415D01*
X130701658Y-128102431D01*
X130645725Y-128060559D01*
X130628810Y-128029582D01*
X130579797Y-127898171D01*
X130579793Y-127898164D01*
X130493547Y-127782955D01*
X130493544Y-127782952D01*
X130378335Y-127696706D01*
X130378328Y-127696702D01*
X130243482Y-127646408D01*
X130243483Y-127646408D01*
X130183883Y-127640001D01*
X130183881Y-127640000D01*
X130183873Y-127640000D01*
X130183864Y-127640000D01*
X128388129Y-127640000D01*
X128388123Y-127640001D01*
X128328516Y-127646408D01*
X128193671Y-127696702D01*
X128193664Y-127696706D01*
X128078455Y-127782952D01*
X128078452Y-127782955D01*
X127992206Y-127898164D01*
X127992202Y-127898171D01*
X127941908Y-128033017D01*
X127935501Y-128092616D01*
X127935500Y-128092635D01*
X126626000Y-128092635D01*
X126626000Y-127624000D01*
X136276086Y-127624000D01*
X136339974Y-127711935D01*
X136342760Y-127715932D01*
X136359126Y-127740427D01*
X136361750Y-127744527D01*
X136382231Y-127777950D01*
X136384693Y-127782150D01*
X136399083Y-127807846D01*
X136401378Y-127812139D01*
X136515686Y-128036481D01*
X136517811Y-128040864D01*
X136530154Y-128067639D01*
X136532109Y-128072108D01*
X136547107Y-128108325D01*
X136548879Y-128112853D01*
X136559064Y-128140463D01*
X136560658Y-128145060D01*
X136626000Y-128346160D01*
X136626000Y-127624000D01*
X136276086Y-127624000D01*
X126626000Y-127624000D01*
X125124000Y-127624000D01*
X125124000Y-129126000D01*
X124126000Y-129126000D01*
X124126000Y-127624000D01*
X123926500Y-127624000D01*
X123926500Y-129126000D01*
X122928500Y-129126000D01*
X122928500Y-126626000D01*
X123926500Y-126626000D01*
X124126000Y-126626000D01*
X125124000Y-126626000D01*
X126626000Y-126626000D01*
X127624000Y-126626000D01*
X129126000Y-126626000D01*
X130124000Y-126626000D01*
X131626000Y-126626000D01*
X132624000Y-126626000D01*
X134126000Y-126626000D01*
X135124000Y-126626000D01*
X136626000Y-126626000D01*
X136626000Y-125124000D01*
X135124000Y-125124000D01*
X135124000Y-126626000D01*
X134126000Y-126626000D01*
X134126000Y-125124000D01*
X132624000Y-125124000D01*
X132624000Y-126626000D01*
X131626000Y-126626000D01*
X131626000Y-125124000D01*
X130124000Y-125124000D01*
X130124000Y-126626000D01*
X129126000Y-126626000D01*
X129126000Y-125124000D01*
X127624000Y-125124000D01*
X127624000Y-126626000D01*
X126626000Y-126626000D01*
X126626000Y-125124000D01*
X125124000Y-125124000D01*
X125124000Y-126626000D01*
X124126000Y-126626000D01*
X124126000Y-125124000D01*
X123926500Y-125124000D01*
X123926500Y-126626000D01*
X122928500Y-126626000D01*
X122928500Y-125005514D01*
X138344000Y-125005514D01*
X138344000Y-125955500D01*
X139643999Y-125955500D01*
X139618979Y-126015902D01*
X139594000Y-126141481D01*
X139594000Y-126269519D01*
X139618979Y-126395098D01*
X139643999Y-126455500D01*
X138344000Y-126455500D01*
X138344000Y-127405485D01*
X138354493Y-127508189D01*
X138354494Y-127508196D01*
X138409641Y-127674618D01*
X138409643Y-127674623D01*
X138501684Y-127823844D01*
X138625655Y-127947815D01*
X138774876Y-128039856D01*
X138774881Y-128039858D01*
X138941303Y-128095005D01*
X138941310Y-128095006D01*
X139044014Y-128105499D01*
X139044027Y-128105500D01*
X139994000Y-128105500D01*
X139994000Y-126805501D01*
X140054402Y-126830521D01*
X140179981Y-126855500D01*
X140308019Y-126855500D01*
X140433598Y-126830521D01*
X140494000Y-126805501D01*
X140494000Y-128105500D01*
X141443973Y-128105500D01*
X141443985Y-128105499D01*
X141546689Y-128095006D01*
X141546696Y-128095005D01*
X141713118Y-128039858D01*
X141713123Y-128039856D01*
X141862344Y-127947815D01*
X141986315Y-127823844D01*
X142078356Y-127674623D01*
X142078358Y-127674618D01*
X142133505Y-127508196D01*
X142133506Y-127508189D01*
X142143999Y-127405485D01*
X142144000Y-127405472D01*
X142144000Y-126455500D01*
X140844001Y-126455500D01*
X140869021Y-126395098D01*
X140894000Y-126269519D01*
X140894000Y-126141481D01*
X140881958Y-126080941D01*
X143343500Y-126080941D01*
X143343500Y-126330058D01*
X143343501Y-126330075D01*
X143376017Y-126577061D01*
X143440498Y-126817707D01*
X143535830Y-127047861D01*
X143535837Y-127047876D01*
X143660400Y-127263626D01*
X143812060Y-127461274D01*
X143812066Y-127461281D01*
X143988218Y-127637433D01*
X143988225Y-127637439D01*
X144185873Y-127789099D01*
X144401623Y-127913662D01*
X144401638Y-127913669D01*
X144484075Y-127947815D01*
X144631793Y-128009002D01*
X144872435Y-128073482D01*
X145119435Y-128106000D01*
X145119442Y-128106000D01*
X145368558Y-128106000D01*
X145368565Y-128106000D01*
X145615565Y-128073482D01*
X145856207Y-128009002D01*
X146086373Y-127913664D01*
X146170435Y-127865131D01*
X147624000Y-127865131D01*
X147624000Y-129126000D01*
X149126000Y-129126000D01*
X149126000Y-128925713D01*
X151049500Y-128925713D01*
X151049500Y-129138287D01*
X151082754Y-129348243D01*
X151134959Y-129508914D01*
X151148444Y-129550414D01*
X151244951Y-129739820D01*
X151369890Y-129911786D01*
X151520213Y-130062109D01*
X151692179Y-130187048D01*
X151692181Y-130187049D01*
X151692184Y-130187051D01*
X151881588Y-130283557D01*
X152083757Y-130349246D01*
X152293713Y-130382500D01*
X152293714Y-130382500D01*
X152506286Y-130382500D01*
X152506287Y-130382500D01*
X152716243Y-130349246D01*
X152918412Y-130283557D01*
X153107816Y-130187051D01*
X153164936Y-130145551D01*
X153279786Y-130062109D01*
X153279788Y-130062106D01*
X153279792Y-130062104D01*
X153430104Y-129911792D01*
X153430106Y-129911788D01*
X153430109Y-129911786D01*
X153555048Y-129739820D01*
X153555047Y-129739820D01*
X153555051Y-129739816D01*
X153651557Y-129550412D01*
X153717246Y-129348243D01*
X153750500Y-129138287D01*
X153750500Y-128925713D01*
X153717246Y-128715757D01*
X153651557Y-128513588D01*
X153555051Y-128324184D01*
X153555049Y-128324181D01*
X153555048Y-128324179D01*
X153459825Y-128193115D01*
X153459824Y-128193115D01*
X153430104Y-128152208D01*
X153279792Y-128001896D01*
X153230385Y-127966000D01*
X153283480Y-127966000D01*
X153287680Y-127907270D01*
X153329552Y-127851337D01*
X153360529Y-127834422D01*
X153492086Y-127785354D01*
X153492093Y-127785350D01*
X153607187Y-127699190D01*
X153607190Y-127699187D01*
X153693350Y-127584093D01*
X153693354Y-127584086D01*
X153743596Y-127449379D01*
X153743598Y-127449372D01*
X153749999Y-127389844D01*
X153750000Y-127389827D01*
X153750000Y-125594172D01*
X153749999Y-125594155D01*
X153743598Y-125534627D01*
X153743596Y-125534620D01*
X153693354Y-125399913D01*
X153693350Y-125399906D01*
X153607190Y-125284812D01*
X153607187Y-125284809D01*
X153492093Y-125198649D01*
X153492086Y-125198645D01*
X153357379Y-125148403D01*
X153357372Y-125148401D01*
X153297844Y-125142000D01*
X151502155Y-125142000D01*
X151442627Y-125148401D01*
X151442620Y-125148403D01*
X151307913Y-125198645D01*
X151307906Y-125198649D01*
X151192812Y-125284809D01*
X151192809Y-125284812D01*
X151106649Y-125399906D01*
X151106645Y-125399913D01*
X151056403Y-125534620D01*
X151056401Y-125534627D01*
X151050000Y-125594155D01*
X151050000Y-126242000D01*
X151966988Y-126242000D01*
X151934075Y-126299007D01*
X151900000Y-126426174D01*
X151900000Y-126557826D01*
X151934075Y-126684993D01*
X151966988Y-126742000D01*
X151050000Y-126742000D01*
X151050000Y-127389844D01*
X151056401Y-127449372D01*
X151056403Y-127449379D01*
X151106645Y-127584086D01*
X151106649Y-127584093D01*
X151192809Y-127699187D01*
X151192812Y-127699190D01*
X151307906Y-127785350D01*
X151307913Y-127785354D01*
X151439470Y-127834422D01*
X151495404Y-127876293D01*
X151519821Y-127941758D01*
X151514547Y-127966000D01*
X151569615Y-127966000D01*
X151520208Y-128001896D01*
X151369896Y-128152208D01*
X151340175Y-128193115D01*
X151340173Y-128193115D01*
X151244951Y-128324179D01*
X151148444Y-128513585D01*
X151082753Y-128715760D01*
X151066884Y-128815954D01*
X151049500Y-128925713D01*
X149126000Y-128925713D01*
X149126000Y-127624000D01*
X147771928Y-127624000D01*
X147683726Y-127776771D01*
X147681641Y-127780250D01*
X147668676Y-127801100D01*
X147666476Y-127804512D01*
X147648328Y-127831672D01*
X147646019Y-127835009D01*
X147631725Y-127854956D01*
X147629307Y-127858215D01*
X147624000Y-127865131D01*
X146170435Y-127865131D01*
X146302127Y-127789099D01*
X146499776Y-127637438D01*
X146675938Y-127461276D01*
X146827599Y-127263627D01*
X146952164Y-127047873D01*
X147047502Y-126817707D01*
X147111982Y-126577065D01*
X147144500Y-126330065D01*
X147144500Y-126080935D01*
X147111982Y-125833935D01*
X147047502Y-125593293D01*
X146971108Y-125408861D01*
X146952169Y-125363138D01*
X146952162Y-125363123D01*
X146827599Y-125147373D01*
X146809664Y-125124000D01*
X147933342Y-125124000D01*
X147975779Y-125226453D01*
X147977269Y-125230224D01*
X147985906Y-125253170D01*
X147987272Y-125256988D01*
X147997773Y-125287918D01*
X147999015Y-125291782D01*
X148006149Y-125315296D01*
X148007265Y-125319202D01*
X148080203Y-125591407D01*
X148081189Y-125595344D01*
X148086762Y-125619246D01*
X148087618Y-125623210D01*
X148093991Y-125655247D01*
X148094719Y-125659245D01*
X148098717Y-125683466D01*
X148099311Y-125687475D01*
X148136094Y-125966862D01*
X148136558Y-125970894D01*
X148138964Y-125995323D01*
X148139296Y-125999369D01*
X148141432Y-126031965D01*
X148141631Y-126036016D01*
X148142434Y-126060547D01*
X148142500Y-126064604D01*
X148142500Y-126346396D01*
X148142434Y-126350453D01*
X148141631Y-126374984D01*
X148141432Y-126379035D01*
X148139296Y-126411631D01*
X148138964Y-126415677D01*
X148136558Y-126440106D01*
X148136094Y-126444138D01*
X148112151Y-126626000D01*
X149126000Y-126626000D01*
X149126000Y-125595132D01*
X149030423Y-125567068D01*
X149026200Y-125565746D01*
X149000808Y-125557295D01*
X148996638Y-125555824D01*
X148963251Y-125543373D01*
X148959127Y-125541750D01*
X148934376Y-125531498D01*
X148930317Y-125529732D01*
X148700572Y-125424813D01*
X148696575Y-125422900D01*
X148672626Y-125410911D01*
X148668707Y-125408861D01*
X148637429Y-125391782D01*
X148633582Y-125389591D01*
X148610553Y-125375927D01*
X148606787Y-125373601D01*
X148394326Y-125237059D01*
X148390646Y-125234600D01*
X148368659Y-125219334D01*
X148365071Y-125216747D01*
X148336544Y-125195393D01*
X148333048Y-125192677D01*
X148312191Y-125175870D01*
X148308792Y-125173030D01*
X148252208Y-125124000D01*
X147933342Y-125124000D01*
X146809664Y-125124000D01*
X146675939Y-124949725D01*
X146675933Y-124949718D01*
X146499781Y-124773566D01*
X146499774Y-124773560D01*
X146302126Y-124621900D01*
X146086376Y-124497337D01*
X146086361Y-124497330D01*
X145856207Y-124401998D01*
X145615561Y-124337517D01*
X145368575Y-124305001D01*
X145368570Y-124305000D01*
X145368565Y-124305000D01*
X145119435Y-124305000D01*
X145119429Y-124305000D01*
X145119424Y-124305001D01*
X144872438Y-124337517D01*
X144631792Y-124401998D01*
X144401638Y-124497330D01*
X144401623Y-124497337D01*
X144185873Y-124621900D01*
X143988225Y-124773560D01*
X143988218Y-124773566D01*
X143812066Y-124949718D01*
X143812060Y-124949725D01*
X143660400Y-125147373D01*
X143535837Y-125363123D01*
X143535830Y-125363138D01*
X143440498Y-125593292D01*
X143376017Y-125833938D01*
X143343501Y-126080924D01*
X143343500Y-126080941D01*
X140881958Y-126080941D01*
X140869021Y-126015902D01*
X140844001Y-125955500D01*
X142144000Y-125955500D01*
X142144000Y-125005527D01*
X142143999Y-125005514D01*
X142133506Y-124902810D01*
X142133505Y-124902803D01*
X142078358Y-124736381D01*
X142078356Y-124736376D01*
X141986315Y-124587155D01*
X141862344Y-124463184D01*
X141713123Y-124371143D01*
X141713118Y-124371141D01*
X141546696Y-124315994D01*
X141546689Y-124315993D01*
X141443985Y-124305500D01*
X140494000Y-124305500D01*
X140494000Y-125605498D01*
X140433598Y-125580479D01*
X140308019Y-125555500D01*
X140179981Y-125555500D01*
X140054402Y-125580479D01*
X139994000Y-125605498D01*
X139994000Y-124305500D01*
X139044014Y-124305500D01*
X138941310Y-124315993D01*
X138941303Y-124315994D01*
X138774881Y-124371141D01*
X138774876Y-124371143D01*
X138625655Y-124463184D01*
X138501684Y-124587155D01*
X138409643Y-124736376D01*
X138409641Y-124736381D01*
X138354494Y-124902803D01*
X138354493Y-124902810D01*
X138344000Y-125005514D01*
X122928500Y-125005514D01*
X122928500Y-124126000D01*
X123926500Y-124126000D01*
X124126000Y-124126000D01*
X125124000Y-124126000D01*
X126626000Y-124126000D01*
X127624000Y-124126000D01*
X129126000Y-124126000D01*
X130124000Y-124126000D01*
X131626000Y-124126000D01*
X132624000Y-124126000D01*
X134126000Y-124126000D01*
X135124000Y-124126000D01*
X136626000Y-124126000D01*
X136626000Y-124109060D01*
X137624000Y-124109060D01*
X137667517Y-124038508D01*
X137671482Y-124032480D01*
X137696522Y-123996720D01*
X137700830Y-123990934D01*
X137736860Y-123945368D01*
X137741497Y-123939842D01*
X137770508Y-123907244D01*
X137775456Y-123902000D01*
X137864000Y-123813456D01*
X142624000Y-123813456D01*
X142712544Y-123902000D01*
X142717492Y-123907244D01*
X142746503Y-123939842D01*
X142751140Y-123945368D01*
X142787170Y-123990934D01*
X142791478Y-123996720D01*
X142816518Y-124032480D01*
X142820483Y-124038508D01*
X142874448Y-124126000D01*
X143224401Y-124126000D01*
X143294081Y-124056320D01*
X143296997Y-124053498D01*
X143314914Y-124036717D01*
X143317922Y-124033991D01*
X143342481Y-124012454D01*
X143345572Y-124009830D01*
X143364545Y-123994259D01*
X143367725Y-123991736D01*
X143591286Y-123820192D01*
X143594544Y-123817775D01*
X143614491Y-123803481D01*
X143617828Y-123801172D01*
X143644988Y-123783024D01*
X143648400Y-123780824D01*
X143669250Y-123767859D01*
X143672729Y-123765774D01*
X143916766Y-123624880D01*
X143920309Y-123622911D01*
X143941940Y-123611348D01*
X143945549Y-123609494D01*
X143974844Y-123595046D01*
X143978516Y-123593309D01*
X144000891Y-123583171D01*
X144004614Y-123581557D01*
X144126000Y-123531276D01*
X144126000Y-123307000D01*
X145124000Y-123307000D01*
X145384896Y-123307000D01*
X145388953Y-123307066D01*
X145413484Y-123307869D01*
X145417535Y-123308068D01*
X145450131Y-123310204D01*
X145454177Y-123310536D01*
X145478606Y-123312942D01*
X145482638Y-123313406D01*
X145762025Y-123350189D01*
X145766034Y-123350783D01*
X145790255Y-123354781D01*
X145794253Y-123355509D01*
X145826290Y-123361882D01*
X145830254Y-123362738D01*
X145854156Y-123368311D01*
X145858093Y-123369297D01*
X146130298Y-123442235D01*
X146134204Y-123443351D01*
X146157718Y-123450485D01*
X146161582Y-123451727D01*
X146192512Y-123462228D01*
X146196330Y-123463594D01*
X146219276Y-123472231D01*
X146223047Y-123473721D01*
X146483386Y-123581557D01*
X146487109Y-123583171D01*
X146509484Y-123593309D01*
X146513156Y-123595046D01*
X146542451Y-123609494D01*
X146546060Y-123611348D01*
X146567691Y-123622911D01*
X146571234Y-123624880D01*
X146626000Y-123656498D01*
X146626000Y-122624000D01*
X145124000Y-122624000D01*
X145124000Y-123307000D01*
X144126000Y-123307000D01*
X144126000Y-122624000D01*
X142624000Y-122624000D01*
X142624000Y-123813456D01*
X137864000Y-123813456D01*
X137940500Y-123736956D01*
X137945744Y-123732008D01*
X137978342Y-123702997D01*
X137983868Y-123698360D01*
X138029434Y-123662330D01*
X138035220Y-123658022D01*
X138070980Y-123632982D01*
X138077008Y-123629017D01*
X138275679Y-123506476D01*
X138281927Y-123502869D01*
X138320352Y-123482151D01*
X138326799Y-123478913D01*
X138379446Y-123454365D01*
X138386067Y-123451510D01*
X138426619Y-123435400D01*
X138433396Y-123432933D01*
X138653225Y-123360089D01*
X138659698Y-123358138D01*
X138699166Y-123347408D01*
X138705734Y-123345814D01*
X138758983Y-123334412D01*
X138765634Y-123333176D01*
X138806068Y-123326801D01*
X138812777Y-123325930D01*
X138955233Y-123311376D01*
X138958379Y-123311095D01*
X138977428Y-123309638D01*
X138980579Y-123309437D01*
X139005950Y-123308145D01*
X139009104Y-123308025D01*
X139028175Y-123307540D01*
X139031327Y-123307500D01*
X139126000Y-123307500D01*
X140124000Y-123307500D01*
X140194546Y-123307500D01*
X140241998Y-123316939D01*
X140244000Y-123317768D01*
X140246002Y-123316939D01*
X140293454Y-123307500D01*
X141456673Y-123307500D01*
X141459825Y-123307540D01*
X141478896Y-123308025D01*
X141482050Y-123308145D01*
X141507421Y-123309437D01*
X141510572Y-123309638D01*
X141529621Y-123311095D01*
X141532767Y-123311376D01*
X141626000Y-123320901D01*
X141626000Y-122624000D01*
X140124000Y-122624000D01*
X140124000Y-123307500D01*
X139126000Y-123307500D01*
X139126000Y-122624000D01*
X137624000Y-122624000D01*
X137624000Y-124109060D01*
X136626000Y-124109060D01*
X136626000Y-122624000D01*
X135124000Y-122624000D01*
X135124000Y-124126000D01*
X134126000Y-124126000D01*
X134126000Y-122624000D01*
X132624000Y-122624000D01*
X132624000Y-124126000D01*
X131626000Y-124126000D01*
X131626000Y-122624000D01*
X130124000Y-122624000D01*
X130124000Y-124126000D01*
X129126000Y-124126000D01*
X129126000Y-122624000D01*
X127624000Y-122624000D01*
X127624000Y-124126000D01*
X126626000Y-124126000D01*
X126626000Y-122624000D01*
X125124000Y-122624000D01*
X125124000Y-124126000D01*
X124126000Y-124126000D01*
X124126000Y-122624000D01*
X123926500Y-122624000D01*
X123926500Y-124126000D01*
X122928500Y-124126000D01*
X122928500Y-121626000D01*
X123926500Y-121626000D01*
X124126000Y-121626000D01*
X137624000Y-121626000D01*
X139126000Y-121626000D01*
X140124000Y-121626000D01*
X141626000Y-121626000D01*
X142624000Y-121626000D01*
X144126000Y-121626000D01*
X145124000Y-121626000D01*
X146626000Y-121626000D01*
X146626000Y-120124000D01*
X145124000Y-120124000D01*
X145124000Y-121626000D01*
X144126000Y-121626000D01*
X144126000Y-120124000D01*
X142624000Y-120124000D01*
X142624000Y-121626000D01*
X141626000Y-121626000D01*
X141626000Y-120124000D01*
X140124000Y-120124000D01*
X140124000Y-121626000D01*
X139126000Y-121626000D01*
X139126000Y-120124000D01*
X137624000Y-120124000D01*
X137624000Y-121626000D01*
X124126000Y-121626000D01*
X124126000Y-120124000D01*
X123926500Y-120124000D01*
X123926500Y-121626000D01*
X122928500Y-121626000D01*
X122928500Y-119126000D01*
X123926500Y-119126000D01*
X124126000Y-119126000D01*
X124126000Y-118841179D01*
X125124000Y-118841179D01*
X125232163Y-118692304D01*
X125235106Y-118688416D01*
X125253365Y-118665257D01*
X125256455Y-118661492D01*
X125281916Y-118631685D01*
X125285150Y-118628046D01*
X125305124Y-118606441D01*
X125308494Y-118602937D01*
X125480937Y-118430494D01*
X125484441Y-118427124D01*
X125506046Y-118407150D01*
X125509685Y-118403916D01*
X125539492Y-118378455D01*
X125543257Y-118375365D01*
X125566416Y-118357106D01*
X125570304Y-118354163D01*
X125767642Y-118210790D01*
X125771637Y-118208005D01*
X125796131Y-118191639D01*
X125800233Y-118189014D01*
X125833656Y-118168533D01*
X125837856Y-118166071D01*
X125863552Y-118151681D01*
X125867845Y-118149386D01*
X126085173Y-118038651D01*
X126089557Y-118036525D01*
X126116333Y-118024182D01*
X126120800Y-118022228D01*
X126157016Y-118007230D01*
X126161547Y-118005457D01*
X126189156Y-117995273D01*
X126193750Y-117993680D01*
X126416001Y-117921465D01*
X127624000Y-117921465D01*
X127846250Y-117993680D01*
X127850844Y-117995273D01*
X127878453Y-118005457D01*
X127882984Y-118007230D01*
X127919200Y-118022228D01*
X127923667Y-118024182D01*
X127950443Y-118036525D01*
X127954827Y-118038651D01*
X128172155Y-118149386D01*
X128176448Y-118151681D01*
X128202144Y-118166071D01*
X128206344Y-118168533D01*
X128239767Y-118189014D01*
X128243869Y-118191639D01*
X128268363Y-118208005D01*
X128272358Y-118210789D01*
X128273913Y-118211919D01*
X128274012Y-118211851D01*
X128298514Y-118195480D01*
X128302617Y-118192854D01*
X128336037Y-118172376D01*
X128340238Y-118169914D01*
X128365923Y-118155531D01*
X128370213Y-118153238D01*
X128586904Y-118042828D01*
X128591288Y-118040702D01*
X128618064Y-118028359D01*
X128622531Y-118026405D01*
X128658747Y-118011407D01*
X128663276Y-118009635D01*
X128690886Y-117999450D01*
X128695483Y-117997856D01*
X128926757Y-117922710D01*
X128931417Y-117921296D01*
X128959759Y-117913303D01*
X128964464Y-117912076D01*
X129002581Y-117902923D01*
X129007344Y-117901877D01*
X129036243Y-117896129D01*
X129041034Y-117895274D01*
X129126000Y-117881816D01*
X129126000Y-117624000D01*
X127624000Y-117624000D01*
X127624000Y-117921465D01*
X126416001Y-117921465D01*
X126425717Y-117918308D01*
X126430380Y-117916894D01*
X126458759Y-117908891D01*
X126463478Y-117907660D01*
X126501597Y-117898512D01*
X126506348Y-117897470D01*
X126535211Y-117891730D01*
X126539998Y-117890875D01*
X126626000Y-117877252D01*
X126626000Y-117624000D01*
X125124000Y-117624000D01*
X125124000Y-118841179D01*
X124126000Y-118841179D01*
X124126000Y-117624000D01*
X123926500Y-117624000D01*
X123926500Y-119126000D01*
X122928500Y-119126000D01*
X122928500Y-116626000D01*
X123926500Y-116626000D01*
X124126000Y-116626000D01*
X124126000Y-115124000D01*
X123926500Y-115124000D01*
X123926500Y-116626000D01*
X122928500Y-116626000D01*
X122928500Y-114126000D01*
X123926500Y-114126000D01*
X124126000Y-114126000D01*
X124126000Y-112624000D01*
X123926500Y-112624000D01*
X123926500Y-114126000D01*
X122928500Y-114126000D01*
X122928500Y-111626000D01*
X123926500Y-111626000D01*
X124126000Y-111626000D01*
X125124000Y-111626000D01*
X126626000Y-111626000D01*
X126626000Y-110958685D01*
X125791315Y-110124000D01*
X125124000Y-110124000D01*
X125124000Y-111626000D01*
X124126000Y-111626000D01*
X124126000Y-110124000D01*
X123926500Y-110124000D01*
X123926500Y-111626000D01*
X122928500Y-111626000D01*
X122928500Y-109126000D01*
X123926500Y-109126000D01*
X124126000Y-109126000D01*
X124126000Y-108467990D01*
X123926500Y-108268490D01*
X123926500Y-109126000D01*
X122928500Y-109126000D01*
X122928500Y-99126000D01*
X123926500Y-99126000D01*
X124126000Y-99126000D01*
X124126000Y-98186313D01*
X125124000Y-98186313D01*
X125686313Y-97624000D01*
X125124000Y-97624000D01*
X125124000Y-98186313D01*
X124126000Y-98186313D01*
X124126000Y-97624000D01*
X123926500Y-97624000D01*
X123926500Y-99126000D01*
X122928500Y-99126000D01*
X122928500Y-96626000D01*
X123926500Y-96626000D01*
X124126000Y-96626000D01*
X125124000Y-96626000D01*
X126626000Y-96626000D01*
X126626000Y-95124000D01*
X125124000Y-95124000D01*
X125124000Y-96626000D01*
X124126000Y-96626000D01*
X124126000Y-95124000D01*
X123926500Y-95124000D01*
X123926500Y-96626000D01*
X122928500Y-96626000D01*
X122928500Y-90124000D01*
X135853424Y-90124000D01*
X135856221Y-90127583D01*
X135878153Y-90157155D01*
X135881657Y-90162131D01*
X136007434Y-90350368D01*
X136010691Y-90355512D01*
X136029627Y-90387106D01*
X136032627Y-90392401D01*
X136055729Y-90435623D01*
X136058466Y-90441062D01*
X136074206Y-90474344D01*
X136076671Y-90479905D01*
X136163301Y-90689051D01*
X136165491Y-90694728D01*
X136177890Y-90729380D01*
X136179798Y-90735155D01*
X136194025Y-90782048D01*
X136195649Y-90787916D01*
X136204601Y-90823651D01*
X136205935Y-90829592D01*
X136250104Y-91051643D01*
X136251145Y-91057640D01*
X136256549Y-91094071D01*
X136257294Y-91100112D01*
X136262097Y-91148884D01*
X136262545Y-91154954D01*
X136264351Y-91191726D01*
X136264500Y-91197809D01*
X136264500Y-91424191D01*
X136264351Y-91430274D01*
X136262545Y-91467046D01*
X136262097Y-91473116D01*
X136257294Y-91521888D01*
X136256549Y-91527929D01*
X136251145Y-91564360D01*
X136250104Y-91570357D01*
X136239036Y-91626000D01*
X136603203Y-91626000D01*
X136626000Y-91570964D01*
X136626000Y-90124000D01*
X135853424Y-90124000D01*
X122928500Y-90124000D01*
X122928500Y-89126000D01*
X123926500Y-89126000D01*
X124126000Y-89126000D01*
X124126000Y-88112500D01*
X125124000Y-88112500D01*
X125124000Y-89126000D01*
X126626000Y-89126000D01*
X126626000Y-88117063D01*
X127624000Y-88117063D01*
X127624000Y-89126000D01*
X129126000Y-89126000D01*
X130124000Y-89126000D01*
X131626000Y-89126000D01*
X132624000Y-89126000D01*
X134126000Y-89126000D01*
X135124000Y-89126000D01*
X136626000Y-89126000D01*
X137624000Y-89126000D01*
X138915164Y-89126000D01*
X145124000Y-89126000D01*
X146626000Y-89126000D01*
X146626000Y-87624000D01*
X145124000Y-87624000D01*
X145124000Y-89126000D01*
X138915164Y-89126000D01*
X139037951Y-89043956D01*
X139043096Y-89040698D01*
X139074687Y-89021764D01*
X139079983Y-89018764D01*
X139123203Y-88995664D01*
X139126000Y-88994255D01*
X139126000Y-88812500D01*
X140124000Y-88812500D01*
X141626000Y-88812500D01*
X142624000Y-88812500D01*
X144126000Y-88812500D01*
X144126000Y-87624000D01*
X142624000Y-87624000D01*
X142624000Y-88812500D01*
X141626000Y-88812500D01*
X141626000Y-87624000D01*
X140124000Y-87624000D01*
X140124000Y-88812500D01*
X139126000Y-88812500D01*
X139126000Y-87624000D01*
X137624000Y-87624000D01*
X137624000Y-89126000D01*
X136626000Y-89126000D01*
X136626000Y-87624000D01*
X135124000Y-87624000D01*
X135124000Y-89126000D01*
X134126000Y-89126000D01*
X134126000Y-87624000D01*
X132624000Y-87624000D01*
X132624000Y-89126000D01*
X131626000Y-89126000D01*
X131626000Y-87624000D01*
X130124000Y-87624000D01*
X130124000Y-89126000D01*
X129126000Y-89126000D01*
X129126000Y-87866093D01*
X128950827Y-87955349D01*
X128946443Y-87957475D01*
X128919667Y-87969818D01*
X128915200Y-87971772D01*
X128878984Y-87986770D01*
X128874453Y-87988543D01*
X128846844Y-87998727D01*
X128842250Y-88000320D01*
X128610283Y-88075692D01*
X128605620Y-88077106D01*
X128577241Y-88085109D01*
X128572522Y-88086340D01*
X128534403Y-88095488D01*
X128529652Y-88096530D01*
X128500789Y-88102270D01*
X128496001Y-88103125D01*
X128255125Y-88141277D01*
X128250301Y-88141945D01*
X128221067Y-88145405D01*
X128216230Y-88145881D01*
X128177151Y-88148959D01*
X128172286Y-88149246D01*
X128142834Y-88150404D01*
X128137962Y-88150500D01*
X127894038Y-88150500D01*
X127889166Y-88150404D01*
X127859714Y-88149246D01*
X127854849Y-88148959D01*
X127815770Y-88145881D01*
X127810933Y-88145405D01*
X127781699Y-88141945D01*
X127776875Y-88141277D01*
X127624000Y-88117063D01*
X126626000Y-88117063D01*
X126626000Y-87861034D01*
X126449095Y-87951172D01*
X126444712Y-87953297D01*
X126417937Y-87965640D01*
X126413469Y-87967595D01*
X126377253Y-87982593D01*
X126372724Y-87984365D01*
X126345114Y-87994550D01*
X126340517Y-87996144D01*
X126109243Y-88071290D01*
X126104583Y-88072704D01*
X126076241Y-88080697D01*
X126071536Y-88081924D01*
X126033419Y-88091077D01*
X126028656Y-88092123D01*
X125999757Y-88097871D01*
X125994965Y-88098726D01*
X125754770Y-88136770D01*
X125749946Y-88137438D01*
X125720712Y-88140898D01*
X125715875Y-88141374D01*
X125676796Y-88144452D01*
X125671931Y-88144739D01*
X125642479Y-88145897D01*
X125637607Y-88145993D01*
X125394393Y-88145993D01*
X125389521Y-88145897D01*
X125360069Y-88144739D01*
X125355204Y-88144452D01*
X125316125Y-88141374D01*
X125311288Y-88140898D01*
X125282054Y-88137438D01*
X125277230Y-88136770D01*
X125124000Y-88112500D01*
X124126000Y-88112500D01*
X124126000Y-87677637D01*
X124052174Y-87624000D01*
X123926500Y-87624000D01*
X123926500Y-89126000D01*
X122928500Y-89126000D01*
X122928500Y-85750003D01*
X124220007Y-85750003D01*
X124220007Y-85953996D01*
X124251918Y-86155475D01*
X124314958Y-86349490D01*
X124407567Y-86531246D01*
X124439393Y-86575051D01*
X125116000Y-85898445D01*
X125116000Y-85904661D01*
X125143259Y-86006394D01*
X125195920Y-86097606D01*
X125270394Y-86172080D01*
X125361606Y-86224741D01*
X125463339Y-86252000D01*
X125469553Y-86252000D01*
X124792946Y-86928605D01*
X124792947Y-86928606D01*
X124836747Y-86960429D01*
X125018509Y-87053041D01*
X125212524Y-87116081D01*
X125414004Y-87147993D01*
X125617996Y-87147993D01*
X125819475Y-87116081D01*
X126013490Y-87053041D01*
X126195240Y-86960435D01*
X126195253Y-86960427D01*
X126239051Y-86928606D01*
X126239052Y-86928604D01*
X125562448Y-86252000D01*
X125568661Y-86252000D01*
X125670394Y-86224741D01*
X125761606Y-86172080D01*
X125836080Y-86097606D01*
X125888741Y-86006394D01*
X125916000Y-85904661D01*
X125916000Y-85898447D01*
X126592604Y-86575052D01*
X126592606Y-86575051D01*
X126624427Y-86531253D01*
X126624435Y-86531241D01*
X126652984Y-86475209D01*
X126700958Y-86424412D01*
X126768779Y-86407616D01*
X126818041Y-86424402D01*
X126829740Y-86401442D01*
X126832712Y-86394264D01*
X126903713Y-86533610D01*
X126989543Y-86651746D01*
X126989543Y-86651747D01*
X127024028Y-86699213D01*
X127168786Y-86843971D01*
X127323749Y-86956556D01*
X127334390Y-86964287D01*
X127450607Y-87023503D01*
X127516776Y-87057218D01*
X127516778Y-87057218D01*
X127516781Y-87057220D01*
X127621137Y-87091127D01*
X127711465Y-87120477D01*
X127812557Y-87136488D01*
X127913648Y-87152500D01*
X127913649Y-87152500D01*
X128118351Y-87152500D01*
X128118352Y-87152500D01*
X128320534Y-87120477D01*
X128515219Y-87057220D01*
X128697610Y-86964287D01*
X128790590Y-86896732D01*
X128863213Y-86843971D01*
X128863215Y-86843968D01*
X128863219Y-86843966D01*
X129007966Y-86699219D01*
X129007968Y-86699215D01*
X129007971Y-86699213D01*
X129061162Y-86626000D01*
X130181297Y-86626000D01*
X131626000Y-86626000D01*
X132624000Y-86626000D01*
X134126000Y-86626000D01*
X135124000Y-86626000D01*
X136626000Y-86626000D01*
X137624000Y-86626000D01*
X138208358Y-86626000D01*
X138077008Y-86544983D01*
X138070980Y-86541018D01*
X138035220Y-86515978D01*
X138029434Y-86511670D01*
X137983868Y-86475640D01*
X137978342Y-86471003D01*
X137945744Y-86441992D01*
X137940500Y-86437044D01*
X137864000Y-86360544D01*
X142624000Y-86360544D01*
X142624000Y-86626000D01*
X144085629Y-86626000D01*
X144004615Y-86592443D01*
X144000891Y-86590829D01*
X143978516Y-86580691D01*
X143974844Y-86578954D01*
X143945549Y-86564506D01*
X143941940Y-86562652D01*
X143920309Y-86551089D01*
X143916766Y-86549120D01*
X143672729Y-86408226D01*
X143669250Y-86406141D01*
X143648400Y-86393176D01*
X143644988Y-86390976D01*
X143617828Y-86372828D01*
X143614491Y-86370519D01*
X143594544Y-86356225D01*
X143591286Y-86353808D01*
X143367725Y-86182264D01*
X143364545Y-86179741D01*
X143345572Y-86164170D01*
X143342481Y-86161546D01*
X143317922Y-86140009D01*
X143314914Y-86137283D01*
X143296997Y-86120502D01*
X143294081Y-86117680D01*
X143094820Y-85918419D01*
X143091998Y-85915503D01*
X143075217Y-85897586D01*
X143072491Y-85894578D01*
X143050954Y-85870019D01*
X143048330Y-85866928D01*
X143032759Y-85847955D01*
X143030236Y-85844775D01*
X143004188Y-85810829D01*
X142997990Y-85826433D01*
X142995135Y-85833054D01*
X142970587Y-85885701D01*
X142967349Y-85892148D01*
X142946631Y-85930573D01*
X142943024Y-85936821D01*
X142820483Y-86135492D01*
X142816518Y-86141520D01*
X142791478Y-86177280D01*
X142787170Y-86183066D01*
X142751140Y-86228632D01*
X142746503Y-86234158D01*
X142717492Y-86266756D01*
X142712544Y-86272000D01*
X142624000Y-86360544D01*
X137864000Y-86360544D01*
X137775456Y-86272000D01*
X137770508Y-86266756D01*
X137741497Y-86234158D01*
X137736860Y-86228632D01*
X137700830Y-86183066D01*
X137696522Y-86177280D01*
X137671482Y-86141520D01*
X137667517Y-86135492D01*
X137624000Y-86064939D01*
X137624000Y-86626000D01*
X136626000Y-86626000D01*
X136626000Y-85124000D01*
X135124000Y-85124000D01*
X135124000Y-86626000D01*
X134126000Y-86626000D01*
X134126000Y-85124000D01*
X132624000Y-85124000D01*
X132624000Y-86626000D01*
X131626000Y-86626000D01*
X131626000Y-85124000D01*
X130196244Y-85124000D01*
X130239692Y-85257717D01*
X130241106Y-85262380D01*
X130249109Y-85290759D01*
X130250340Y-85295478D01*
X130259488Y-85333597D01*
X130260530Y-85338348D01*
X130266270Y-85367211D01*
X130267125Y-85371999D01*
X130305277Y-85612875D01*
X130305945Y-85617699D01*
X130309405Y-85646933D01*
X130309881Y-85651770D01*
X130312959Y-85690849D01*
X130313246Y-85695714D01*
X130314404Y-85725166D01*
X130314500Y-85730038D01*
X130314500Y-85973962D01*
X130314404Y-85978834D01*
X130313246Y-86008286D01*
X130312959Y-86013151D01*
X130309881Y-86052230D01*
X130309405Y-86057067D01*
X130305945Y-86086301D01*
X130305277Y-86091125D01*
X130267125Y-86332001D01*
X130266270Y-86336789D01*
X130260530Y-86365652D01*
X130259488Y-86370403D01*
X130250340Y-86408522D01*
X130249109Y-86413241D01*
X130241106Y-86441620D01*
X130239692Y-86446283D01*
X130181297Y-86626000D01*
X129061162Y-86626000D01*
X129083783Y-86594865D01*
X129128287Y-86533610D01*
X129221220Y-86351219D01*
X129284477Y-86156534D01*
X129316500Y-85954352D01*
X129316500Y-85749648D01*
X129294837Y-85612875D01*
X129284477Y-85547465D01*
X129248785Y-85437618D01*
X129221220Y-85352781D01*
X129221218Y-85352778D01*
X129221218Y-85352776D01*
X129172782Y-85257717D01*
X129128287Y-85170390D01*
X129098177Y-85128947D01*
X129007971Y-85004786D01*
X128863213Y-84860028D01*
X128697613Y-84739715D01*
X128697612Y-84739714D01*
X128697610Y-84739713D01*
X128619249Y-84699786D01*
X128515223Y-84646781D01*
X128320534Y-84583522D01*
X128145995Y-84555878D01*
X128118352Y-84551500D01*
X127913648Y-84551500D01*
X127889329Y-84555351D01*
X127711465Y-84583522D01*
X127516776Y-84646781D01*
X127334386Y-84739715D01*
X127168786Y-84860028D01*
X127024028Y-85004786D01*
X126989543Y-85052251D01*
X126989544Y-85052252D01*
X126903713Y-85170390D01*
X126832712Y-85309735D01*
X126829740Y-85302558D01*
X126818926Y-85281334D01*
X126758158Y-85296383D01*
X126692023Y-85273845D01*
X126652985Y-85228791D01*
X126624431Y-85172750D01*
X126592606Y-85128947D01*
X126592605Y-85128946D01*
X125916000Y-85805551D01*
X125916000Y-85799339D01*
X125888741Y-85697606D01*
X125836080Y-85606394D01*
X125761606Y-85531920D01*
X125670394Y-85479259D01*
X125568661Y-85452000D01*
X125562447Y-85452000D01*
X126239051Y-84775393D01*
X126195246Y-84743567D01*
X126013490Y-84650958D01*
X125819475Y-84587918D01*
X125617996Y-84556007D01*
X125414004Y-84556007D01*
X125212524Y-84587918D01*
X125018509Y-84650958D01*
X124836748Y-84743570D01*
X124792947Y-84775392D01*
X124792947Y-84775393D01*
X125469554Y-85452000D01*
X125463339Y-85452000D01*
X125361606Y-85479259D01*
X125270394Y-85531920D01*
X125195920Y-85606394D01*
X125143259Y-85697606D01*
X125116000Y-85799339D01*
X125116000Y-85805554D01*
X124439393Y-85128947D01*
X124439392Y-85128947D01*
X124407570Y-85172748D01*
X124314958Y-85354509D01*
X124251918Y-85548524D01*
X124220007Y-85750003D01*
X122928500Y-85750003D01*
X122928500Y-84126000D01*
X123926500Y-84126000D01*
X124002362Y-84126000D01*
X124026971Y-84098307D01*
X124126000Y-84026360D01*
X124126000Y-83591499D01*
X125124000Y-83591499D01*
X125277230Y-83567230D01*
X125282054Y-83566562D01*
X125311288Y-83563102D01*
X125316125Y-83562626D01*
X125355204Y-83559548D01*
X125360069Y-83559261D01*
X125389521Y-83558103D01*
X125394393Y-83558007D01*
X125637607Y-83558007D01*
X125642479Y-83558103D01*
X125671931Y-83559261D01*
X125676796Y-83559548D01*
X125715875Y-83562626D01*
X125720712Y-83563102D01*
X125749946Y-83566562D01*
X125754770Y-83567230D01*
X125994965Y-83605274D01*
X125999757Y-83606129D01*
X126028656Y-83611877D01*
X126033419Y-83612923D01*
X126071536Y-83622076D01*
X126076241Y-83623303D01*
X126104583Y-83631296D01*
X126109243Y-83632710D01*
X126340517Y-83707856D01*
X126345114Y-83709450D01*
X126372724Y-83719635D01*
X126377253Y-83721407D01*
X126413469Y-83736405D01*
X126417936Y-83738359D01*
X126444712Y-83750702D01*
X126449096Y-83752828D01*
X126626000Y-83842965D01*
X126626000Y-83586999D01*
X128408399Y-83586999D01*
X128496001Y-83600875D01*
X128500789Y-83601730D01*
X128529652Y-83607470D01*
X128534403Y-83608512D01*
X128572522Y-83617660D01*
X128577241Y-83618891D01*
X128605620Y-83626894D01*
X128610283Y-83628308D01*
X128842250Y-83703680D01*
X128846844Y-83705273D01*
X128874453Y-83715457D01*
X128878984Y-83717230D01*
X128915200Y-83732228D01*
X128919667Y-83734182D01*
X128946443Y-83746525D01*
X128950827Y-83748651D01*
X129126000Y-83837906D01*
X129126000Y-83586999D01*
X130124000Y-83586999D01*
X130124000Y-84126000D01*
X131626000Y-84126000D01*
X131626000Y-83582709D01*
X131621835Y-83582381D01*
X131616997Y-83581904D01*
X131587764Y-83578444D01*
X131582941Y-83577777D01*
X131334272Y-83538392D01*
X131329477Y-83537536D01*
X131300577Y-83531787D01*
X131295817Y-83530742D01*
X131257700Y-83521589D01*
X131252995Y-83520362D01*
X131224653Y-83512369D01*
X131219993Y-83510955D01*
X131027999Y-83448572D01*
X132624000Y-83448572D01*
X132624000Y-84126000D01*
X134126000Y-84126000D01*
X134126000Y-83578200D01*
X134122941Y-83577777D01*
X133874272Y-83538392D01*
X133869477Y-83537536D01*
X133840577Y-83531787D01*
X133835817Y-83530742D01*
X133797700Y-83521589D01*
X133792995Y-83520362D01*
X133764653Y-83512369D01*
X133759993Y-83510955D01*
X133608000Y-83461569D01*
X135124000Y-83461569D01*
X135124000Y-84126000D01*
X136626000Y-84126000D01*
X136626000Y-82768514D01*
X138344000Y-82768514D01*
X138344000Y-83718500D01*
X139643999Y-83718500D01*
X139618979Y-83778902D01*
X139594000Y-83904481D01*
X139594000Y-84032519D01*
X139618979Y-84158098D01*
X139643999Y-84218500D01*
X138344000Y-84218500D01*
X138344000Y-85168485D01*
X138354493Y-85271189D01*
X138354494Y-85271196D01*
X138409641Y-85437618D01*
X138409643Y-85437623D01*
X138501684Y-85586844D01*
X138625655Y-85710815D01*
X138774876Y-85802856D01*
X138774881Y-85802858D01*
X138941303Y-85858005D01*
X138941310Y-85858006D01*
X139044014Y-85868499D01*
X139044027Y-85868500D01*
X139994000Y-85868500D01*
X139994000Y-84568501D01*
X140054402Y-84593521D01*
X140179981Y-84618500D01*
X140308019Y-84618500D01*
X140433598Y-84593521D01*
X140494000Y-84568501D01*
X140494000Y-85868500D01*
X141443973Y-85868500D01*
X141443985Y-85868499D01*
X141546689Y-85858006D01*
X141546696Y-85858005D01*
X141713118Y-85802858D01*
X141713123Y-85802856D01*
X141862344Y-85710815D01*
X141986315Y-85586844D01*
X142078356Y-85437623D01*
X142078358Y-85437618D01*
X142133505Y-85271196D01*
X142133506Y-85271189D01*
X142143999Y-85168485D01*
X142144000Y-85168472D01*
X142144000Y-84218500D01*
X140844001Y-84218500D01*
X140869021Y-84158098D01*
X140894000Y-84032519D01*
X140894000Y-83904481D01*
X140881958Y-83843941D01*
X143343500Y-83843941D01*
X143343500Y-84093058D01*
X143343501Y-84093075D01*
X143376017Y-84340061D01*
X143440498Y-84580707D01*
X143535830Y-84810861D01*
X143535837Y-84810876D01*
X143660400Y-85026626D01*
X143812060Y-85224274D01*
X143812066Y-85224281D01*
X143988218Y-85400433D01*
X143988225Y-85400439D01*
X144185873Y-85552099D01*
X144401623Y-85676662D01*
X144401638Y-85676669D01*
X144451898Y-85697487D01*
X144631793Y-85772002D01*
X144872435Y-85836482D01*
X145119435Y-85869000D01*
X145119442Y-85869000D01*
X145368558Y-85869000D01*
X145368565Y-85869000D01*
X145615565Y-85836482D01*
X145856207Y-85772002D01*
X146086373Y-85676664D01*
X146170435Y-85628131D01*
X147624000Y-85628131D01*
X147624000Y-85965171D01*
X147625187Y-85962572D01*
X147627100Y-85958575D01*
X147639089Y-85934626D01*
X147641139Y-85930707D01*
X147658218Y-85899429D01*
X147660409Y-85895582D01*
X147674073Y-85872553D01*
X147676399Y-85868787D01*
X147812941Y-85656326D01*
X147815400Y-85652646D01*
X147830666Y-85630659D01*
X147833253Y-85627071D01*
X147854607Y-85598544D01*
X147857323Y-85595048D01*
X147874130Y-85574191D01*
X147876970Y-85570793D01*
X148042363Y-85379918D01*
X148045320Y-85376625D01*
X148063567Y-85357026D01*
X148066642Y-85353840D01*
X148091840Y-85328642D01*
X148095026Y-85325567D01*
X148114625Y-85307320D01*
X148117918Y-85304363D01*
X148308793Y-85138970D01*
X148312191Y-85136130D01*
X148327244Y-85124000D01*
X147902690Y-85124000D01*
X147867943Y-85207886D01*
X147866329Y-85211609D01*
X147856191Y-85233984D01*
X147854454Y-85237656D01*
X147840006Y-85266951D01*
X147838152Y-85270560D01*
X147826589Y-85292191D01*
X147824620Y-85295734D01*
X147683726Y-85539771D01*
X147681641Y-85543250D01*
X147668676Y-85564100D01*
X147666476Y-85567512D01*
X147648328Y-85594672D01*
X147646019Y-85598009D01*
X147631725Y-85617956D01*
X147629307Y-85621215D01*
X147624000Y-85628131D01*
X146170435Y-85628131D01*
X146302127Y-85552099D01*
X146499776Y-85400438D01*
X146675938Y-85224276D01*
X146827599Y-85026627D01*
X146952164Y-84810873D01*
X147047502Y-84580707D01*
X147111982Y-84340065D01*
X147144500Y-84093065D01*
X147144500Y-83843935D01*
X147111982Y-83596935D01*
X147047502Y-83356293D01*
X146952164Y-83126127D01*
X146916569Y-83064475D01*
X146827599Y-82910373D01*
X146675939Y-82712725D01*
X146675933Y-82712718D01*
X146587215Y-82624000D01*
X147814652Y-82624000D01*
X147824620Y-82641266D01*
X147826589Y-82644809D01*
X147838152Y-82666440D01*
X147840006Y-82670049D01*
X147854454Y-82699344D01*
X147856191Y-82703016D01*
X147866329Y-82725391D01*
X147867943Y-82729114D01*
X147975779Y-82989453D01*
X147977269Y-82993224D01*
X147985906Y-83016170D01*
X147987272Y-83019988D01*
X147997773Y-83050918D01*
X147999015Y-83054782D01*
X148006149Y-83078296D01*
X148007265Y-83082202D01*
X148080203Y-83354407D01*
X148081189Y-83358344D01*
X148086762Y-83382246D01*
X148087618Y-83386210D01*
X148093991Y-83418247D01*
X148094719Y-83422245D01*
X148098717Y-83446466D01*
X148099311Y-83450475D01*
X148136094Y-83729862D01*
X148136558Y-83733894D01*
X148138964Y-83758323D01*
X148139296Y-83762369D01*
X148141432Y-83794965D01*
X148141631Y-83799016D01*
X148142434Y-83823547D01*
X148142500Y-83827604D01*
X148142500Y-84109396D01*
X148142434Y-84113453D01*
X148142023Y-84126000D01*
X149126000Y-84126000D01*
X149126000Y-83713713D01*
X151049500Y-83713713D01*
X151049500Y-83926286D01*
X151082753Y-84136239D01*
X151148444Y-84338414D01*
X151244951Y-84527820D01*
X151369890Y-84699786D01*
X151520213Y-84850109D01*
X151692179Y-84975048D01*
X151692181Y-84975049D01*
X151692184Y-84975051D01*
X151881588Y-85071557D01*
X152083757Y-85137246D01*
X152293713Y-85170500D01*
X152293714Y-85170500D01*
X152506286Y-85170500D01*
X152506287Y-85170500D01*
X152716243Y-85137246D01*
X152918412Y-85071557D01*
X153107816Y-84975051D01*
X153129789Y-84959086D01*
X153279786Y-84850109D01*
X153279788Y-84850106D01*
X153279792Y-84850104D01*
X153430104Y-84699792D01*
X153430106Y-84699788D01*
X153430109Y-84699786D01*
X153555048Y-84527820D01*
X153555047Y-84527820D01*
X153555051Y-84527816D01*
X153651557Y-84338412D01*
X153717246Y-84136243D01*
X153750500Y-83926287D01*
X153750500Y-83713713D01*
X153717246Y-83503757D01*
X153651557Y-83301588D01*
X153555051Y-83112184D01*
X153555049Y-83112181D01*
X153555048Y-83112179D01*
X153459825Y-82981115D01*
X153459824Y-82981115D01*
X153430104Y-82940208D01*
X153279792Y-82789896D01*
X153230385Y-82754000D01*
X153283480Y-82754000D01*
X153287680Y-82695270D01*
X153329552Y-82639337D01*
X153360529Y-82622422D01*
X153492086Y-82573354D01*
X153492093Y-82573350D01*
X153607187Y-82487190D01*
X153607190Y-82487187D01*
X153693350Y-82372093D01*
X153693354Y-82372086D01*
X153743596Y-82237379D01*
X153743598Y-82237372D01*
X153749999Y-82177844D01*
X153750000Y-82177827D01*
X153750000Y-80382172D01*
X153749999Y-80382155D01*
X153743598Y-80322627D01*
X153743596Y-80322620D01*
X153693354Y-80187913D01*
X153693350Y-80187906D01*
X153607190Y-80072812D01*
X153607187Y-80072809D01*
X153492093Y-79986649D01*
X153492086Y-79986645D01*
X153357379Y-79936403D01*
X153357372Y-79936401D01*
X153297844Y-79930000D01*
X151502155Y-79930000D01*
X151442627Y-79936401D01*
X151442620Y-79936403D01*
X151307913Y-79986645D01*
X151307906Y-79986649D01*
X151192812Y-80072809D01*
X151192809Y-80072812D01*
X151106649Y-80187906D01*
X151106645Y-80187913D01*
X151056403Y-80322620D01*
X151056401Y-80322627D01*
X151050000Y-80382155D01*
X151050000Y-81030000D01*
X151966988Y-81030000D01*
X151934075Y-81087007D01*
X151900000Y-81214174D01*
X151900000Y-81345826D01*
X151934075Y-81472993D01*
X151966988Y-81530000D01*
X151050000Y-81530000D01*
X151050000Y-82177844D01*
X151056401Y-82237372D01*
X151056403Y-82237379D01*
X151106645Y-82372086D01*
X151106649Y-82372093D01*
X151192809Y-82487187D01*
X151192812Y-82487190D01*
X151307906Y-82573350D01*
X151307913Y-82573354D01*
X151439470Y-82622422D01*
X151495404Y-82664293D01*
X151519821Y-82729758D01*
X151514547Y-82754000D01*
X151569615Y-82754000D01*
X151520208Y-82789896D01*
X151369896Y-82940208D01*
X151340175Y-82981115D01*
X151340173Y-82981115D01*
X151244951Y-83112179D01*
X151148444Y-83301585D01*
X151082753Y-83503760D01*
X151049500Y-83713713D01*
X149126000Y-83713713D01*
X149126000Y-82624000D01*
X147814652Y-82624000D01*
X146587215Y-82624000D01*
X146499781Y-82536566D01*
X146499774Y-82536560D01*
X146302126Y-82384900D01*
X146086376Y-82260337D01*
X146086361Y-82260330D01*
X145856207Y-82164998D01*
X145775916Y-82143484D01*
X145615565Y-82100518D01*
X145615564Y-82100517D01*
X145615561Y-82100517D01*
X145368575Y-82068001D01*
X145368570Y-82068000D01*
X145368565Y-82068000D01*
X145119435Y-82068000D01*
X145119429Y-82068000D01*
X145119424Y-82068001D01*
X144872438Y-82100517D01*
X144631792Y-82164998D01*
X144401638Y-82260330D01*
X144401623Y-82260337D01*
X144185873Y-82384900D01*
X143988225Y-82536560D01*
X143988218Y-82536566D01*
X143812066Y-82712718D01*
X143812060Y-82712725D01*
X143660400Y-82910373D01*
X143535837Y-83126123D01*
X143535830Y-83126138D01*
X143440498Y-83356292D01*
X143376017Y-83596938D01*
X143343501Y-83843924D01*
X143343500Y-83843941D01*
X140881958Y-83843941D01*
X140869021Y-83778902D01*
X140844001Y-83718500D01*
X142144000Y-83718500D01*
X142144000Y-82768527D01*
X142143999Y-82768514D01*
X142133506Y-82665810D01*
X142133505Y-82665803D01*
X142078358Y-82499381D01*
X142078356Y-82499376D01*
X141986315Y-82350155D01*
X141862344Y-82226184D01*
X141713123Y-82134143D01*
X141713118Y-82134141D01*
X141546696Y-82078994D01*
X141546689Y-82078993D01*
X141443985Y-82068500D01*
X140494000Y-82068500D01*
X140494000Y-83368498D01*
X140433598Y-83343479D01*
X140308019Y-83318500D01*
X140179981Y-83318500D01*
X140054402Y-83343479D01*
X139994000Y-83368498D01*
X139994000Y-82068500D01*
X139044014Y-82068500D01*
X138941310Y-82078993D01*
X138941303Y-82078994D01*
X138774881Y-82134141D01*
X138774876Y-82134143D01*
X138625655Y-82226184D01*
X138501684Y-82350155D01*
X138409643Y-82499376D01*
X138409641Y-82499381D01*
X138354494Y-82665803D01*
X138354493Y-82665810D01*
X138344000Y-82768514D01*
X136626000Y-82768514D01*
X136626000Y-82624000D01*
X136262282Y-82624000D01*
X136191975Y-82720769D01*
X136189032Y-82724657D01*
X136170773Y-82747816D01*
X136167683Y-82751581D01*
X136142222Y-82781388D01*
X136138988Y-82785027D01*
X136119014Y-82806632D01*
X136115644Y-82810136D01*
X135937636Y-82988144D01*
X135934132Y-82991514D01*
X135912527Y-83011488D01*
X135908888Y-83014722D01*
X135879081Y-83040183D01*
X135875316Y-83043273D01*
X135852157Y-83061532D01*
X135848269Y-83064475D01*
X135644565Y-83212474D01*
X135640568Y-83215260D01*
X135616073Y-83231626D01*
X135611973Y-83234250D01*
X135578550Y-83254731D01*
X135574350Y-83257193D01*
X135548654Y-83271583D01*
X135544361Y-83273878D01*
X135320019Y-83388186D01*
X135315636Y-83390311D01*
X135288861Y-83402654D01*
X135284392Y-83404609D01*
X135248175Y-83419607D01*
X135243647Y-83421379D01*
X135216037Y-83431564D01*
X135211440Y-83433158D01*
X135124000Y-83461569D01*
X133608000Y-83461569D01*
X133520560Y-83433158D01*
X133515963Y-83431564D01*
X133488353Y-83421379D01*
X133483825Y-83419607D01*
X133447608Y-83404609D01*
X133443139Y-83402654D01*
X133416364Y-83390311D01*
X133411981Y-83388186D01*
X133187639Y-83273878D01*
X133183346Y-83271583D01*
X133157650Y-83257193D01*
X133153450Y-83254731D01*
X133120027Y-83234250D01*
X133115927Y-83231626D01*
X133096000Y-83218312D01*
X133076073Y-83231626D01*
X133071973Y-83234250D01*
X133038550Y-83254731D01*
X133034350Y-83257193D01*
X133008654Y-83271583D01*
X133004361Y-83273878D01*
X132780019Y-83388186D01*
X132775636Y-83390311D01*
X132748861Y-83402654D01*
X132744392Y-83404609D01*
X132708175Y-83419607D01*
X132703647Y-83421379D01*
X132676037Y-83431564D01*
X132671440Y-83433158D01*
X132624000Y-83448572D01*
X131027999Y-83448572D01*
X130980560Y-83433158D01*
X130975963Y-83431564D01*
X130948353Y-83421379D01*
X130943825Y-83419607D01*
X130907608Y-83404609D01*
X130903139Y-83402654D01*
X130883442Y-83393574D01*
X130825333Y-83425305D01*
X130817419Y-83429267D01*
X130768682Y-83451525D01*
X130760502Y-83454913D01*
X130563018Y-83528569D01*
X130555679Y-83531048D01*
X130510828Y-83544653D01*
X130503352Y-83546668D01*
X130442637Y-83561016D01*
X130435045Y-83562561D01*
X130388840Y-83570472D01*
X130381167Y-83571541D01*
X130277245Y-83582712D01*
X130273936Y-83583023D01*
X130253899Y-83584635D01*
X130250587Y-83584857D01*
X130223905Y-83586286D01*
X130220587Y-83586419D01*
X130200536Y-83586955D01*
X130197222Y-83586999D01*
X130124000Y-83586999D01*
X129126000Y-83586999D01*
X128408399Y-83586999D01*
X126626000Y-83586999D01*
X126626000Y-83586936D01*
X127624000Y-83586936D01*
X127776875Y-83562723D01*
X127781699Y-83562055D01*
X127810933Y-83558595D01*
X127815770Y-83558119D01*
X127854849Y-83555041D01*
X127859714Y-83554754D01*
X127889166Y-83553596D01*
X127894038Y-83553500D01*
X128097559Y-83553500D01*
X128068670Y-83546674D01*
X128061191Y-83544658D01*
X128016328Y-83531050D01*
X128008988Y-83528571D01*
X127811498Y-83454913D01*
X127803318Y-83451525D01*
X127754581Y-83429267D01*
X127746667Y-83425305D01*
X127684077Y-83391128D01*
X127676463Y-83386610D01*
X127631396Y-83357646D01*
X127624126Y-83352598D01*
X127624000Y-83352503D01*
X127624000Y-83586936D01*
X126626000Y-83586936D01*
X126626000Y-82624000D01*
X125124000Y-82624000D01*
X125124000Y-83591499D01*
X124126000Y-83591499D01*
X124126000Y-82624000D01*
X123926500Y-82624000D01*
X123926500Y-84126000D01*
X122928500Y-84126000D01*
X122928500Y-81626000D01*
X123926500Y-81626000D01*
X124126000Y-81626000D01*
X125124000Y-81626000D01*
X126626000Y-81626000D01*
X126626000Y-80492500D01*
X125124000Y-80492500D01*
X125124000Y-81626000D01*
X124126000Y-81626000D01*
X124126000Y-80492500D01*
X123926500Y-80492500D01*
X123926500Y-81626000D01*
X122928500Y-81626000D01*
X122928500Y-80340635D01*
X127935500Y-80340635D01*
X127935500Y-82136370D01*
X127935501Y-82136376D01*
X127941908Y-82195983D01*
X127992202Y-82330828D01*
X127992206Y-82330835D01*
X128078452Y-82446044D01*
X128078455Y-82446047D01*
X128193664Y-82532293D01*
X128193671Y-82532297D01*
X128328517Y-82582591D01*
X128328516Y-82582591D01*
X128335444Y-82583335D01*
X128388127Y-82589000D01*
X130183872Y-82588999D01*
X130243483Y-82582591D01*
X130378331Y-82532296D01*
X130493546Y-82446046D01*
X130579796Y-82330831D01*
X130628810Y-82199416D01*
X130670681Y-82143484D01*
X130736145Y-82119066D01*
X130804418Y-82133917D01*
X130832673Y-82155069D01*
X130946213Y-82268609D01*
X131118179Y-82393548D01*
X131118181Y-82393549D01*
X131118184Y-82393551D01*
X131307588Y-82490057D01*
X131509757Y-82555746D01*
X131719713Y-82589000D01*
X131719714Y-82589000D01*
X131932286Y-82589000D01*
X131932287Y-82589000D01*
X132142243Y-82555746D01*
X132344412Y-82490057D01*
X132533816Y-82393551D01*
X132620138Y-82330835D01*
X132705786Y-82268609D01*
X132705788Y-82268606D01*
X132705792Y-82268604D01*
X132856104Y-82118292D01*
X132856106Y-82118288D01*
X132856109Y-82118286D01*
X132981048Y-81946320D01*
X132981047Y-81946320D01*
X132981051Y-81946316D01*
X132985514Y-81937554D01*
X133033488Y-81886759D01*
X133101308Y-81869963D01*
X133167444Y-81892499D01*
X133206486Y-81937556D01*
X133210951Y-81946320D01*
X133335890Y-82118286D01*
X133486213Y-82268609D01*
X133658179Y-82393548D01*
X133658181Y-82393549D01*
X133658184Y-82393551D01*
X133847588Y-82490057D01*
X134049757Y-82555746D01*
X134259713Y-82589000D01*
X134259714Y-82589000D01*
X134472286Y-82589000D01*
X134472287Y-82589000D01*
X134682243Y-82555746D01*
X134884412Y-82490057D01*
X135073816Y-82393551D01*
X135160138Y-82330835D01*
X135245786Y-82268609D01*
X135245788Y-82268606D01*
X135245792Y-82268604D01*
X135396104Y-82118292D01*
X135396106Y-82118288D01*
X135396109Y-82118286D01*
X135521048Y-81946320D01*
X135521047Y-81946320D01*
X135521051Y-81946316D01*
X135617557Y-81756912D01*
X135660093Y-81626000D01*
X137624000Y-81626000D01*
X137814456Y-81626000D01*
X137864000Y-81576456D01*
X142624000Y-81576456D01*
X142673544Y-81626000D01*
X143535497Y-81626000D01*
X147624000Y-81626000D01*
X149126000Y-81626000D01*
X149126000Y-80492500D01*
X147624000Y-80492500D01*
X147624000Y-81626000D01*
X143535497Y-81626000D01*
X143591286Y-81583192D01*
X143594544Y-81580775D01*
X143614491Y-81566481D01*
X143617828Y-81564172D01*
X143644988Y-81546024D01*
X143648400Y-81543824D01*
X143669250Y-81530859D01*
X143672729Y-81528774D01*
X143916766Y-81387880D01*
X143920309Y-81385911D01*
X143941940Y-81374348D01*
X143945549Y-81372494D01*
X143974844Y-81358046D01*
X143978516Y-81356309D01*
X144000891Y-81346171D01*
X144004614Y-81344557D01*
X144126000Y-81294276D01*
X144126000Y-81070000D01*
X145124000Y-81070000D01*
X145384896Y-81070000D01*
X145388953Y-81070066D01*
X145413484Y-81070869D01*
X145417535Y-81071068D01*
X145450131Y-81073204D01*
X145454177Y-81073536D01*
X145478606Y-81075942D01*
X145482638Y-81076406D01*
X145762025Y-81113189D01*
X145766034Y-81113783D01*
X145790255Y-81117781D01*
X145794253Y-81118509D01*
X145826290Y-81124882D01*
X145830254Y-81125738D01*
X145854156Y-81131311D01*
X145858093Y-81132297D01*
X146130298Y-81205235D01*
X146134204Y-81206351D01*
X146157718Y-81213485D01*
X146161582Y-81214727D01*
X146192512Y-81225228D01*
X146196330Y-81226594D01*
X146219276Y-81235231D01*
X146223047Y-81236721D01*
X146483386Y-81344557D01*
X146487109Y-81346171D01*
X146509484Y-81356309D01*
X146513156Y-81358046D01*
X146542451Y-81372494D01*
X146546060Y-81374348D01*
X146567691Y-81385911D01*
X146571234Y-81387880D01*
X146626000Y-81419498D01*
X146626000Y-80492500D01*
X145124000Y-80492500D01*
X145124000Y-81070000D01*
X144126000Y-81070000D01*
X144126000Y-80492500D01*
X142624000Y-80492500D01*
X142624000Y-81576456D01*
X137864000Y-81576456D01*
X137940500Y-81499956D01*
X137945744Y-81495008D01*
X137978342Y-81465997D01*
X137983868Y-81461360D01*
X138029434Y-81425330D01*
X138035220Y-81421022D01*
X138070980Y-81395982D01*
X138077008Y-81392017D01*
X138275679Y-81269476D01*
X138281927Y-81265869D01*
X138320352Y-81245151D01*
X138326799Y-81241913D01*
X138379446Y-81217365D01*
X138386067Y-81214510D01*
X138426619Y-81198400D01*
X138433396Y-81195933D01*
X138653225Y-81123089D01*
X138659698Y-81121138D01*
X138699166Y-81110408D01*
X138705734Y-81108814D01*
X138758983Y-81097412D01*
X138765634Y-81096176D01*
X138806068Y-81089801D01*
X138812777Y-81088930D01*
X138955233Y-81074376D01*
X138958379Y-81074095D01*
X138977428Y-81072638D01*
X138980579Y-81072437D01*
X139005950Y-81071145D01*
X139009104Y-81071025D01*
X139028175Y-81070540D01*
X139031327Y-81070500D01*
X139126000Y-81070500D01*
X140124000Y-81070500D01*
X140194546Y-81070500D01*
X140241998Y-81079939D01*
X140244000Y-81080768D01*
X140246002Y-81079939D01*
X140293454Y-81070500D01*
X141456673Y-81070500D01*
X141459825Y-81070540D01*
X141478896Y-81071025D01*
X141482050Y-81071145D01*
X141507421Y-81072437D01*
X141510572Y-81072638D01*
X141529621Y-81074095D01*
X141532767Y-81074376D01*
X141626000Y-81083901D01*
X141626000Y-80492500D01*
X140124000Y-80492500D01*
X140124000Y-81070500D01*
X139126000Y-81070500D01*
X139126000Y-80492500D01*
X137624000Y-80492500D01*
X137624000Y-81626000D01*
X135660093Y-81626000D01*
X135683246Y-81554743D01*
X135716500Y-81344787D01*
X135716500Y-81132213D01*
X135683246Y-80922257D01*
X135617557Y-80720088D01*
X135521051Y-80530684D01*
X135521049Y-80530681D01*
X135521048Y-80530679D01*
X135396109Y-80358713D01*
X135245786Y-80208390D01*
X135073820Y-80083451D01*
X134884414Y-79986944D01*
X134884413Y-79986943D01*
X134884412Y-79986943D01*
X134682243Y-79921254D01*
X134682241Y-79921253D01*
X134682240Y-79921253D01*
X134518320Y-79895291D01*
X134472287Y-79888000D01*
X134259713Y-79888000D01*
X134213680Y-79895291D01*
X134049760Y-79921253D01*
X133847585Y-79986944D01*
X133658179Y-80083451D01*
X133486213Y-80208390D01*
X133335890Y-80358713D01*
X133210949Y-80530682D01*
X133206484Y-80539446D01*
X133158509Y-80590242D01*
X133090688Y-80607036D01*
X133024553Y-80584498D01*
X132985516Y-80539446D01*
X132981050Y-80530682D01*
X132856109Y-80358713D01*
X132705786Y-80208390D01*
X132533820Y-80083451D01*
X132344414Y-79986944D01*
X132344413Y-79986943D01*
X132344412Y-79986943D01*
X132142243Y-79921254D01*
X132142241Y-79921253D01*
X132142240Y-79921253D01*
X131978320Y-79895291D01*
X131932287Y-79888000D01*
X131719713Y-79888000D01*
X131673680Y-79895291D01*
X131509760Y-79921253D01*
X131307585Y-79986944D01*
X131118179Y-80083451D01*
X130946215Y-80208389D01*
X130832673Y-80321931D01*
X130771350Y-80355415D01*
X130701658Y-80350431D01*
X130645725Y-80308559D01*
X130628810Y-80277582D01*
X130579797Y-80146171D01*
X130579793Y-80146164D01*
X130493547Y-80030955D01*
X130493544Y-80030952D01*
X130378335Y-79944706D01*
X130378328Y-79944702D01*
X130243482Y-79894408D01*
X130243483Y-79894408D01*
X130183883Y-79888001D01*
X130183881Y-79888000D01*
X130183873Y-79888000D01*
X130183864Y-79888000D01*
X128388129Y-79888000D01*
X128388123Y-79888001D01*
X128328516Y-79894408D01*
X128193671Y-79944702D01*
X128193664Y-79944706D01*
X128078455Y-80030952D01*
X128078452Y-80030955D01*
X127992206Y-80146164D01*
X127992202Y-80146171D01*
X127941908Y-80281017D01*
X127935501Y-80340616D01*
X127935500Y-80340635D01*
X122928500Y-80340635D01*
X122928500Y-80016960D01*
X122929280Y-80003077D01*
X122935924Y-79944108D01*
X122939861Y-79909169D01*
X122946034Y-79882117D01*
X122974941Y-79799508D01*
X122986978Y-79774512D01*
X123033537Y-79700415D01*
X123050843Y-79678714D01*
X123112714Y-79616843D01*
X123134415Y-79599537D01*
X123208512Y-79552978D01*
X123233515Y-79540938D01*
X123316110Y-79512036D01*
X123343167Y-79505861D01*
X123429853Y-79496094D01*
X123437079Y-79495280D01*
X123450962Y-79494500D01*
X123509893Y-79494500D01*
X153604107Y-79494500D01*
X153663038Y-79494500D01*
X153676921Y-79495280D01*
G37*
%TD.AperFunction*%
%TD*%
M02*
